<ttFont>
    <TTGlyph name=".001" xMin="27" yMin="-160" xMax="451" yMax="477">
      <contour>
        <pt x="76" y="-96" on="1"/>
        <pt x="139" y="-96" on="0"/>
        <pt x="239" y="-57" on="0"/>
        <pt x="312" y="6" on="0"/>
        <pt x="356" y="87" on="0"/>
        <pt x="364" y="129" on="1"/>
        <pt x="362" y="131" on="1"/>
        <pt x="338" y="101" on="0"/>
        <pt x="263" y="69" on="0"/>
        <pt x="221" y="69" on="1"/>
        <pt x="175" y="69" on="0"/>
        <pt x="103" y="98" on="0"/>
        <pt x="53" y="151" on="0"/>
        <pt x="27" y="223" on="0"/>
        <pt x="27" y="265" on="1"/>
        <pt x="27" y="313" on="0"/>
        <pt x="61" y="391" on="0"/>
        <pt x="118" y="446" on="0"/>
        <pt x="195" y="477" on="0"/>
        <pt x="239" y="477" on="1"/>
        <pt x="284" y="477" on="0"/>
        <pt x="362" y="445" on="0"/>
        <pt x="419" y="380" on="0"/>
        <pt x="451" y="282" on="0"/>
        <pt x="451" y="215" on="1"/>
        <pt x="451" y="138" on="0"/>
        <pt x="403" y="1" on="0"/>
        <pt x="312" y="-101" on="0"/>
        <pt x="178" y="-160" on="0"/>
        <pt x="91" y="-160" on="1"/>
        <pt x="80" y="-160" on="0"/>
        <pt x="56" y="-158" on="0"/>
        <pt x="45" y="-156" on="1"/>
        <pt x="38" y="-93" on="1"/>
        <pt x="47" y="-95" on="0"/>
        <pt x="63" y="-96" on="0"/>
      </contour>
      <contour>
        <pt x="369" y="251" on="1"/>
        <pt x="369" y="283" on="0"/>
        <pt x="353" y="341" on="0"/>
        <pt x="321" y="384" on="0"/>
        <pt x="271" y="410" on="0"/>
        <pt x="237" y="410" on="1"/>
        <pt x="181" y="410" on="0"/>
        <pt x="111" y="332" on="0"/>
        <pt x="111" y="269" on="1"/>
        <pt x="111" y="207" on="0"/>
        <pt x="178" y="135" on="0"/>
        <pt x="235" y="135" on="1"/>
        <pt x="283" y="135" on="0"/>
        <pt x="338" y="170" on="0"/>
        <pt x="352" y="193" on="1"/>
        <pt x="369" y="220" on="0"/>
      </contour>
    </TTGlyph>
    <TTGlyph name=".002" xMin="-402" yMin="700" xMax="-90" yMax="902">
      <contour>
        <pt x="-154" y="902" on="1"/>
        <pt x="-90" y="902" on="1"/>
        <pt x="-90" y="700" on="1"/>
        <pt x="-154" y="700" on="1"/>
      </contour>
      <contour>
        <pt x="-278" y="902" on="1"/>
        <pt x="-214" y="902" on="1"/>
        <pt x="-214" y="700" on="1"/>
        <pt x="-278" y="700" on="1"/>
      </contour>
      <contour>
        <pt x="-402" y="902" on="1"/>
        <pt x="-338" y="902" on="1"/>
        <pt x="-338" y="700" on="1"/>
        <pt x="-402" y="700" on="1"/>
      </contour>
    </TTGlyph>
    <TTGlyph name=".004" xMin="68" yMin="-160" xMax="471" yMax="470">
      <contour>
        <pt x="383" y="470" on="1"/>
        <pt x="471" y="470" on="1"/>
        <pt x="471" y="0" on="1"/>
        <pt x="402" y="0" on="1"/>
        <pt x="390" y="59" on="1"/>
        <pt x="386" y="59" on="1"/>
        <pt x="360" y="30" on="0"/>
        <pt x="283" y="-9" on="0"/>
        <pt x="232" y="-9" on="1"/>
        <pt x="209" y="-9" on="0"/>
        <pt x="169" y="-1" on="0"/>
        <pt x="149" y="9" on="1"/>
        <pt x="156" y="-73" on="1"/>
        <pt x="156" y="-160" on="1"/>
        <pt x="68" y="-160" on="1"/>
        <pt x="68" y="470" on="1"/>
        <pt x="156" y="470" on="1"/>
        <pt x="156" y="169" on="1"/>
        <pt x="156" y="139" on="0"/>
        <pt x="171" y="97" on="0"/>
        <pt x="196" y="72" on="0"/>
        <pt x="230" y="61" on="0"/>
        <pt x="250" y="61" on="1"/>
        <pt x="290" y="61" on="0"/>
        <pt x="354" y="95" on="0"/>
        <pt x="383" y="125" on="1"/>
      </contour>
    </TTGlyph>
    <TTGlyph name=".notdef" xMin="0" yMin="0" xMax="500" yMax="700">
      <contour>
        <pt x="0" y="700" on="1"/>
        <pt x="500" y="700" on="1"/>
        <pt x="500" y="0" on="1"/>
        <pt x="0" y="0" on="1"/>
      </contour>
      <contour>
        <pt x="420" y="650" on="1"/>
        <pt x="80" y="650" on="1"/>
        <pt x="250" y="395" on="1"/>
      </contour>
      <contour>
        <pt x="450" y="95" on="1"/>
        <pt x="450" y="605" on="1"/>
        <pt x="280" y="350" on="1"/>
      </contour>
      <contour>
        <pt x="420" y="50" on="1"/>
        <pt x="250" y="305" on="1"/>
        <pt x="80" y="50" on="1"/>
      </contour>
      <contour>
        <pt x="50" y="95" on="1"/>
        <pt x="220" y="350" on="1"/>
        <pt x="50" y="605" on="1"/>
      </contour>
    </TTGlyph>
    <TTGlyph name=".notdef#1" xMin="-190" yMin="626" xMax="34" yMax="872">
      <contour>
        <pt x="-156" y="626" on="1"/>
        <pt x="-156" y="634" on="1"/>
        <pt x="-167" y="652" on="0"/>
        <pt x="-190" y="706" on="0"/>
        <pt x="-190" y="751" on="1"/>
        <pt x="-190" y="808" on="0"/>
        <pt x="-122" y="872" on="0"/>
        <pt x="-60" y="872" on="1"/>
        <pt x="-32" y="872" on="0"/>
        <pt x="17" y="860" on="0"/>
        <pt x="34" y="849" on="1"/>
        <pt x="14" y="788" on="1"/>
        <pt x="-1" y="796" on="0"/>
        <pt x="-28" y="804" on="0"/>
        <pt x="-48" y="804" on="1"/>
        <pt x="-74" y="804" on="0"/>
        <pt x="-115" y="769" on="0"/>
        <pt x="-115" y="731" on="1"/>
        <pt x="-115" y="700" on="0"/>
        <pt x="-96" y="653" on="0"/>
        <pt x="-79" y="630" on="1"/>
      </contour>
      <contour>
        <pt x="-75" y="722" on="1"/>
        <pt x="-75" y="736" on="0"/>
        <pt x="-56" y="755" on="0"/>
        <pt x="-41" y="755" on="1"/>
        <pt x="-27" y="755" on="0"/>
        <pt x="-8" y="736" on="0"/>
        <pt x="-8" y="722" on="1"/>
        <pt x="-8" y="707" on="0"/>
        <pt x="-27" y="688" on="0"/>
        <pt x="-41" y="688" on="1"/>
        <pt x="-56" y="688" on="0"/>
        <pt x="-75" y="707" on="0"/>
      </contour>
    </TTGlyph>
    <TTGlyph name=".notdef#2" xMin="-190" yMin="626" xMax="58" yMax="882">
      <contour>
        <pt x="-156" y="626" on="1"/>
        <pt x="-156" y="634" on="1"/>
        <pt x="-167" y="652" on="0"/>
        <pt x="-190" y="714" on="0"/>
        <pt x="-190" y="759" on="1"/>
        <pt x="-190" y="816" on="0"/>
        <pt x="-117" y="882" on="0"/>
        <pt x="-40" y="882" on="1"/>
        <pt x="38" y="882" on="1"/>
        <pt x="38" y="814" on="1"/>
        <pt x="-28" y="814" on="1"/>
        <pt x="-70" y="814" on="0"/>
        <pt x="-115" y="777" on="0"/>
        <pt x="-115" y="739" on="1"/>
        <pt x="-115" y="708" on="0"/>
        <pt x="-96" y="653" on="0"/>
        <pt x="-79" y="630" on="1"/>
      </contour>
      <contour>
        <pt x="58" y="742" on="1"/>
        <pt x="58" y="704" on="0"/>
        <pt x="18" y="673" on="0"/>
        <pt x="-6" y="673" on="1"/>
        <pt x="-33" y="673" on="0"/>
        <pt x="-73" y="705" on="0"/>
        <pt x="-73" y="742" on="1"/>
        <pt x="-44" y="742" on="1"/>
        <pt x="-42" y="719" on="0"/>
        <pt x="-24" y="702" on="0"/>
        <pt x="-7" y="702" on="1"/>
        <pt x="10" y="702" on="0"/>
        <pt x="27" y="722" on="0"/>
        <pt x="29" y="742" on="1"/>
      </contour>
      <contour>
        <pt x="-25" y="743" on="1"/>
        <pt x="-25" y="751" on="0"/>
        <pt x="-15" y="763" on="0"/>
        <pt x="-7" y="763" on="1"/>
        <pt x="1" y="763" on="0"/>
        <pt x="10" y="751" on="0"/>
        <pt x="10" y="743" on="1"/>
        <pt x="10" y="722" on="0"/>
        <pt x="-7" y="722" on="1"/>
        <pt x="-25" y="722" on="0"/>
      </contour>
    </TTGlyph>
    <TTGlyph name="A" xMin="2" yMin="0" xMax="589" yMax="630">
      <contour>
        <pt x="256" y="630" on="1"/>
        <pt x="338" y="630" on="1"/>
        <pt x="589" y="0" on="1"/>
        <pt x="493" y="0" on="1"/>
        <pt x="424" y="175" on="1"/>
        <pt x="165" y="175" on="1"/>
        <pt x="97" y="0" on="1"/>
        <pt x="2" y="0" on="1"/>
      </contour>
      <contour>
        <pt x="190" y="248" on="1"/>
        <pt x="397" y="248" on="1"/>
        <pt x="355" y="357" on="1"/>
        <pt x="338" y="400" on="0"/>
        <pt x="310" y="480" on="0"/>
        <pt x="296" y="522" on="1"/>
        <pt x="294" y="522" on="1"/>
        <pt x="280" y="480" on="0"/>
        <pt x="250" y="402" on="0"/>
        <pt x="233" y="357" on="1"/>
      </contour>
    </TTGlyph>
    <TTGlyph name="AE" xMin="2" yMin="0" xMax="745" yMax="630">
      <contour>
        <pt x="2" y="0" on="1"/>
        <pt x="326" y="630" on="1"/>
        <pt x="742" y="630" on="1"/>
        <pt x="742" y="554" on="1"/>
        <pt x="474" y="554" on="1"/>
        <pt x="474" y="365" on="1"/>
        <pt x="716" y="365" on="1"/>
        <pt x="716" y="290" on="1"/>
        <pt x="474" y="290" on="1"/>
        <pt x="474" y="76" on="1"/>
        <pt x="745" y="76" on="1"/>
        <pt x="745" y="0" on="1"/>
        <pt x="386" y="0" on="1"/>
        <pt x="386" y="175" on="1"/>
        <pt x="196" y="175" on="1"/>
        <pt x="111" y="0" on="1"/>
      </contour>
      <contour>
        <pt x="386" y="561" on="1"/>
        <pt x="227" y="245" on="1"/>
        <pt x="386" y="245" on="1"/>
      </contour>
    </TTGlyph>
    <TTGlyph name="AEacute" xMin="2" yMin="0" xMax="745" yMax="834">
      <contour>
        <pt x="2" y="0" on="1"/>
        <pt x="326" y="630" on="1"/>
        <pt x="742" y="630" on="1"/>
        <pt x="742" y="554" on="1"/>
        <pt x="474" y="554" on="1"/>
        <pt x="474" y="365" on="1"/>
        <pt x="716" y="365" on="1"/>
        <pt x="716" y="290" on="1"/>
        <pt x="474" y="290" on="1"/>
        <pt x="474" y="76" on="1"/>
        <pt x="745" y="76" on="1"/>
        <pt x="745" y="0" on="1"/>
        <pt x="386" y="0" on="1"/>
        <pt x="386" y="175" on="1"/>
        <pt x="196" y="175" on="1"/>
        <pt x="111" y="0" on="1"/>
      </contour>
      <contour>
        <pt x="386" y="561" on="1"/>
        <pt x="227" y="245" on="1"/>
        <pt x="386" y="245" on="1"/>
      </contour>
      <contour>
        <pt x="433" y="710" on="1"/>
        <pt x="361" y="710" on="1"/>
        <pt x="441" y="834" on="1"/>
        <pt x="544" y="834" on="1"/>
      </contour>
    </TTGlyph>
    <TTGlyph name="Aacute" xMin="2" yMin="0" xMax="589" yMax="834">
      <contour>
        <pt x="327" y="710" on="1"/>
        <pt x="255" y="710" on="1"/>
        <pt x="335" y="834" on="1"/>
        <pt x="438" y="834" on="1"/>
      </contour>
      <contour>
        <pt x="256" y="630" on="1"/>
        <pt x="338" y="630" on="1"/>
        <pt x="589" y="0" on="1"/>
        <pt x="493" y="0" on="1"/>
        <pt x="424" y="175" on="1"/>
        <pt x="165" y="175" on="1"/>
        <pt x="97" y="0" on="1"/>
        <pt x="2" y="0" on="1"/>
      </contour>
      <contour>
        <pt x="190" y="248" on="1"/>
        <pt x="397" y="248" on="1"/>
        <pt x="355" y="357" on="1"/>
        <pt x="338" y="400" on="0"/>
        <pt x="310" y="480" on="0"/>
        <pt x="296" y="522" on="1"/>
        <pt x="294" y="522" on="1"/>
        <pt x="280" y="480" on="0"/>
        <pt x="250" y="402" on="0"/>
        <pt x="233" y="357" on="1"/>
      </contour>
    </TTGlyph>
    <TTGlyph name="Abreve" xMin="2" yMin="0" xMax="589" yMax="834">
      <contour>
        <pt x="223" y="834" on="1"/>
        <pt x="227" y="802" on="0"/>
        <pt x="254" y="764" on="0"/>
        <pt x="295" y="764" on="1"/>
        <pt x="330" y="764" on="0"/>
        <pt x="363" y="800" on="0"/>
        <pt x="367" y="834" on="1"/>
        <pt x="429" y="834" on="1"/>
        <pt x="429" y="780" on="0"/>
        <pt x="360" y="710" on="0"/>
        <pt x="295" y="710" on="1"/>
        <pt x="259" y="710" on="0"/>
        <pt x="208" y="731" on="0"/>
        <pt x="175" y="766" on="0"/>
        <pt x="160" y="811" on="0"/>
        <pt x="160" y="834" on="1"/>
      </contour>
      <contour>
        <pt x="2" y="0" on="1"/>
        <pt x="97" y="0" on="1"/>
        <pt x="165" y="175" on="1"/>
        <pt x="424" y="175" on="1"/>
        <pt x="493" y="0" on="1"/>
        <pt x="589" y="0" on="1"/>
        <pt x="338" y="630" on="1"/>
        <pt x="256" y="630" on="1"/>
      </contour>
      <contour>
        <pt x="233" y="357" on="1"/>
        <pt x="250" y="402" on="0"/>
        <pt x="280" y="480" on="0"/>
        <pt x="294" y="522" on="1"/>
        <pt x="296" y="522" on="1"/>
        <pt x="310" y="480" on="0"/>
        <pt x="338" y="400" on="0"/>
        <pt x="355" y="357" on="1"/>
        <pt x="397" y="248" on="1"/>
        <pt x="190" y="248" on="1"/>
      </contour>
    </TTGlyph>
    <TTGlyph name="Acircumflex" xMin="2" yMin="0" xMax="589" yMax="844">
      <contour>
        <pt x="261" y="844" on="1"/>
        <pt x="330" y="844" on="1"/>
        <pt x="455" y="710" on="1"/>
        <pt x="375" y="710" on="1"/>
        <pt x="295" y="794" on="1"/>
        <pt x="215" y="710" on="1"/>
        <pt x="139" y="710" on="1"/>
      </contour>
      <contour>
        <pt x="256" y="630" on="1"/>
        <pt x="338" y="630" on="1"/>
        <pt x="589" y="0" on="1"/>
        <pt x="493" y="0" on="1"/>
        <pt x="424" y="175" on="1"/>
        <pt x="165" y="175" on="1"/>
        <pt x="97" y="0" on="1"/>
        <pt x="2" y="0" on="1"/>
      </contour>
      <contour>
        <pt x="190" y="248" on="1"/>
        <pt x="397" y="248" on="1"/>
        <pt x="355" y="357" on="1"/>
        <pt x="338" y="400" on="0"/>
        <pt x="310" y="480" on="0"/>
        <pt x="296" y="522" on="1"/>
        <pt x="294" y="522" on="1"/>
        <pt x="280" y="480" on="0"/>
        <pt x="250" y="402" on="0"/>
        <pt x="233" y="357" on="1"/>
      </contour>
    </TTGlyph>
    <TTGlyph name="Acute" xMin="32" yMin="710" xMax="215" yMax="834">
      <contour>
        <pt x="104" y="710" on="1"/>
        <pt x="32" y="710" on="1"/>
        <pt x="112" y="834" on="1"/>
        <pt x="215" y="834" on="1"/>
      </contour>
    </TTGlyph>
    <TTGlyph name="Adieresis" xMin="2" yMin="0" xMax="589" yMax="810">
      <contour>
        <pt x="162" y="761" on="1"/>
        <pt x="162" y="780" on="0"/>
        <pt x="192" y="810" on="0"/>
        <pt x="212" y="810" on="1"/>
        <pt x="232" y="810" on="0"/>
        <pt x="262" y="780" on="0"/>
        <pt x="262" y="761" on="1"/>
        <pt x="262" y="741" on="0"/>
        <pt x="232" y="710" on="0"/>
        <pt x="212" y="710" on="1"/>
        <pt x="192" y="710" on="0"/>
        <pt x="162" y="741" on="0"/>
      </contour>
      <contour>
        <pt x="328" y="761" on="1"/>
        <pt x="328" y="780" on="0"/>
        <pt x="358" y="810" on="0"/>
        <pt x="378" y="810" on="1"/>
        <pt x="398" y="810" on="0"/>
        <pt x="428" y="780" on="0"/>
        <pt x="428" y="761" on="1"/>
        <pt x="428" y="741" on="0"/>
        <pt x="398" y="710" on="0"/>
        <pt x="378" y="710" on="1"/>
        <pt x="358" y="710" on="0"/>
        <pt x="328" y="741" on="0"/>
      </contour>
      <contour>
        <pt x="2" y="0" on="1"/>
        <pt x="97" y="0" on="1"/>
        <pt x="165" y="175" on="1"/>
        <pt x="424" y="175" on="1"/>
        <pt x="493" y="0" on="1"/>
        <pt x="589" y="0" on="1"/>
        <pt x="338" y="630" on="1"/>
        <pt x="256" y="630" on="1"/>
      </contour>
      <contour>
        <pt x="233" y="357" on="1"/>
        <pt x="250" y="402" on="0"/>
        <pt x="280" y="480" on="0"/>
        <pt x="294" y="522" on="1"/>
        <pt x="296" y="522" on="1"/>
        <pt x="310" y="480" on="0"/>
        <pt x="338" y="400" on="0"/>
        <pt x="355" y="357" on="1"/>
        <pt x="397" y="248" on="1"/>
        <pt x="190" y="248" on="1"/>
      </contour>
    </TTGlyph>
    <TTGlyph name="Agrave" xMin="2" yMin="0" xMax="589" yMax="834">
      <contour>
        <pt x="153" y="834" on="1"/>
        <pt x="256" y="834" on="1"/>
        <pt x="336" y="710" on="1"/>
        <pt x="264" y="710" on="1"/>
      </contour>
      <contour>
        <pt x="2" y="0" on="1"/>
        <pt x="97" y="0" on="1"/>
        <pt x="165" y="175" on="1"/>
        <pt x="424" y="175" on="1"/>
        <pt x="493" y="0" on="1"/>
        <pt x="589" y="0" on="1"/>
        <pt x="338" y="630" on="1"/>
        <pt x="256" y="630" on="1"/>
      </contour>
      <contour>
        <pt x="233" y="357" on="1"/>
        <pt x="250" y="402" on="0"/>
        <pt x="280" y="480" on="0"/>
        <pt x="294" y="522" on="1"/>
        <pt x="296" y="522" on="1"/>
        <pt x="310" y="480" on="0"/>
        <pt x="338" y="400" on="0"/>
        <pt x="355" y="357" on="1"/>
        <pt x="397" y="248" on="1"/>
        <pt x="190" y="248" on="1"/>
      </contour>
    </TTGlyph>
    <TTGlyph name="Amacron" xMin="2" yMin="0" xMax="589" yMax="772">
      <contour>
        <pt x="416" y="772" on="1"/>
        <pt x="416" y="710" on="1"/>
        <pt x="171" y="710" on="1"/>
        <pt x="171" y="772" on="1"/>
      </contour>
      <contour>
        <pt x="2" y="0" on="1"/>
        <pt x="97" y="0" on="1"/>
        <pt x="165" y="175" on="1"/>
        <pt x="424" y="175" on="1"/>
        <pt x="493" y="0" on="1"/>
        <pt x="589" y="0" on="1"/>
        <pt x="338" y="630" on="1"/>
        <pt x="256" y="630" on="1"/>
      </contour>
      <contour>
        <pt x="233" y="357" on="1"/>
        <pt x="250" y="402" on="0"/>
        <pt x="280" y="480" on="0"/>
        <pt x="294" y="522" on="1"/>
        <pt x="296" y="522" on="1"/>
        <pt x="310" y="480" on="0"/>
        <pt x="338" y="400" on="0"/>
        <pt x="355" y="357" on="1"/>
        <pt x="397" y="248" on="1"/>
        <pt x="190" y="248" on="1"/>
      </contour>
    </TTGlyph>
    <TTGlyph name="Aogonek" xMin="2" yMin="-206" xMax="602" yMax="630">
      <contour>
        <pt x="256" y="630" on="1"/>
        <pt x="338" y="630" on="1"/>
        <pt x="589" y="0" on="1"/>
        <pt x="532" y="-22" on="0"/>
        <pt x="484" y="-67" on="0"/>
        <pt x="484" y="-94" on="1"/>
        <pt x="484" y="-119" on="0"/>
        <pt x="515" y="-146" on="0"/>
        <pt x="539" y="-146" on="1"/>
        <pt x="568" y="-146" on="0"/>
        <pt x="589" y="-138" on="1"/>
        <pt x="602" y="-185" on="1"/>
        <pt x="567" y="-206" on="0"/>
        <pt x="522" y="-206" on="1"/>
        <pt x="476" y="-206" on="0"/>
        <pt x="415" y="-156" on="0"/>
        <pt x="415" y="-109" on="1"/>
        <pt x="415" y="-71" on="0"/>
        <pt x="461" y="-16" on="0"/>
        <pt x="493" y="0" on="1"/>
        <pt x="424" y="175" on="1"/>
        <pt x="165" y="175" on="1"/>
        <pt x="97" y="0" on="1"/>
        <pt x="2" y="0" on="1"/>
      </contour>
      <contour>
        <pt x="190" y="248" on="1"/>
        <pt x="397" y="248" on="1"/>
        <pt x="355" y="357" on="1"/>
        <pt x="338" y="400" on="0"/>
        <pt x="310" y="480" on="0"/>
        <pt x="296" y="522" on="1"/>
        <pt x="294" y="522" on="1"/>
        <pt x="280" y="480" on="0"/>
        <pt x="250" y="402" on="0"/>
        <pt x="233" y="357" on="1"/>
      </contour>
    </TTGlyph>
    <TTGlyph name="Aring" xMin="2" yMin="0" xMax="589" yMax="843">
      <contour>
        <pt x="199" y="760" on="1"/>
        <pt x="199" y="804" on="0"/>
        <pt x="255" y="843" on="0"/>
        <pt x="296" y="843" on="1"/>
        <pt x="338" y="843" on="0"/>
        <pt x="393" y="805" on="0"/>
        <pt x="393" y="760" on="1"/>
        <pt x="393" y="738" on="0"/>
        <pt x="377" y="706" on="0"/>
        <pt x="350" y="686" on="0"/>
        <pt x="315" y="677" on="0"/>
        <pt x="296" y="677" on="1"/>
        <pt x="257" y="677" on="0"/>
        <pt x="199" y="718" on="0"/>
      </contour>
      <contour>
        <pt x="248" y="760" on="1"/>
        <pt x="248" y="737" on="0"/>
        <pt x="273" y="710" on="0"/>
        <pt x="296" y="710" on="1"/>
        <pt x="319" y="710" on="0"/>
        <pt x="344" y="737" on="0"/>
        <pt x="344" y="760" on="1"/>
        <pt x="344" y="783" on="0"/>
        <pt x="319" y="810" on="0"/>
        <pt x="296" y="810" on="1"/>
        <pt x="273" y="810" on="0"/>
        <pt x="248" y="783" on="0"/>
      </contour>
      <contour>
        <pt x="2" y="0" on="1"/>
        <pt x="97" y="0" on="1"/>
        <pt x="165" y="175" on="1"/>
        <pt x="424" y="175" on="1"/>
        <pt x="493" y="0" on="1"/>
        <pt x="589" y="0" on="1"/>
        <pt x="338" y="630" on="1"/>
        <pt x="256" y="630" on="1"/>
      </contour>
      <contour>
        <pt x="233" y="357" on="1"/>
        <pt x="250" y="402" on="0"/>
        <pt x="280" y="480" on="0"/>
        <pt x="294" y="522" on="1"/>
        <pt x="296" y="522" on="1"/>
        <pt x="310" y="480" on="0"/>
        <pt x="338" y="400" on="0"/>
        <pt x="355" y="357" on="1"/>
        <pt x="397" y="248" on="1"/>
        <pt x="190" y="248" on="1"/>
      </contour>
    </TTGlyph>
    <TTGlyph name="Asmall" xMin="2" yMin="0" xMax="464" yMax="470">
      <contour>
        <pt x="2" y="0" on="1"/>
        <pt x="190" y="470" on="1"/>
        <pt x="272" y="470" on="1"/>
        <pt x="464" y="0" on="1"/>
        <pt x="374" y="0" on="1"/>
        <pt x="327" y="124" on="1"/>
        <pt x="137" y="124" on="1"/>
        <pt x="88" y="0" on="1"/>
      </contour>
      <contour>
        <pt x="161" y="191" on="1"/>
        <pt x="303" y="191" on="1"/>
        <pt x="273" y="270" on="1"/>
        <pt x="262" y="298" on="0"/>
        <pt x="242" y="353" on="0"/>
        <pt x="234" y="377" on="1"/>
        <pt x="233" y="377" on="1"/>
        <pt x="225" y="354" on="0"/>
        <pt x="203" y="298" on="0"/>
        <pt x="192" y="270" on="1"/>
      </contour>
    </TTGlyph>
    <TTGlyph name="Atilde" xMin="2" yMin="0" xMax="589" yMax="823">
      <contour>
        <pt x="141" y="710" on="1"/>
        <pt x="141" y="756" on="0"/>
        <pt x="182" y="820" on="0"/>
        <pt x="228" y="820" on="1"/>
        <pt x="249" y="820" on="0"/>
        <pt x="282" y="806" on="0"/>
        <pt x="311" y="790" on="0"/>
        <pt x="339" y="776" on="0"/>
        <pt x="355" y="776" on="1"/>
        <pt x="375" y="776" on="0"/>
        <pt x="392" y="806" on="0"/>
        <pt x="394" y="823" on="1"/>
        <pt x="444" y="823" on="1"/>
        <pt x="444" y="802" on="0"/>
        <pt x="434" y="763" on="0"/>
        <pt x="413" y="732" on="0"/>
        <pt x="382" y="713" on="0"/>
        <pt x="361" y="713" on="1"/>
        <pt x="340" y="713" on="0"/>
        <pt x="303" y="726" on="0"/>
        <pt x="271" y="743" on="0"/>
        <pt x="243" y="756" on="0"/>
        <pt x="231" y="756" on="1"/>
        <pt x="210" y="756" on="0"/>
        <pt x="193" y="730" on="0"/>
        <pt x="191" y="710" on="1"/>
      </contour>
      <contour>
        <pt x="2" y="0" on="1"/>
        <pt x="97" y="0" on="1"/>
        <pt x="165" y="175" on="1"/>
        <pt x="424" y="175" on="1"/>
        <pt x="493" y="0" on="1"/>
        <pt x="589" y="0" on="1"/>
        <pt x="338" y="630" on="1"/>
        <pt x="256" y="630" on="1"/>
      </contour>
      <contour>
        <pt x="233" y="357" on="1"/>
        <pt x="250" y="402" on="0"/>
        <pt x="280" y="480" on="0"/>
        <pt x="294" y="522" on="1"/>
        <pt x="296" y="522" on="1"/>
        <pt x="310" y="480" on="0"/>
        <pt x="338" y="400" on="0"/>
        <pt x="355" y="357" on="1"/>
        <pt x="397" y="248" on="1"/>
        <pt x="190" y="248" on="1"/>
      </contour>
    </TTGlyph>
    <TTGlyph name="B" xMin="80" yMin="0" xMax="487" yMax="630">
      <contour>
        <pt x="269" y="630" on="1"/>
        <pt x="363" y="630" on="0"/>
        <pt x="468" y="549" on="0"/>
        <pt x="468" y="471" on="1"/>
        <pt x="468" y="413" on="0"/>
        <pt x="403" y="348" on="0"/>
        <pt x="354" y="335" on="1"/>
        <pt x="382" y="330" on="0"/>
        <pt x="430" y="305" on="0"/>
        <pt x="466" y="265" on="0"/>
        <pt x="487" y="210" on="0"/>
        <pt x="487" y="176" on="1"/>
        <pt x="487" y="137" on="0"/>
        <pt x="453" y="72" on="0"/>
        <pt x="393" y="26" on="0"/>
        <pt x="311" y="0" on="0"/>
        <pt x="262" y="0" on="1"/>
        <pt x="80" y="0" on="1"/>
        <pt x="80" y="630" on="1"/>
      </contour>
      <contour>
        <pt x="172" y="367" on="1"/>
        <pt x="247" y="367" on="1"/>
        <pt x="272" y="367" on="0"/>
        <pt x="318" y="375" on="0"/>
        <pt x="353" y="397" on="0"/>
        <pt x="374" y="434" on="0"/>
        <pt x="374" y="464" on="1"/>
        <pt x="374" y="512" on="0"/>
        <pt x="309" y="556" on="0"/>
        <pt x="255" y="556" on="1"/>
        <pt x="172" y="556" on="1"/>
      </contour>
      <contour>
        <pt x="172" y="74" on="1"/>
        <pt x="252" y="74" on="1"/>
        <pt x="280" y="74" on="0"/>
        <pt x="330" y="85" on="0"/>
        <pt x="368" y="111" on="0"/>
        <pt x="391" y="154" on="0"/>
        <pt x="391" y="185" on="1"/>
        <pt x="391" y="216" on="0"/>
        <pt x="364" y="257" on="0"/>
        <pt x="320" y="283" on="0"/>
        <pt x="264" y="294" on="0"/>
        <pt x="236" y="294" on="1"/>
        <pt x="172" y="294" on="1"/>
      </contour>
    </TTGlyph>
    <TTGlyph name="Breve" xMin="15" yMin="710" xMax="284" yMax="834">
      <contour>
        <pt x="78" y="834" on="1"/>
        <pt x="82" y="802" on="0"/>
        <pt x="109" y="764" on="0"/>
        <pt x="150" y="764" on="1"/>
        <pt x="185" y="764" on="0"/>
        <pt x="218" y="800" on="0"/>
        <pt x="222" y="834" on="1"/>
        <pt x="284" y="834" on="1"/>
        <pt x="284" y="780" on="0"/>
        <pt x="215" y="710" on="0"/>
        <pt x="150" y="710" on="1"/>
        <pt x="114" y="710" on="0"/>
        <pt x="63" y="731" on="0"/>
        <pt x="30" y="766" on="0"/>
        <pt x="15" y="811" on="0"/>
        <pt x="15" y="834" on="1"/>
      </contour>
    </TTGlyph>
    <TTGlyph name="Bsmall" xMin="80" yMin="0" xMax="429" yMax="470">
      <contour>
        <pt x="253" y="470" on="1"/>
        <pt x="331" y="470" on="0"/>
        <pt x="408" y="406" on="0"/>
        <pt x="408" y="354" on="1"/>
        <pt x="408" y="316" on="0"/>
        <pt x="362" y="265" on="0"/>
        <pt x="326" y="253" on="1"/>
        <pt x="376" y="241" on="0"/>
        <pt x="429" y="182" on="0"/>
        <pt x="429" y="134" on="1"/>
        <pt x="429" y="106" on="0"/>
        <pt x="407" y="57" on="0"/>
        <pt x="362" y="21" on="0"/>
        <pt x="296" y="0" on="0"/>
        <pt x="252" y="0" on="1"/>
        <pt x="80" y="0" on="1"/>
        <pt x="80" y="470" on="1"/>
      </contour>
      <contour>
        <pt x="155" y="278" on="1"/>
        <pt x="234" y="278" on="1"/>
        <pt x="269" y="278" on="0"/>
        <pt x="318" y="307" on="0"/>
        <pt x="318" y="342" on="1"/>
        <pt x="318" y="370" on="0"/>
        <pt x="278" y="402" on="0"/>
        <pt x="232" y="402" on="1"/>
        <pt x="155" y="402" on="1"/>
      </contour>
      <contour>
        <pt x="155" y="68" on="1"/>
        <pt x="231" y="68" on="1"/>
        <pt x="281" y="68" on="0"/>
        <pt x="337" y="102" on="0"/>
        <pt x="337" y="142" on="1"/>
        <pt x="337" y="155" on="0"/>
        <pt x="328" y="180" on="0"/>
        <pt x="309" y="200" on="0"/>
        <pt x="276" y="212" on="0"/>
        <pt x="252" y="212" on="1"/>
        <pt x="155" y="212" on="1"/>
      </contour>
    </TTGlyph>
    <TTGlyph name="C" xMin="45" yMin="-9" xMax="526" yMax="639">
      <contour>
        <pt x="355" y="67" on="1"/>
        <pt x="405" y="67" on="0"/>
        <pt x="470" y="83" on="0"/>
        <pt x="502" y="98" on="1"/>
        <pt x="523" y="24" on="1"/>
        <pt x="488" y="7" on="0"/>
        <pt x="405" y="-9" on="0"/>
        <pt x="345" y="-9" on="1"/>
        <pt x="283" y="-9" on="0"/>
        <pt x="173" y="33" on="0"/>
        <pt x="92" y="115" on="0"/>
        <pt x="45" y="236" on="0"/>
        <pt x="45" y="315" on="1"/>
        <pt x="45" y="392" on="0"/>
        <pt x="91" y="513" on="0"/>
        <pt x="172" y="596" on="0"/>
        <pt x="284" y="639" on="0"/>
        <pt x="350" y="639" on="1"/>
        <pt x="412" y="639" on="0"/>
        <pt x="492" y="619" on="0"/>
        <pt x="526" y="602" on="1"/>
        <pt x="504" y="530" on="1"/>
        <pt x="485" y="538" on="0"/>
        <pt x="452" y="551" on="0"/>
        <pt x="419" y="559" on="0"/>
        <pt x="384" y="563" on="0"/>
        <pt x="362" y="563" on="1"/>
        <pt x="318" y="563" on="0"/>
        <pt x="239" y="536" on="0"/>
        <pt x="180" y="476" on="0"/>
        <pt x="145" y="381" on="0"/>
        <pt x="145" y="314" on="1"/>
        <pt x="145" y="246" on="0"/>
        <pt x="179" y="152" on="0"/>
        <pt x="236" y="94" on="0"/>
        <pt x="312" y="67" on="0"/>
      </contour>
    </TTGlyph>
    <TTGlyph name="Cacute" xMin="45" yMin="-9" xMax="526" yMax="834">
      <contour>
        <pt x="355" y="67" on="1"/>
        <pt x="405" y="67" on="0"/>
        <pt x="470" y="83" on="0"/>
        <pt x="502" y="98" on="1"/>
        <pt x="523" y="24" on="1"/>
        <pt x="488" y="7" on="0"/>
        <pt x="405" y="-9" on="0"/>
        <pt x="345" y="-9" on="1"/>
        <pt x="283" y="-9" on="0"/>
        <pt x="173" y="33" on="0"/>
        <pt x="92" y="115" on="0"/>
        <pt x="45" y="236" on="0"/>
        <pt x="45" y="315" on="1"/>
        <pt x="45" y="392" on="0"/>
        <pt x="91" y="513" on="0"/>
        <pt x="172" y="596" on="0"/>
        <pt x="284" y="639" on="0"/>
        <pt x="350" y="639" on="1"/>
        <pt x="412" y="639" on="0"/>
        <pt x="492" y="619" on="0"/>
        <pt x="526" y="602" on="1"/>
        <pt x="504" y="530" on="1"/>
        <pt x="485" y="538" on="0"/>
        <pt x="452" y="551" on="0"/>
        <pt x="419" y="559" on="0"/>
        <pt x="384" y="563" on="0"/>
        <pt x="362" y="563" on="1"/>
        <pt x="318" y="563" on="0"/>
        <pt x="239" y="536" on="0"/>
        <pt x="180" y="476" on="0"/>
        <pt x="145" y="381" on="0"/>
        <pt x="145" y="314" on="1"/>
        <pt x="145" y="246" on="0"/>
        <pt x="179" y="152" on="0"/>
        <pt x="236" y="94" on="0"/>
        <pt x="312" y="67" on="0"/>
      </contour>
      <contour>
        <pt x="324" y="710" on="1"/>
        <pt x="252" y="710" on="1"/>
        <pt x="332" y="834" on="1"/>
        <pt x="435" y="834" on="1"/>
      </contour>
    </TTGlyph>
    <TTGlyph name="Caron" xMin="26" yMin="710" xMax="342" yMax="844">
      <contour>
        <pt x="26" y="844" on="1"/>
        <pt x="102" y="844" on="1"/>
        <pt x="182" y="760" on="1"/>
        <pt x="262" y="844" on="1"/>
        <pt x="342" y="844" on="1"/>
        <pt x="217" y="710" on="1"/>
        <pt x="148" y="710" on="1"/>
      </contour>
    </TTGlyph>
    <TTGlyph name="Ccaron" xMin="45" yMin="-9" xMax="526" yMax="845">
      <contour>
        <pt x="355" y="67" on="1"/>
        <pt x="405" y="67" on="0"/>
        <pt x="470" y="83" on="0"/>
        <pt x="502" y="98" on="1"/>
        <pt x="523" y="24" on="1"/>
        <pt x="488" y="7" on="0"/>
        <pt x="405" y="-9" on="0"/>
        <pt x="345" y="-9" on="1"/>
        <pt x="283" y="-9" on="0"/>
        <pt x="173" y="33" on="0"/>
        <pt x="92" y="115" on="0"/>
        <pt x="45" y="236" on="0"/>
        <pt x="45" y="315" on="1"/>
        <pt x="45" y="392" on="0"/>
        <pt x="91" y="513" on="0"/>
        <pt x="172" y="596" on="0"/>
        <pt x="284" y="639" on="0"/>
        <pt x="350" y="639" on="1"/>
        <pt x="412" y="639" on="0"/>
        <pt x="492" y="619" on="0"/>
        <pt x="526" y="602" on="1"/>
        <pt x="504" y="530" on="1"/>
        <pt x="485" y="538" on="0"/>
        <pt x="452" y="551" on="0"/>
        <pt x="419" y="559" on="0"/>
        <pt x="384" y="563" on="0"/>
        <pt x="362" y="563" on="1"/>
        <pt x="318" y="563" on="0"/>
        <pt x="239" y="536" on="0"/>
        <pt x="180" y="476" on="0"/>
        <pt x="145" y="381" on="0"/>
        <pt x="145" y="314" on="1"/>
        <pt x="145" y="246" on="0"/>
        <pt x="179" y="152" on="0"/>
        <pt x="236" y="94" on="0"/>
        <pt x="312" y="67" on="0"/>
      </contour>
      <contour>
        <pt x="186" y="845" on="1"/>
        <pt x="266" y="845" on="1"/>
        <pt x="344" y="758" on="1"/>
        <pt x="423" y="845" on="1"/>
        <pt x="502" y="845" on="1"/>
        <pt x="377" y="711" on="1"/>
        <pt x="308" y="711" on="1"/>
      </contour>
    </TTGlyph>
    <TTGlyph name="Ccedilla" xMin="45" yMin="-214" xMax="526" yMax="639">
      <contour>
        <pt x="355" y="67" on="1"/>
        <pt x="405" y="67" on="0"/>
        <pt x="470" y="83" on="0"/>
        <pt x="502" y="98" on="1"/>
        <pt x="523" y="24" on="1"/>
        <pt x="488" y="8" on="0"/>
        <pt x="410" y="-8" on="0"/>
        <pt x="353" y="-9" on="1"/>
        <pt x="336" y="-47" on="1"/>
        <pt x="364" y="-48" on="0"/>
        <pt x="402" y="-62" on="0"/>
        <pt x="424" y="-85" on="0"/>
        <pt x="434" y="-112" on="0"/>
        <pt x="434" y="-127" on="1"/>
        <pt x="434" y="-169" on="0"/>
        <pt x="365" y="-214" on="0"/>
        <pt x="313" y="-214" on="1"/>
        <pt x="290" y="-214" on="0"/>
        <pt x="251" y="-207" on="0"/>
        <pt x="239" y="-202" on="1"/>
        <pt x="251" y="-160" on="1"/>
        <pt x="264" y="-165" on="0"/>
        <pt x="292" y="-169" on="0"/>
        <pt x="306" y="-169" on="1"/>
        <pt x="374" y="-169" on="0"/>
        <pt x="374" y="-129" on="1"/>
        <pt x="374" y="-119" on="0"/>
        <pt x="367" y="-100" on="0"/>
        <pt x="345" y="-86" on="0"/>
        <pt x="306" y="-78" on="0"/>
        <pt x="273" y="-78" on="1"/>
        <pt x="307" y="-7" on="1"/>
        <pt x="251" y="-1" on="0"/>
        <pt x="156" y="47" on="0"/>
        <pt x="85" y="128" on="0"/>
        <pt x="45" y="242" on="0"/>
        <pt x="45" y="315" on="1"/>
        <pt x="45" y="392" on="0"/>
        <pt x="91" y="513" on="0"/>
        <pt x="172" y="596" on="0"/>
        <pt x="284" y="639" on="0"/>
        <pt x="350" y="639" on="1"/>
        <pt x="412" y="639" on="0"/>
        <pt x="492" y="619" on="0"/>
        <pt x="526" y="602" on="1"/>
        <pt x="504" y="530" on="1"/>
        <pt x="485" y="538" on="0"/>
        <pt x="452" y="551" on="0"/>
        <pt x="419" y="559" on="0"/>
        <pt x="384" y="563" on="0"/>
        <pt x="362" y="563" on="1"/>
        <pt x="318" y="563" on="0"/>
        <pt x="239" y="536" on="0"/>
        <pt x="180" y="476" on="0"/>
        <pt x="145" y="381" on="0"/>
        <pt x="145" y="314" on="1"/>
        <pt x="145" y="246" on="0"/>
        <pt x="179" y="152" on="0"/>
        <pt x="236" y="94" on="0"/>
        <pt x="312" y="67" on="0"/>
      </contour>
    </TTGlyph>
    <TTGlyph name="Ccircumflex" xMin="45" yMin="-9" xMax="526" yMax="844">
      <contour>
        <pt x="355" y="67" on="1"/>
        <pt x="405" y="67" on="0"/>
        <pt x="470" y="83" on="0"/>
        <pt x="502" y="98" on="1"/>
        <pt x="523" y="24" on="1"/>
        <pt x="488" y="7" on="0"/>
        <pt x="405" y="-9" on="0"/>
        <pt x="345" y="-9" on="1"/>
        <pt x="283" y="-9" on="0"/>
        <pt x="173" y="33" on="0"/>
        <pt x="92" y="115" on="0"/>
        <pt x="45" y="236" on="0"/>
        <pt x="45" y="315" on="1"/>
        <pt x="45" y="392" on="0"/>
        <pt x="91" y="513" on="0"/>
        <pt x="172" y="596" on="0"/>
        <pt x="284" y="639" on="0"/>
        <pt x="350" y="639" on="1"/>
        <pt x="412" y="639" on="0"/>
        <pt x="492" y="619" on="0"/>
        <pt x="526" y="602" on="1"/>
        <pt x="504" y="530" on="1"/>
        <pt x="485" y="538" on="0"/>
        <pt x="452" y="551" on="0"/>
        <pt x="419" y="559" on="0"/>
        <pt x="384" y="563" on="0"/>
        <pt x="362" y="563" on="1"/>
        <pt x="318" y="563" on="0"/>
        <pt x="239" y="536" on="0"/>
        <pt x="180" y="476" on="0"/>
        <pt x="145" y="381" on="0"/>
        <pt x="145" y="314" on="1"/>
        <pt x="145" y="246" on="0"/>
        <pt x="179" y="152" on="0"/>
        <pt x="236" y="94" on="0"/>
        <pt x="312" y="67" on="0"/>
      </contour>
      <contour>
        <pt x="298" y="844" on="1"/>
        <pt x="367" y="844" on="1"/>
        <pt x="492" y="710" on="1"/>
        <pt x="412" y="710" on="1"/>
        <pt x="332" y="794" on="1"/>
        <pt x="252" y="710" on="1"/>
        <pt x="176" y="710" on="1"/>
      </contour>
    </TTGlyph>
    <TTGlyph name="Cdotaccent" xMin="45" yMin="-9" xMax="526" yMax="822">
      <contour>
        <pt x="355" y="67" on="1"/>
        <pt x="405" y="67" on="0"/>
        <pt x="470" y="83" on="0"/>
        <pt x="502" y="98" on="1"/>
        <pt x="523" y="24" on="1"/>
        <pt x="488" y="7" on="0"/>
        <pt x="405" y="-9" on="0"/>
        <pt x="345" y="-9" on="1"/>
        <pt x="283" y="-9" on="0"/>
        <pt x="173" y="33" on="0"/>
        <pt x="92" y="115" on="0"/>
        <pt x="45" y="236" on="0"/>
        <pt x="45" y="315" on="1"/>
        <pt x="45" y="392" on="0"/>
        <pt x="91" y="513" on="0"/>
        <pt x="172" y="596" on="0"/>
        <pt x="284" y="639" on="0"/>
        <pt x="350" y="639" on="1"/>
        <pt x="412" y="639" on="0"/>
        <pt x="492" y="619" on="0"/>
        <pt x="526" y="602" on="1"/>
        <pt x="504" y="530" on="1"/>
        <pt x="485" y="538" on="0"/>
        <pt x="452" y="551" on="0"/>
        <pt x="419" y="559" on="0"/>
        <pt x="384" y="563" on="0"/>
        <pt x="362" y="563" on="1"/>
        <pt x="318" y="563" on="0"/>
        <pt x="239" y="536" on="0"/>
        <pt x="180" y="476" on="0"/>
        <pt x="145" y="381" on="0"/>
        <pt x="145" y="314" on="1"/>
        <pt x="145" y="246" on="0"/>
        <pt x="179" y="152" on="0"/>
        <pt x="236" y="94" on="0"/>
        <pt x="312" y="67" on="0"/>
      </contour>
      <contour>
        <pt x="289" y="767" on="1"/>
        <pt x="289" y="788" on="0"/>
        <pt x="323" y="822" on="0"/>
        <pt x="345" y="822" on="1"/>
        <pt x="368" y="822" on="0"/>
        <pt x="401" y="788" on="0"/>
        <pt x="401" y="767" on="1"/>
        <pt x="401" y="744" on="0"/>
        <pt x="368" y="710" on="0"/>
        <pt x="345" y="710" on="1"/>
        <pt x="323" y="710" on="0"/>
        <pt x="289" y="744" on="0"/>
      </contour>
    </TTGlyph>
    <TTGlyph name="Cedilla" xMin="41" yMin="-214" xMax="236" yMax="0">
      <contour>
        <pt x="112" y="0" on="1"/>
        <pt x="159" y="0" on="1"/>
        <pt x="138" y="-47" on="1"/>
        <pt x="166" y="-48" on="0"/>
        <pt x="204" y="-62" on="0"/>
        <pt x="226" y="-85" on="0"/>
        <pt x="236" y="-112" on="0"/>
        <pt x="236" y="-127" on="1"/>
        <pt x="236" y="-169" on="0"/>
        <pt x="167" y="-214" on="0"/>
        <pt x="115" y="-214" on="1"/>
        <pt x="92" y="-214" on="0"/>
        <pt x="53" y="-207" on="0"/>
        <pt x="41" y="-202" on="1"/>
        <pt x="53" y="-160" on="1"/>
        <pt x="66" y="-165" on="0"/>
        <pt x="94" y="-169" on="0"/>
        <pt x="108" y="-169" on="1"/>
        <pt x="176" y="-169" on="0"/>
        <pt x="176" y="-129" on="1"/>
        <pt x="176" y="-119" on="0"/>
        <pt x="169" y="-100" on="0"/>
        <pt x="147" y="-86" on="0"/>
        <pt x="108" y="-78" on="0"/>
        <pt x="75" y="-78" on="1"/>
      </contour>
    </TTGlyph>
    <TTGlyph name="Circumflex" xMin="26" yMin="710" xMax="342" yMax="844">
      <contour>
        <pt x="148" y="844" on="1"/>
        <pt x="217" y="844" on="1"/>
        <pt x="342" y="710" on="1"/>
        <pt x="262" y="710" on="1"/>
        <pt x="182" y="794" on="1"/>
        <pt x="102" y="710" on="1"/>
        <pt x="26" y="710" on="1"/>
      </contour>
    </TTGlyph>
    <TTGlyph name="Csmall" xMin="45" yMin="-9" xMax="424" yMax="477">
      <contour>
        <pt x="302" y="59" on="1"/>
        <pt x="334" y="59" on="0"/>
        <pt x="382" y="73" on="0"/>
        <pt x="405" y="84" on="1"/>
        <pt x="424" y="18" on="1"/>
        <pt x="370" y="-9" on="0"/>
        <pt x="295" y="-9" on="1"/>
        <pt x="242" y="-9" on="0"/>
        <pt x="151" y="21" on="0"/>
        <pt x="83" y="82" on="0"/>
        <pt x="45" y="173" on="0"/>
        <pt x="45" y="234" on="1"/>
        <pt x="45" y="290" on="0"/>
        <pt x="81" y="380" on="0"/>
        <pt x="146" y="443" on="0"/>
        <pt x="238" y="477" on="0"/>
        <pt x="294" y="477" on="1"/>
        <pt x="325" y="477" on="0"/>
        <pt x="384" y="468" on="0"/>
        <pt x="422" y="451" on="1"/>
        <pt x="402" y="384" on="1"/>
        <pt x="356" y="410" on="0"/>
        <pt x="303" y="410" on="1"/>
        <pt x="226" y="410" on="0"/>
        <pt x="135" y="319" on="0"/>
        <pt x="135" y="237" on="1"/>
        <pt x="135" y="186" on="0"/>
        <pt x="163" y="118" on="0"/>
        <pt x="210" y="77" on="0"/>
        <pt x="270" y="59" on="0"/>
      </contour>
    </TTGlyph>
    <TTGlyph name="D" xMin="80" yMin="0" xMax="596" yMax="630">
      <contour>
        <pt x="285" y="630" on="1"/>
        <pt x="352" y="630" on="0"/>
        <pt x="466" y="592" on="0"/>
        <pt x="549" y="517" on="0"/>
        <pt x="596" y="404" on="0"/>
        <pt x="596" y="329" on="1"/>
        <pt x="596" y="238" on="0"/>
        <pt x="540" y="112" on="0"/>
        <pt x="445" y="34" on="0"/>
        <pt x="320" y="0" on="0"/>
        <pt x="250" y="0" on="1"/>
        <pt x="80" y="0" on="1"/>
        <pt x="80" y="630" on="1"/>
      </contour>
      <contour>
        <pt x="172" y="76" on="1"/>
        <pt x="241" y="76" on="1"/>
        <pt x="289" y="76" on="0"/>
        <pt x="381" y="97" on="0"/>
        <pt x="452" y="154" on="0"/>
        <pt x="496" y="252" on="0"/>
        <pt x="496" y="329" on="1"/>
        <pt x="496" y="383" on="0"/>
        <pt x="464" y="467" on="0"/>
        <pt x="404" y="524" on="0"/>
        <pt x="319" y="554" on="0"/>
        <pt x="267" y="554" on="1"/>
        <pt x="172" y="554" on="1"/>
      </contour>
    </TTGlyph>
    <TTGlyph name="Dcaron" xMin="80" yMin="0" xMax="596" yMax="845">
      <contour>
        <pt x="285" y="630" on="1"/>
        <pt x="352" y="630" on="0"/>
        <pt x="466" y="592" on="0"/>
        <pt x="549" y="517" on="0"/>
        <pt x="596" y="404" on="0"/>
        <pt x="596" y="329" on="1"/>
        <pt x="596" y="238" on="0"/>
        <pt x="540" y="112" on="0"/>
        <pt x="445" y="34" on="0"/>
        <pt x="320" y="0" on="0"/>
        <pt x="250" y="0" on="1"/>
        <pt x="80" y="0" on="1"/>
        <pt x="80" y="630" on="1"/>
      </contour>
      <contour>
        <pt x="172" y="76" on="1"/>
        <pt x="241" y="76" on="1"/>
        <pt x="289" y="76" on="0"/>
        <pt x="381" y="97" on="0"/>
        <pt x="452" y="154" on="0"/>
        <pt x="496" y="252" on="0"/>
        <pt x="496" y="329" on="1"/>
        <pt x="496" y="383" on="0"/>
        <pt x="464" y="467" on="0"/>
        <pt x="404" y="524" on="0"/>
        <pt x="319" y="554" on="0"/>
        <pt x="267" y="554" on="1"/>
        <pt x="172" y="554" on="1"/>
      </contour>
      <contour>
        <pt x="136" y="845" on="1"/>
        <pt x="212" y="845" on="1"/>
        <pt x="292" y="761" on="1"/>
        <pt x="372" y="845" on="1"/>
        <pt x="452" y="845" on="1"/>
        <pt x="327" y="711" on="1"/>
        <pt x="258" y="711" on="1"/>
      </contour>
    </TTGlyph>
    <TTGlyph name="Dcroat" xMin="30" yMin="0" xMax="626" yMax="630">
      <contour>
        <pt x="315" y="630" on="1"/>
        <pt x="382" y="630" on="0"/>
        <pt x="496" y="592" on="0"/>
        <pt x="579" y="517" on="0"/>
        <pt x="626" y="404" on="0"/>
        <pt x="626" y="329" on="1"/>
        <pt x="626" y="238" on="0"/>
        <pt x="570" y="112" on="0"/>
        <pt x="475" y="34" on="0"/>
        <pt x="350" y="0" on="0"/>
        <pt x="280" y="0" on="1"/>
        <pt x="110" y="0" on="1"/>
        <pt x="110" y="298" on="1"/>
        <pt x="30" y="298" on="1"/>
        <pt x="30" y="360" on="1"/>
        <pt x="110" y="360" on="1"/>
        <pt x="110" y="630" on="1"/>
      </contour>
      <contour>
        <pt x="330" y="360" on="1"/>
        <pt x="330" y="298" on="1"/>
        <pt x="202" y="298" on="1"/>
        <pt x="202" y="76" on="1"/>
        <pt x="271" y="76" on="1"/>
        <pt x="319" y="76" on="0"/>
        <pt x="411" y="97" on="0"/>
        <pt x="482" y="154" on="0"/>
        <pt x="526" y="252" on="0"/>
        <pt x="526" y="329" on="1"/>
        <pt x="526" y="383" on="0"/>
        <pt x="494" y="467" on="0"/>
        <pt x="434" y="524" on="0"/>
        <pt x="349" y="554" on="0"/>
        <pt x="297" y="554" on="1"/>
        <pt x="202" y="554" on="1"/>
        <pt x="202" y="360" on="1"/>
      </contour>
    </TTGlyph>
    <TTGlyph name="Dieresis" xMin="34" yMin="710" xMax="300" yMax="810">
      <contour>
        <pt x="34" y="761" on="1"/>
        <pt x="34" y="780" on="0"/>
        <pt x="64" y="810" on="0"/>
        <pt x="84" y="810" on="1"/>
        <pt x="104" y="810" on="0"/>
        <pt x="134" y="780" on="0"/>
        <pt x="134" y="761" on="1"/>
        <pt x="134" y="741" on="0"/>
        <pt x="104" y="710" on="0"/>
        <pt x="84" y="710" on="1"/>
        <pt x="64" y="710" on="0"/>
        <pt x="34" y="741" on="0"/>
      </contour>
      <contour>
        <pt x="200" y="761" on="1"/>
        <pt x="200" y="780" on="0"/>
        <pt x="230" y="810" on="0"/>
        <pt x="250" y="810" on="1"/>
        <pt x="270" y="810" on="0"/>
        <pt x="300" y="780" on="0"/>
        <pt x="300" y="761" on="1"/>
        <pt x="300" y="741" on="0"/>
        <pt x="270" y="710" on="0"/>
        <pt x="250" y="710" on="1"/>
        <pt x="230" y="710" on="0"/>
        <pt x="200" y="741" on="0"/>
      </contour>
    </TTGlyph>
    <TTGlyph name="DieresisAcute" xMin="30" yMin="710" xMax="426" yMax="844">
      <contour>
        <pt x="30" y="777" on="1"/>
        <pt x="30" y="796" on="0"/>
        <pt x="60" y="826" on="0"/>
        <pt x="80" y="826" on="1"/>
        <pt x="100" y="826" on="0"/>
        <pt x="130" y="796" on="0"/>
        <pt x="130" y="777" on="1"/>
        <pt x="130" y="757" on="0"/>
        <pt x="100" y="726" on="0"/>
        <pt x="80" y="726" on="1"/>
        <pt x="60" y="726" on="0"/>
        <pt x="30" y="757" on="0"/>
      </contour>
      <contour>
        <pt x="326" y="777" on="1"/>
        <pt x="326" y="796" on="0"/>
        <pt x="356" y="826" on="0"/>
        <pt x="376" y="826" on="1"/>
        <pt x="396" y="826" on="0"/>
        <pt x="426" y="796" on="0"/>
        <pt x="426" y="777" on="1"/>
        <pt x="426" y="757" on="0"/>
        <pt x="396" y="726" on="0"/>
        <pt x="376" y="726" on="1"/>
        <pt x="356" y="726" on="0"/>
        <pt x="326" y="757" on="0"/>
      </contour>
      <contour>
        <pt x="215" y="710" on="1"/>
        <pt x="143" y="710" on="1"/>
        <pt x="213" y="844" on="1"/>
        <pt x="316" y="844" on="1"/>
      </contour>
    </TTGlyph>
    <TTGlyph name="DieresisGrave" xMin="30" yMin="710" xMax="426" yMax="844">
      <contour>
        <pt x="426" y="777" on="1"/>
        <pt x="426" y="796" on="0"/>
        <pt x="396" y="826" on="0"/>
        <pt x="376" y="826" on="1"/>
        <pt x="356" y="826" on="0"/>
        <pt x="326" y="796" on="0"/>
        <pt x="326" y="777" on="1"/>
        <pt x="326" y="757" on="0"/>
        <pt x="356" y="726" on="0"/>
        <pt x="376" y="726" on="1"/>
        <pt x="396" y="726" on="0"/>
        <pt x="426" y="757" on="0"/>
      </contour>
      <contour>
        <pt x="130" y="777" on="1"/>
        <pt x="130" y="796" on="0"/>
        <pt x="100" y="826" on="0"/>
        <pt x="80" y="826" on="1"/>
        <pt x="60" y="826" on="0"/>
        <pt x="30" y="796" on="0"/>
        <pt x="30" y="777" on="1"/>
        <pt x="30" y="757" on="0"/>
        <pt x="60" y="726" on="0"/>
        <pt x="80" y="726" on="1"/>
        <pt x="100" y="726" on="0"/>
        <pt x="130" y="757" on="0"/>
      </contour>
      <contour>
        <pt x="140" y="844" on="1"/>
        <pt x="243" y="844" on="1"/>
        <pt x="313" y="710" on="1"/>
        <pt x="241" y="710" on="1"/>
      </contour>
    </TTGlyph>
    <TTGlyph name="Dotaccent" xMin="29" yMin="710" xMax="141" yMax="822">
      <contour>
        <pt x="29" y="767" on="1"/>
        <pt x="29" y="788" on="0"/>
        <pt x="63" y="822" on="0"/>
        <pt x="85" y="822" on="1"/>
        <pt x="108" y="822" on="0"/>
        <pt x="141" y="788" on="0"/>
        <pt x="141" y="767" on="1"/>
        <pt x="141" y="744" on="0"/>
        <pt x="108" y="710" on="0"/>
        <pt x="85" y="710" on="1"/>
        <pt x="63" y="710" on="0"/>
        <pt x="29" y="744" on="0"/>
      </contour>
    </TTGlyph>
    <TTGlyph name="Dsmall" xMin="80" yMin="0" xMax="490" yMax="470">
      <contour>
        <pt x="243" y="470" on="1"/>
        <pt x="291" y="470" on="0"/>
        <pt x="380" y="446" on="0"/>
        <pt x="449" y="392" on="0"/>
        <pt x="490" y="307" on="0"/>
        <pt x="490" y="246" on="1"/>
        <pt x="490" y="182" on="0"/>
        <pt x="451" y="89" on="0"/>
        <pt x="383" y="29" on="0"/>
        <pt x="290" y="0" on="0"/>
        <pt x="237" y="0" on="1"/>
        <pt x="80" y="0" on="1"/>
        <pt x="80" y="470" on="1"/>
      </contour>
      <contour>
        <pt x="168" y="69" on="1"/>
        <pt x="217" y="69" on="1"/>
        <pt x="245" y="69" on="0"/>
        <pt x="310" y="81" on="0"/>
        <pt x="364" y="118" on="0"/>
        <pt x="400" y="186" on="0"/>
        <pt x="400" y="243" on="1"/>
        <pt x="400" y="323" on="0"/>
        <pt x="307" y="401" on="0"/>
        <pt x="217" y="401" on="1"/>
        <pt x="168" y="401" on="1"/>
      </contour>
    </TTGlyph>
    <TTGlyph name="E" xMin="80" yMin="0" xMax="463" yMax="630">
      <contour>
        <pt x="80" y="630" on="1"/>
        <pt x="460" y="630" on="1"/>
        <pt x="460" y="554" on="1"/>
        <pt x="172" y="554" on="1"/>
        <pt x="172" y="365" on="1"/>
        <pt x="434" y="365" on="1"/>
        <pt x="434" y="290" on="1"/>
        <pt x="172" y="290" on="1"/>
        <pt x="172" y="76" on="1"/>
        <pt x="463" y="76" on="1"/>
        <pt x="463" y="0" on="1"/>
        <pt x="80" y="0" on="1"/>
      </contour>
    </TTGlyph>
    <TTGlyph name="Eacute" xMin="80" yMin="0" xMax="463" yMax="834">
      <contour>
        <pt x="80" y="630" on="1"/>
        <pt x="460" y="630" on="1"/>
        <pt x="460" y="554" on="1"/>
        <pt x="172" y="554" on="1"/>
        <pt x="172" y="365" on="1"/>
        <pt x="434" y="365" on="1"/>
        <pt x="434" y="290" on="1"/>
        <pt x="172" y="290" on="1"/>
        <pt x="172" y="76" on="1"/>
        <pt x="463" y="76" on="1"/>
        <pt x="463" y="0" on="1"/>
        <pt x="80" y="0" on="1"/>
      </contour>
      <contour>
        <pt x="274" y="710" on="1"/>
        <pt x="202" y="710" on="1"/>
        <pt x="282" y="834" on="1"/>
        <pt x="385" y="834" on="1"/>
      </contour>
    </TTGlyph>
    <TTGlyph name="Ebreve" xMin="80" yMin="0" xMax="463" yMax="846">
      <contour>
        <pt x="80" y="630" on="1"/>
        <pt x="460" y="630" on="1"/>
        <pt x="460" y="554" on="1"/>
        <pt x="172" y="554" on="1"/>
        <pt x="172" y="365" on="1"/>
        <pt x="434" y="365" on="1"/>
        <pt x="434" y="290" on="1"/>
        <pt x="172" y="290" on="1"/>
        <pt x="172" y="76" on="1"/>
        <pt x="463" y="76" on="1"/>
        <pt x="463" y="0" on="1"/>
        <pt x="80" y="0" on="1"/>
      </contour>
      <contour>
        <pt x="208" y="846" on="1"/>
        <pt x="212" y="814" on="0"/>
        <pt x="239" y="776" on="0"/>
        <pt x="280" y="776" on="1"/>
        <pt x="315" y="776" on="0"/>
        <pt x="348" y="812" on="0"/>
        <pt x="352" y="846" on="1"/>
        <pt x="414" y="846" on="1"/>
        <pt x="414" y="792" on="0"/>
        <pt x="345" y="722" on="0"/>
        <pt x="280" y="722" on="1"/>
        <pt x="244" y="722" on="0"/>
        <pt x="193" y="743" on="0"/>
        <pt x="160" y="778" on="0"/>
        <pt x="145" y="823" on="0"/>
        <pt x="145" y="846" on="1"/>
      </contour>
    </TTGlyph>
    <TTGlyph name="Ecaron" xMin="80" yMin="0" xMax="463" yMax="845">
      <contour>
        <pt x="80" y="630" on="1"/>
        <pt x="460" y="630" on="1"/>
        <pt x="460" y="554" on="1"/>
        <pt x="172" y="554" on="1"/>
        <pt x="172" y="365" on="1"/>
        <pt x="434" y="365" on="1"/>
        <pt x="434" y="290" on="1"/>
        <pt x="172" y="290" on="1"/>
        <pt x="172" y="76" on="1"/>
        <pt x="463" y="76" on="1"/>
        <pt x="463" y="0" on="1"/>
        <pt x="80" y="0" on="1"/>
      </contour>
      <contour>
        <pt x="125" y="845" on="1"/>
        <pt x="205" y="845" on="1"/>
        <pt x="283" y="758" on="1"/>
        <pt x="362" y="845" on="1"/>
        <pt x="441" y="845" on="1"/>
        <pt x="316" y="711" on="1"/>
        <pt x="247" y="711" on="1"/>
      </contour>
    </TTGlyph>
    <TTGlyph name="Ecircumflex" xMin="80" yMin="0" xMax="463" yMax="844">
      <contour>
        <pt x="80" y="630" on="1"/>
        <pt x="460" y="630" on="1"/>
        <pt x="460" y="554" on="1"/>
        <pt x="172" y="554" on="1"/>
        <pt x="172" y="365" on="1"/>
        <pt x="434" y="365" on="1"/>
        <pt x="434" y="290" on="1"/>
        <pt x="172" y="290" on="1"/>
        <pt x="172" y="76" on="1"/>
        <pt x="463" y="76" on="1"/>
        <pt x="463" y="0" on="1"/>
        <pt x="80" y="0" on="1"/>
      </contour>
      <contour>
        <pt x="228" y="844" on="1"/>
        <pt x="297" y="844" on="1"/>
        <pt x="422" y="710" on="1"/>
        <pt x="342" y="710" on="1"/>
        <pt x="262" y="794" on="1"/>
        <pt x="182" y="710" on="1"/>
        <pt x="106" y="710" on="1"/>
      </contour>
    </TTGlyph>
    <TTGlyph name="Edieresis" xMin="80" yMin="0" xMax="463" yMax="810">
      <contour>
        <pt x="80" y="630" on="1"/>
        <pt x="460" y="630" on="1"/>
        <pt x="460" y="554" on="1"/>
        <pt x="172" y="554" on="1"/>
        <pt x="172" y="365" on="1"/>
        <pt x="434" y="365" on="1"/>
        <pt x="434" y="290" on="1"/>
        <pt x="172" y="290" on="1"/>
        <pt x="172" y="76" on="1"/>
        <pt x="463" y="76" on="1"/>
        <pt x="463" y="0" on="1"/>
        <pt x="80" y="0" on="1"/>
      </contour>
      <contour>
        <pt x="139" y="761" on="1"/>
        <pt x="139" y="780" on="0"/>
        <pt x="169" y="810" on="0"/>
        <pt x="189" y="810" on="1"/>
        <pt x="209" y="810" on="0"/>
        <pt x="239" y="780" on="0"/>
        <pt x="239" y="761" on="1"/>
        <pt x="239" y="741" on="0"/>
        <pt x="209" y="710" on="0"/>
        <pt x="189" y="710" on="1"/>
        <pt x="169" y="710" on="0"/>
        <pt x="139" y="741" on="0"/>
      </contour>
      <contour>
        <pt x="305" y="761" on="1"/>
        <pt x="305" y="780" on="0"/>
        <pt x="335" y="810" on="0"/>
        <pt x="355" y="810" on="1"/>
        <pt x="375" y="810" on="0"/>
        <pt x="405" y="780" on="0"/>
        <pt x="405" y="761" on="1"/>
        <pt x="405" y="741" on="0"/>
        <pt x="375" y="710" on="0"/>
        <pt x="355" y="710" on="1"/>
        <pt x="335" y="710" on="0"/>
        <pt x="305" y="741" on="0"/>
      </contour>
    </TTGlyph>
    <TTGlyph name="Edotaccent" xMin="80" yMin="0" xMax="463" yMax="822">
      <contour>
        <pt x="80" y="630" on="1"/>
        <pt x="460" y="630" on="1"/>
        <pt x="460" y="554" on="1"/>
        <pt x="172" y="554" on="1"/>
        <pt x="172" y="365" on="1"/>
        <pt x="434" y="365" on="1"/>
        <pt x="434" y="290" on="1"/>
        <pt x="172" y="290" on="1"/>
        <pt x="172" y="76" on="1"/>
        <pt x="463" y="76" on="1"/>
        <pt x="463" y="0" on="1"/>
        <pt x="80" y="0" on="1"/>
      </contour>
      <contour>
        <pt x="229" y="767" on="1"/>
        <pt x="229" y="788" on="0"/>
        <pt x="263" y="822" on="0"/>
        <pt x="285" y="822" on="1"/>
        <pt x="308" y="822" on="0"/>
        <pt x="341" y="788" on="0"/>
        <pt x="341" y="767" on="1"/>
        <pt x="341" y="744" on="0"/>
        <pt x="308" y="710" on="0"/>
        <pt x="285" y="710" on="1"/>
        <pt x="263" y="710" on="0"/>
        <pt x="229" y="744" on="0"/>
      </contour>
    </TTGlyph>
    <TTGlyph name="Egrave" xMin="80" yMin="0" xMax="463" yMax="834">
      <contour>
        <pt x="80" y="630" on="1"/>
        <pt x="460" y="630" on="1"/>
        <pt x="460" y="554" on="1"/>
        <pt x="172" y="554" on="1"/>
        <pt x="172" y="365" on="1"/>
        <pt x="434" y="365" on="1"/>
        <pt x="434" y="290" on="1"/>
        <pt x="172" y="290" on="1"/>
        <pt x="172" y="76" on="1"/>
        <pt x="463" y="76" on="1"/>
        <pt x="463" y="0" on="1"/>
        <pt x="80" y="0" on="1"/>
      </contour>
      <contour>
        <pt x="170" y="834" on="1"/>
        <pt x="273" y="834" on="1"/>
        <pt x="353" y="710" on="1"/>
        <pt x="281" y="710" on="1"/>
      </contour>
    </TTGlyph>
    <TTGlyph name="Emacron" xMin="80" yMin="0" xMax="463" yMax="772">
      <contour>
        <pt x="80" y="630" on="1"/>
        <pt x="460" y="630" on="1"/>
        <pt x="460" y="554" on="1"/>
        <pt x="172" y="554" on="1"/>
        <pt x="172" y="365" on="1"/>
        <pt x="434" y="365" on="1"/>
        <pt x="434" y="290" on="1"/>
        <pt x="172" y="290" on="1"/>
        <pt x="172" y="76" on="1"/>
        <pt x="463" y="76" on="1"/>
        <pt x="463" y="0" on="1"/>
        <pt x="80" y="0" on="1"/>
      </contour>
      <contour>
        <pt x="393" y="772" on="1"/>
        <pt x="393" y="710" on="1"/>
        <pt x="148" y="710" on="1"/>
        <pt x="148" y="772" on="1"/>
      </contour>
    </TTGlyph>
    <TTGlyph name="Eng" xMin="80" yMin="-240" xMax="593" yMax="630">
      <contour>
        <pt x="80" y="630" on="1"/>
        <pt x="160" y="630" on="1"/>
        <pt x="447" y="211" on="1"/>
        <pt x="463" y="187" on="0"/>
        <pt x="494" y="135" on="0"/>
        <pt x="506" y="111" on="1"/>
        <pt x="508" y="111" on="1"/>
        <pt x="506" y="153" on="0"/>
        <pt x="503" y="239" on="0"/>
        <pt x="503" y="281" on="1"/>
        <pt x="503" y="630" on="1"/>
        <pt x="593" y="630" on="1"/>
        <pt x="593" y="66" on="1"/>
        <pt x="593" y="9" on="0"/>
        <pt x="580" y="-84" on="0"/>
        <pt x="544" y="-159" on="0"/>
        <pt x="480" y="-218" on="0"/>
        <pt x="430" y="-240" on="1"/>
        <pt x="389" y="-174" on="1"/>
        <pt x="416" y="-160" on="0"/>
        <pt x="455" y="-129" on="0"/>
        <pt x="483" y="-89" on="0"/>
        <pt x="500" y="-38" on="0"/>
        <pt x="503" y="-5" on="1"/>
        <pt x="229" y="394" on="1"/>
        <pt x="214" y="415" on="0"/>
        <pt x="182" y="468" on="0"/>
        <pt x="168" y="494" on="1"/>
        <pt x="166" y="494" on="1"/>
        <pt x="168" y="452" on="0"/>
        <pt x="170" y="368" on="0"/>
        <pt x="170" y="326" on="1"/>
        <pt x="170" y="0" on="1"/>
        <pt x="80" y="0" on="1"/>
      </contour>
    </TTGlyph>
    <TTGlyph name="Eogonek" xMin="80" yMin="-206" xMax="479" yMax="630">
      <contour>
        <pt x="463" y="0" on="1"/>
        <pt x="418" y="-20" on="0"/>
        <pt x="361" y="-64" on="0"/>
        <pt x="361" y="-95" on="1"/>
        <pt x="361" y="-119" on="0"/>
        <pt x="392" y="-146" on="0"/>
        <pt x="416" y="-146" on="1"/>
        <pt x="445" y="-146" on="0"/>
        <pt x="466" y="-138" on="1"/>
        <pt x="479" y="-185" on="1"/>
        <pt x="444" y="-206" on="0"/>
        <pt x="399" y="-206" on="1"/>
        <pt x="353" y="-206" on="0"/>
        <pt x="292" y="-156" on="0"/>
        <pt x="292" y="-109" on="1"/>
        <pt x="292" y="-71" on="0"/>
        <pt x="341" y="-16" on="0"/>
        <pt x="373" y="-2" on="1"/>
        <pt x="373" y="0" on="1"/>
        <pt x="80" y="0" on="1"/>
        <pt x="80" y="630" on="1"/>
        <pt x="460" y="630" on="1"/>
        <pt x="460" y="554" on="1"/>
        <pt x="172" y="554" on="1"/>
        <pt x="172" y="365" on="1"/>
        <pt x="434" y="365" on="1"/>
        <pt x="434" y="290" on="1"/>
        <pt x="172" y="290" on="1"/>
        <pt x="172" y="76" on="1"/>
        <pt x="463" y="76" on="1"/>
      </contour>
    </TTGlyph>
    <TTGlyph name="Esmall" xMin="80" yMin="0" xMax="399" yMax="470">
      <contour>
        <pt x="80" y="470" on="1"/>
        <pt x="397" y="470" on="1"/>
        <pt x="397" y="402" on="1"/>
        <pt x="166" y="402" on="1"/>
        <pt x="166" y="276" on="1"/>
        <pt x="375" y="276" on="1"/>
        <pt x="375" y="209" on="1"/>
        <pt x="166" y="209" on="1"/>
        <pt x="166" y="68" on="1"/>
        <pt x="399" y="68" on="1"/>
        <pt x="399" y="0" on="1"/>
        <pt x="80" y="0" on="1"/>
      </contour>
    </TTGlyph>
    <TTGlyph name="Eth" xMin="30" yMin="0" xMax="626" yMax="630">
      <contour>
        <pt x="315" y="630" on="1"/>
        <pt x="382" y="630" on="0"/>
        <pt x="496" y="592" on="0"/>
        <pt x="579" y="517" on="0"/>
        <pt x="626" y="404" on="0"/>
        <pt x="626" y="329" on="1"/>
        <pt x="626" y="238" on="0"/>
        <pt x="570" y="112" on="0"/>
        <pt x="475" y="34" on="0"/>
        <pt x="350" y="0" on="0"/>
        <pt x="280" y="0" on="1"/>
        <pt x="110" y="0" on="1"/>
        <pt x="110" y="298" on="1"/>
        <pt x="30" y="298" on="1"/>
        <pt x="30" y="360" on="1"/>
        <pt x="110" y="360" on="1"/>
        <pt x="110" y="630" on="1"/>
      </contour>
      <contour>
        <pt x="330" y="360" on="1"/>
        <pt x="330" y="298" on="1"/>
        <pt x="202" y="298" on="1"/>
        <pt x="202" y="76" on="1"/>
        <pt x="271" y="76" on="1"/>
        <pt x="319" y="76" on="0"/>
        <pt x="411" y="97" on="0"/>
        <pt x="482" y="154" on="0"/>
        <pt x="526" y="252" on="0"/>
        <pt x="526" y="329" on="1"/>
        <pt x="526" y="383" on="0"/>
        <pt x="494" y="467" on="0"/>
        <pt x="434" y="524" on="0"/>
        <pt x="349" y="554" on="0"/>
        <pt x="297" y="554" on="1"/>
        <pt x="202" y="554" on="1"/>
        <pt x="202" y="360" on="1"/>
      </contour>
    </TTGlyph>
    <TTGlyph name="Euro" xMin="5" yMin="-9" xMax="521" yMax="639">
      <contour>
        <pt x="360" y="67" on="1"/>
        <pt x="402" y="67" on="0"/>
        <pt x="465" y="83" on="0"/>
        <pt x="497" y="98" on="1"/>
        <pt x="518" y="24" on="1"/>
        <pt x="483" y="7" on="0"/>
        <pt x="409" y="-9" on="0"/>
        <pt x="350" y="-9" on="1"/>
        <pt x="299" y="-9" on="0"/>
        <pt x="209" y="20" on="0"/>
        <pt x="137" y="78" on="0"/>
        <pt x="88" y="165" on="0"/>
        <pt x="78" y="223" on="1"/>
        <pt x="5" y="223" on="1"/>
        <pt x="5" y="274" on="1"/>
        <pt x="71" y="274" on="1"/>
        <pt x="70" y="293" on="0"/>
        <pt x="70" y="308" on="0"/>
        <pt x="70" y="316" on="1"/>
        <pt x="70" y="334" on="1"/>
        <pt x="5" y="334" on="1"/>
        <pt x="5" y="385" on="1"/>
        <pt x="79" y="385" on="1"/>
        <pt x="96" y="503" on="0"/>
        <pt x="238" y="639" on="0"/>
        <pt x="355" y="639" on="1"/>
        <pt x="386" y="639" on="0"/>
        <pt x="433" y="634" on="0"/>
        <pt x="471" y="624" on="0"/>
        <pt x="504" y="611" on="0"/>
        <pt x="521" y="602" on="1"/>
        <pt x="499" y="530" on="1"/>
        <pt x="461" y="547" on="0"/>
        <pt x="403" y="563" on="0"/>
        <pt x="367" y="563" on="1"/>
        <pt x="332" y="563" on="0"/>
        <pt x="266" y="540" on="0"/>
        <pt x="213" y="495" on="0"/>
        <pt x="178" y="428" on="0"/>
        <pt x="174" y="385" on="1"/>
        <pt x="446" y="385" on="1"/>
        <pt x="446" y="334" on="1"/>
        <pt x="166" y="334" on="1"/>
        <pt x="166" y="322" on="1"/>
        <pt x="166" y="312" on="0"/>
        <pt x="166" y="294" on="0"/>
        <pt x="167" y="274" on="1"/>
        <pt x="446" y="274" on="1"/>
        <pt x="446" y="223" on="1"/>
        <pt x="175" y="223" on="1"/>
        <pt x="182" y="180" on="0"/>
        <pt x="217" y="121" on="0"/>
        <pt x="266" y="84" on="0"/>
        <pt x="327" y="67" on="0"/>
      </contour>
    </TTGlyph>
    <TTGlyph name="F" xMin="80" yMin="0" xMax="450" yMax="630">
      <contour>
        <pt x="450" y="630" on="1"/>
        <pt x="450" y="554" on="1"/>
        <pt x="172" y="554" on="1"/>
        <pt x="172" y="350" on="1"/>
        <pt x="428" y="350" on="1"/>
        <pt x="428" y="275" on="1"/>
        <pt x="172" y="275" on="1"/>
        <pt x="172" y="0" on="1"/>
        <pt x="80" y="0" on="1"/>
        <pt x="80" y="630" on="1"/>
      </contour>
    </TTGlyph>
    <TTGlyph name="Fsmall" xMin="80" yMin="0" xMax="388" yMax="470">
      <contour>
        <pt x="388" y="470" on="1"/>
        <pt x="388" y="402" on="1"/>
        <pt x="168" y="402" on="1"/>
        <pt x="168" y="265" on="1"/>
        <pt x="370" y="265" on="1"/>
        <pt x="370" y="197" on="1"/>
        <pt x="168" y="197" on="1"/>
        <pt x="168" y="0" on="1"/>
        <pt x="80" y="0" on="1"/>
        <pt x="80" y="470" on="1"/>
      </contour>
    </TTGlyph>
    <TTGlyph name="G" xMin="45" yMin="-9" xMax="560" yMax="639">
      <contour>
        <pt x="355" y="639" on="1"/>
        <pt x="410" y="639" on="0"/>
        <pt x="499" y="623" on="0"/>
        <pt x="537" y="603" on="1"/>
        <pt x="515" y="531" on="1"/>
        <pt x="478" y="548" on="0"/>
        <pt x="407" y="564" on="0"/>
        <pt x="366" y="564" on="1"/>
        <pt x="322" y="564" on="0"/>
        <pt x="242" y="538" on="0"/>
        <pt x="181" y="479" on="0"/>
        <pt x="145" y="384" on="0"/>
        <pt x="145" y="314" on="1"/>
        <pt x="145" y="193" on="0"/>
        <pt x="255" y="67" on="0"/>
        <pt x="355" y="67" on="1"/>
        <pt x="393" y="67" on="0"/>
        <pt x="448" y="75" on="0"/>
        <pt x="474" y="85" on="1"/>
        <pt x="474" y="260" on="1"/>
        <pt x="355" y="260" on="1"/>
        <pt x="355" y="332" on="1"/>
        <pt x="560" y="332" on="1"/>
        <pt x="560" y="28" on="1"/>
        <pt x="520" y="12" on="0"/>
        <pt x="422" y="-9" on="0"/>
        <pt x="355" y="-9" on="1"/>
        <pt x="290" y="-9" on="0"/>
        <pt x="177" y="33" on="0"/>
        <pt x="93" y="115" on="0"/>
        <pt x="45" y="235" on="0"/>
        <pt x="45" y="314" on="1"/>
        <pt x="45" y="393" on="0"/>
        <pt x="92" y="515" on="0"/>
        <pt x="174" y="597" on="0"/>
        <pt x="288" y="639" on="0"/>
      </contour>
    </TTGlyph>
    <TTGlyph name="Gbreve" xMin="45" yMin="-9" xMax="560" yMax="846">
      <contour>
        <pt x="355" y="639" on="1"/>
        <pt x="410" y="639" on="0"/>
        <pt x="499" y="623" on="0"/>
        <pt x="537" y="603" on="1"/>
        <pt x="515" y="531" on="1"/>
        <pt x="478" y="548" on="0"/>
        <pt x="407" y="564" on="0"/>
        <pt x="366" y="564" on="1"/>
        <pt x="322" y="564" on="0"/>
        <pt x="242" y="538" on="0"/>
        <pt x="181" y="479" on="0"/>
        <pt x="145" y="384" on="0"/>
        <pt x="145" y="314" on="1"/>
        <pt x="145" y="193" on="0"/>
        <pt x="255" y="67" on="0"/>
        <pt x="355" y="67" on="1"/>
        <pt x="393" y="67" on="0"/>
        <pt x="448" y="75" on="0"/>
        <pt x="474" y="85" on="1"/>
        <pt x="474" y="260" on="1"/>
        <pt x="355" y="260" on="1"/>
        <pt x="355" y="332" on="1"/>
        <pt x="560" y="332" on="1"/>
        <pt x="560" y="28" on="1"/>
        <pt x="520" y="12" on="0"/>
        <pt x="422" y="-9" on="0"/>
        <pt x="355" y="-9" on="1"/>
        <pt x="290" y="-9" on="0"/>
        <pt x="177" y="33" on="0"/>
        <pt x="93" y="115" on="0"/>
        <pt x="45" y="235" on="0"/>
        <pt x="45" y="314" on="1"/>
        <pt x="45" y="393" on="0"/>
        <pt x="92" y="515" on="0"/>
        <pt x="174" y="597" on="0"/>
        <pt x="288" y="639" on="0"/>
      </contour>
      <contour>
        <pt x="287" y="846" on="1"/>
        <pt x="291" y="814" on="0"/>
        <pt x="318" y="776" on="0"/>
        <pt x="359" y="776" on="1"/>
        <pt x="394" y="776" on="0"/>
        <pt x="427" y="812" on="0"/>
        <pt x="431" y="846" on="1"/>
        <pt x="493" y="846" on="1"/>
        <pt x="493" y="792" on="0"/>
        <pt x="424" y="722" on="0"/>
        <pt x="359" y="722" on="1"/>
        <pt x="323" y="722" on="0"/>
        <pt x="272" y="743" on="0"/>
        <pt x="239" y="778" on="0"/>
        <pt x="224" y="823" on="0"/>
        <pt x="224" y="846" on="1"/>
      </contour>
    </TTGlyph>
    <TTGlyph name="Gcircumflex" xMin="45" yMin="-9" xMax="560" yMax="844">
      <contour>
        <pt x="355" y="639" on="1"/>
        <pt x="410" y="639" on="0"/>
        <pt x="499" y="623" on="0"/>
        <pt x="537" y="603" on="1"/>
        <pt x="515" y="531" on="1"/>
        <pt x="478" y="548" on="0"/>
        <pt x="407" y="564" on="0"/>
        <pt x="366" y="564" on="1"/>
        <pt x="322" y="564" on="0"/>
        <pt x="242" y="538" on="0"/>
        <pt x="181" y="479" on="0"/>
        <pt x="145" y="384" on="0"/>
        <pt x="145" y="314" on="1"/>
        <pt x="145" y="193" on="0"/>
        <pt x="255" y="67" on="0"/>
        <pt x="355" y="67" on="1"/>
        <pt x="393" y="67" on="0"/>
        <pt x="448" y="75" on="0"/>
        <pt x="474" y="85" on="1"/>
        <pt x="474" y="260" on="1"/>
        <pt x="355" y="260" on="1"/>
        <pt x="355" y="332" on="1"/>
        <pt x="560" y="332" on="1"/>
        <pt x="560" y="28" on="1"/>
        <pt x="520" y="12" on="0"/>
        <pt x="422" y="-9" on="0"/>
        <pt x="355" y="-9" on="1"/>
        <pt x="290" y="-9" on="0"/>
        <pt x="177" y="33" on="0"/>
        <pt x="93" y="115" on="0"/>
        <pt x="45" y="235" on="0"/>
        <pt x="45" y="314" on="1"/>
        <pt x="45" y="393" on="0"/>
        <pt x="92" y="515" on="0"/>
        <pt x="174" y="597" on="0"/>
        <pt x="288" y="639" on="0"/>
      </contour>
      <contour>
        <pt x="306" y="844" on="1"/>
        <pt x="375" y="844" on="1"/>
        <pt x="500" y="710" on="1"/>
        <pt x="420" y="710" on="1"/>
        <pt x="340" y="794" on="1"/>
        <pt x="260" y="710" on="1"/>
        <pt x="184" y="710" on="1"/>
      </contour>
    </TTGlyph>
    <TTGlyph name="Gcommaaccent" xMin="45" yMin="-317" xMax="560" yMax="639">
      <contour>
        <pt x="355" y="639" on="1"/>
        <pt x="410" y="639" on="0"/>
        <pt x="499" y="623" on="0"/>
        <pt x="537" y="603" on="1"/>
        <pt x="515" y="531" on="1"/>
        <pt x="477" y="548" on="0"/>
        <pt x="408" y="564" on="0"/>
        <pt x="366" y="564" on="1"/>
        <pt x="322" y="564" on="0"/>
        <pt x="242" y="538" on="0"/>
        <pt x="181" y="479" on="0"/>
        <pt x="145" y="384" on="0"/>
        <pt x="145" y="314" on="1"/>
        <pt x="145" y="193" on="0"/>
        <pt x="255" y="67" on="0"/>
        <pt x="355" y="67" on="1"/>
        <pt x="393" y="67" on="0"/>
        <pt x="448" y="75" on="0"/>
        <pt x="474" y="85" on="1"/>
        <pt x="474" y="260" on="1"/>
        <pt x="355" y="260" on="1"/>
        <pt x="355" y="332" on="1"/>
        <pt x="560" y="332" on="1"/>
        <pt x="560" y="28" on="1"/>
        <pt x="520" y="12" on="0"/>
        <pt x="422" y="-9" on="0"/>
        <pt x="355" y="-9" on="1"/>
        <pt x="290" y="-9" on="0"/>
        <pt x="177" y="33" on="0"/>
        <pt x="93" y="115" on="0"/>
        <pt x="45" y="235" on="0"/>
        <pt x="45" y="314" on="1"/>
        <pt x="45" y="393" on="0"/>
        <pt x="92" y="515" on="0"/>
        <pt x="174" y="597" on="0"/>
        <pt x="288" y="639" on="0"/>
      </contour>
      <contour>
        <pt x="337" y="-182" on="1"/>
        <pt x="322" y="-179" on="0"/>
        <pt x="287" y="-150" on="0"/>
        <pt x="287" y="-124" on="1"/>
        <pt x="287" y="-100" on="0"/>
        <pt x="318" y="-65" on="0"/>
        <pt x="346" y="-65" on="1"/>
        <pt x="358" y="-65" on="0"/>
        <pt x="382" y="-75" on="0"/>
        <pt x="403" y="-96" on="0"/>
        <pt x="416" y="-129" on="0"/>
        <pt x="416" y="-153" on="1"/>
        <pt x="416" y="-176" on="0"/>
        <pt x="400" y="-223" on="0"/>
        <pt x="370" y="-267" on="0"/>
        <pt x="330" y="-304" on="0"/>
        <pt x="306" y="-317" on="1"/>
        <pt x="281" y="-282" on="1"/>
        <pt x="309" y="-265" on="0"/>
        <pt x="353" y="-212" on="0"/>
        <pt x="355" y="-186" on="1"/>
      </contour>
    </TTGlyph>
    <TTGlyph name="Gdotaccent" xMin="45" yMin="-9" xMax="560" yMax="822">
      <contour>
        <pt x="355" y="639" on="1"/>
        <pt x="410" y="639" on="0"/>
        <pt x="499" y="623" on="0"/>
        <pt x="537" y="603" on="1"/>
        <pt x="515" y="531" on="1"/>
        <pt x="478" y="548" on="0"/>
        <pt x="407" y="564" on="0"/>
        <pt x="366" y="564" on="1"/>
        <pt x="322" y="564" on="0"/>
        <pt x="242" y="538" on="0"/>
        <pt x="181" y="479" on="0"/>
        <pt x="145" y="384" on="0"/>
        <pt x="145" y="314" on="1"/>
        <pt x="145" y="193" on="0"/>
        <pt x="255" y="67" on="0"/>
        <pt x="355" y="67" on="1"/>
        <pt x="393" y="67" on="0"/>
        <pt x="448" y="75" on="0"/>
        <pt x="474" y="85" on="1"/>
        <pt x="474" y="260" on="1"/>
        <pt x="355" y="260" on="1"/>
        <pt x="355" y="332" on="1"/>
        <pt x="560" y="332" on="1"/>
        <pt x="560" y="28" on="1"/>
        <pt x="520" y="12" on="0"/>
        <pt x="422" y="-9" on="0"/>
        <pt x="355" y="-9" on="1"/>
        <pt x="290" y="-9" on="0"/>
        <pt x="177" y="33" on="0"/>
        <pt x="93" y="115" on="0"/>
        <pt x="45" y="235" on="0"/>
        <pt x="45" y="314" on="1"/>
        <pt x="45" y="393" on="0"/>
        <pt x="92" y="515" on="0"/>
        <pt x="174" y="597" on="0"/>
        <pt x="288" y="639" on="0"/>
      </contour>
      <contour>
        <pt x="299" y="767" on="1"/>
        <pt x="299" y="788" on="0"/>
        <pt x="333" y="822" on="0"/>
        <pt x="355" y="822" on="1"/>
        <pt x="378" y="822" on="0"/>
        <pt x="411" y="788" on="0"/>
        <pt x="411" y="767" on="1"/>
        <pt x="411" y="744" on="0"/>
        <pt x="378" y="710" on="0"/>
        <pt x="355" y="710" on="1"/>
        <pt x="333" y="710" on="0"/>
        <pt x="299" y="744" on="0"/>
      </contour>
    </TTGlyph>
    <TTGlyph name="Grave" xMin="27" yMin="710" xMax="210" yMax="834">
      <contour>
        <pt x="27" y="834" on="1"/>
        <pt x="130" y="834" on="1"/>
        <pt x="210" y="710" on="1"/>
        <pt x="138" y="710" on="1"/>
      </contour>
    </TTGlyph>
    <TTGlyph name="Gsmall" xMin="45" yMin="-9" xMax="450" yMax="477">
      <contour>
        <pt x="302" y="59" on="1"/>
        <pt x="322" y="59" on="0"/>
        <pt x="360" y="64" on="0"/>
        <pt x="377" y="69" on="1"/>
        <pt x="377" y="185" on="1"/>
        <pt x="281" y="185" on="1"/>
        <pt x="281" y="250" on="1"/>
        <pt x="450" y="250" on="1"/>
        <pt x="450" y="19" on="1"/>
        <pt x="419" y="5" on="0"/>
        <pt x="337" y="-9" on="0"/>
        <pt x="295" y="-9" on="1"/>
        <pt x="242" y="-9" on="0"/>
        <pt x="151" y="21" on="0"/>
        <pt x="83" y="82" on="0"/>
        <pt x="45" y="173" on="0"/>
        <pt x="45" y="234" on="1"/>
        <pt x="45" y="290" on="0"/>
        <pt x="81" y="380" on="0"/>
        <pt x="146" y="443" on="0"/>
        <pt x="238" y="477" on="0"/>
        <pt x="294" y="477" on="1"/>
        <pt x="325" y="477" on="0"/>
        <pt x="398" y="470" on="0"/>
        <pt x="436" y="453" on="1"/>
        <pt x="416" y="386" on="1"/>
        <pt x="392" y="400" on="0"/>
        <pt x="332" y="410" on="0"/>
        <pt x="303" y="410" on="1"/>
        <pt x="226" y="410" on="0"/>
        <pt x="135" y="319" on="0"/>
        <pt x="135" y="237" on="1"/>
        <pt x="135" y="186" on="0"/>
        <pt x="163" y="118" on="0"/>
        <pt x="210" y="77" on="0"/>
        <pt x="270" y="59" on="0"/>
      </contour>
    </TTGlyph>
    <TTGlyph name="H" xMin="80" yMin="0" xMax="563" yMax="630">
      <contour>
        <pt x="80" y="0" on="1"/>
        <pt x="80" y="630" on="1"/>
        <pt x="172" y="630" on="1"/>
        <pt x="172" y="365" on="1"/>
        <pt x="471" y="365" on="1"/>
        <pt x="471" y="630" on="1"/>
        <pt x="563" y="630" on="1"/>
        <pt x="563" y="0" on="1"/>
        <pt x="471" y="0" on="1"/>
        <pt x="471" y="287" on="1"/>
        <pt x="172" y="287" on="1"/>
        <pt x="172" y="0" on="1"/>
      </contour>
    </TTGlyph>
    <TTGlyph name="Hbar" xMin="20" yMin="0" xMax="623" yMax="630">
      <contour>
        <pt x="623" y="550" on="1"/>
        <pt x="623" y="488" on="1"/>
        <pt x="563" y="488" on="1"/>
        <pt x="563" y="0" on="1"/>
        <pt x="471" y="0" on="1"/>
        <pt x="471" y="287" on="1"/>
        <pt x="172" y="287" on="1"/>
        <pt x="172" y="0" on="1"/>
        <pt x="80" y="0" on="1"/>
        <pt x="80" y="488" on="1"/>
        <pt x="20" y="488" on="1"/>
        <pt x="20" y="550" on="1"/>
        <pt x="80" y="550" on="1"/>
        <pt x="80" y="630" on="1"/>
        <pt x="172" y="630" on="1"/>
        <pt x="172" y="550" on="1"/>
        <pt x="471" y="550" on="1"/>
        <pt x="471" y="630" on="1"/>
        <pt x="563" y="630" on="1"/>
        <pt x="563" y="550" on="1"/>
      </contour>
      <contour>
        <pt x="471" y="365" on="1"/>
        <pt x="471" y="488" on="1"/>
        <pt x="172" y="488" on="1"/>
        <pt x="172" y="365" on="1"/>
      </contour>
    </TTGlyph>
    <TTGlyph name="Hcircumflex" xMin="80" yMin="0" xMax="563" yMax="844">
      <contour>
        <pt x="80" y="0" on="1"/>
        <pt x="80" y="630" on="1"/>
        <pt x="172" y="630" on="1"/>
        <pt x="172" y="365" on="1"/>
        <pt x="471" y="365" on="1"/>
        <pt x="471" y="630" on="1"/>
        <pt x="563" y="630" on="1"/>
        <pt x="563" y="0" on="1"/>
        <pt x="471" y="0" on="1"/>
        <pt x="471" y="287" on="1"/>
        <pt x="172" y="287" on="1"/>
        <pt x="172" y="0" on="1"/>
      </contour>
      <contour>
        <pt x="289" y="844" on="1"/>
        <pt x="358" y="844" on="1"/>
        <pt x="483" y="710" on="1"/>
        <pt x="403" y="710" on="1"/>
        <pt x="323" y="794" on="1"/>
        <pt x="243" y="710" on="1"/>
        <pt x="167" y="710" on="1"/>
      </contour>
    </TTGlyph>
    <TTGlyph name="Hsmall" xMin="80" yMin="0" xMax="471" yMax="470">
      <contour>
        <pt x="80" y="0" on="1"/>
        <pt x="80" y="470" on="1"/>
        <pt x="165" y="470" on="1"/>
        <pt x="165" y="283" on="1"/>
        <pt x="385" y="283" on="1"/>
        <pt x="385" y="470" on="1"/>
        <pt x="471" y="470" on="1"/>
        <pt x="471" y="0" on="1"/>
        <pt x="385" y="0" on="1"/>
        <pt x="385" y="211" on="1"/>
        <pt x="165" y="211" on="1"/>
        <pt x="165" y="0" on="1"/>
      </contour>
    </TTGlyph>
    <TTGlyph name="Hungarumlaut" xMin="32" yMin="710" xMax="396" yMax="835">
      <contour>
        <pt x="218" y="710" on="1"/>
        <pt x="298" y="835" on="1"/>
        <pt x="396" y="835" on="1"/>
        <pt x="290" y="710" on="1"/>
      </contour>
      <contour>
        <pt x="32" y="710" on="1"/>
        <pt x="112" y="835" on="1"/>
        <pt x="210" y="835" on="1"/>
        <pt x="104" y="710" on="1"/>
      </contour>
    </TTGlyph>
    <TTGlyph name="I" xMin="80" yMin="0" xMax="172" yMax="630">
      <contour>
        <pt x="172" y="630" on="1"/>
        <pt x="172" y="0" on="1"/>
        <pt x="80" y="0" on="1"/>
        <pt x="80" y="630" on="1"/>
      </contour>
    </TTGlyph>
    <TTGlyph name="IJ" xMin="80" yMin="-155" xMax="415" yMax="630">
      <contour>
        <pt x="172" y="630" on="1"/>
        <pt x="172" y="0" on="1"/>
        <pt x="80" y="0" on="1"/>
        <pt x="80" y="630" on="1"/>
      </contour>
      <contour>
        <pt x="415" y="630" on="1"/>
        <pt x="415" y="115" on="1"/>
        <pt x="415" y="45" on="0"/>
        <pt x="402" y="-45" on="0"/>
        <pt x="377" y="-79" on="1"/>
        <pt x="347" y="-121" on="0"/>
        <pt x="251" y="-154" on="0"/>
        <pt x="203" y="-155" on="1"/>
        <pt x="203" y="-80" on="1"/>
        <pt x="262" y="-79" on="0"/>
        <pt x="294" y="-43" on="1"/>
        <pt x="312" y="-23" on="0"/>
        <pt x="323" y="35" on="0"/>
        <pt x="323" y="67" on="1"/>
        <pt x="323" y="630" on="1"/>
      </contour>
    </TTGlyph>
    <TTGlyph name="I_01" xMin="-10" yMin="0" xMax="496" yMax="842">
      <contour>
        <pt x="80" y="566" on="1"/>
        <pt x="-10" y="566" on="1"/>
        <pt x="-10" y="630" on="1"/>
        <pt x="69" y="630" on="1"/>
        <pt x="55" y="642" on="0"/>
        <pt x="35" y="693" on="0"/>
        <pt x="35" y="719" on="1"/>
        <pt x="35" y="778" on="0"/>
        <pt x="119" y="842" on="0"/>
        <pt x="182" y="842" on="1"/>
        <pt x="237" y="842" on="0"/>
        <pt x="330" y="803" on="0"/>
        <pt x="406" y="739" on="0"/>
        <pt x="465" y="659" on="0"/>
        <pt x="487" y="618" on="1"/>
        <pt x="496" y="601" on="1"/>
        <pt x="436" y="576" on="1"/>
        <pt x="424" y="596" on="1"/>
        <pt x="405" y="628" on="0"/>
        <pt x="356" y="692" on="0"/>
        <pt x="299" y="743" on="0"/>
        <pt x="233" y="774" on="0"/>
        <pt x="197" y="774" on="1"/>
        <pt x="155" y="774" on="0"/>
        <pt x="113" y="733" on="0"/>
        <pt x="113" y="704" on="1"/>
        <pt x="113" y="679" on="0"/>
        <pt x="130" y="642" on="0"/>
        <pt x="139" y="630" on="1"/>
        <pt x="248" y="630" on="1"/>
        <pt x="248" y="566" on="1"/>
        <pt x="158" y="566" on="1"/>
        <pt x="158" y="0" on="1"/>
        <pt x="80" y="0" on="1"/>
      </contour>
    </TTGlyph>
    <TTGlyph name="I_02" xMin="-10" yMin="0" xMax="626" yMax="852">
      <contour>
        <pt x="80" y="566" on="1"/>
        <pt x="-10" y="566" on="1"/>
        <pt x="-10" y="630" on="1"/>
        <pt x="73" y="630" on="1"/>
        <pt x="68" y="637" on="0"/>
        <pt x="56" y="671" on="0"/>
        <pt x="56" y="700" on="1"/>
        <pt x="56" y="731" on="0"/>
        <pt x="81" y="787" on="0"/>
        <pt x="133" y="828" on="0"/>
        <pt x="212" y="852" on="0"/>
        <pt x="265" y="852" on="1"/>
        <pt x="334" y="852" on="0"/>
        <pt x="445" y="805" on="0"/>
        <pt x="532" y="736" on="0"/>
        <pt x="596" y="657" on="0"/>
        <pt x="616" y="625" on="1"/>
        <pt x="626" y="609" on="1"/>
        <pt x="563" y="577" on="1"/>
        <pt x="547" y="601" on="1"/>
        <pt x="523" y="637" on="0"/>
        <pt x="464" y="704" on="0"/>
        <pt x="394" y="754" on="0"/>
        <pt x="314" y="784" on="0"/>
        <pt x="268" y="784" on="1"/>
        <pt x="233" y="784" on="0"/>
        <pt x="183" y="768" on="0"/>
        <pt x="152" y="741" on="0"/>
        <pt x="138" y="705" on="0"/>
        <pt x="138" y="684" on="1"/>
        <pt x="138" y="653" on="0"/>
        <pt x="148" y="630" on="1"/>
        <pt x="248" y="630" on="1"/>
        <pt x="248" y="566" on="1"/>
        <pt x="158" y="566" on="1"/>
        <pt x="158" y="0" on="1"/>
        <pt x="80" y="0" on="1"/>
      </contour>
    </TTGlyph>
    <TTGlyph name="I_03" xMin="-10" yMin="0" xMax="690" yMax="852">
      <contour>
        <pt x="80" y="566" on="1"/>
        <pt x="-10" y="566" on="1"/>
        <pt x="-10" y="630" on="1"/>
        <pt x="74" y="630" on="1"/>
        <pt x="68" y="640" on="0"/>
        <pt x="56" y="679" on="0"/>
        <pt x="56" y="697" on="1"/>
        <pt x="56" y="734" on="0"/>
        <pt x="90" y="791" on="0"/>
        <pt x="150" y="831" on="0"/>
        <pt x="234" y="852" on="0"/>
        <pt x="284" y="852" on="1"/>
        <pt x="364" y="852" on="0"/>
        <pt x="492" y="803" on="0"/>
        <pt x="590" y="732" on="0"/>
        <pt x="660" y="651" on="0"/>
        <pt x="683" y="619" on="1"/>
        <pt x="690" y="609" on="1"/>
        <pt x="632" y="572" on="1"/>
        <pt x="618" y="590" on="1"/>
        <pt x="586" y="631" on="0"/>
        <pt x="516" y="702" on="0"/>
        <pt x="434" y="754" on="0"/>
        <pt x="341" y="784" on="0"/>
        <pt x="287" y="784" on="1"/>
        <pt x="218" y="784" on="0"/>
        <pt x="138" y="728" on="0"/>
        <pt x="138" y="677" on="1"/>
        <pt x="138" y="661" on="0"/>
        <pt x="143" y="640" on="0"/>
        <pt x="148" y="630" on="1"/>
        <pt x="248" y="630" on="1"/>
        <pt x="248" y="566" on="1"/>
        <pt x="158" y="566" on="1"/>
        <pt x="158" y="0" on="1"/>
        <pt x="80" y="0" on="1"/>
      </contour>
    </TTGlyph>
    <TTGlyph name="I_04" xMin="-10" yMin="0" xMax="721" yMax="852">
      <contour>
        <pt x="80" y="566" on="1"/>
        <pt x="-10" y="566" on="1"/>
        <pt x="-10" y="630" on="1"/>
        <pt x="73" y="630" on="1"/>
        <pt x="67" y="640" on="0"/>
        <pt x="56" y="671" on="0"/>
        <pt x="56" y="694" on="1"/>
        <pt x="56" y="731" on="0"/>
        <pt x="93" y="790" on="0"/>
        <pt x="157" y="830" on="0"/>
        <pt x="244" y="852" on="0"/>
        <pt x="294" y="852" on="1"/>
        <pt x="372" y="852" on="0"/>
        <pt x="503" y="810" on="0"/>
        <pt x="609" y="744" on="0"/>
        <pt x="688" y="662" on="0"/>
        <pt x="715" y="622" on="1"/>
        <pt x="721" y="613" on="1"/>
        <pt x="664" y="578" on="1"/>
        <pt x="645" y="602" on="1"/>
        <pt x="615" y="639" on="0"/>
        <pt x="541" y="706" on="0"/>
        <pt x="454" y="755" on="0"/>
        <pt x="353" y="784" on="0"/>
        <pt x="297" y="784" on="1"/>
        <pt x="220" y="784" on="0"/>
        <pt x="138" y="727" on="0"/>
        <pt x="138" y="677" on="1"/>
        <pt x="138" y="663" on="0"/>
        <pt x="142" y="643" on="0"/>
        <pt x="147" y="630" on="1"/>
        <pt x="248" y="630" on="1"/>
        <pt x="248" y="566" on="1"/>
        <pt x="158" y="566" on="1"/>
        <pt x="158" y="0" on="1"/>
        <pt x="80" y="0" on="1"/>
      </contour>
    </TTGlyph>
    <TTGlyph name="I_05" xMin="-10" yMin="0" xMax="771" yMax="852">
      <contour>
        <pt x="80" y="566" on="1"/>
        <pt x="-10" y="566" on="1"/>
        <pt x="-10" y="630" on="1"/>
        <pt x="73" y="630" on="1"/>
        <pt x="67" y="640" on="0"/>
        <pt x="56" y="674" on="0"/>
        <pt x="56" y="697" on="1"/>
        <pt x="56" y="731" on="0"/>
        <pt x="94" y="789" on="0"/>
        <pt x="160" y="829" on="0"/>
        <pt x="251" y="852" on="0"/>
        <pt x="304" y="852" on="1"/>
        <pt x="388" y="852" on="0"/>
        <pt x="530" y="808" on="0"/>
        <pt x="644" y="742" on="0"/>
        <pt x="731" y="663" on="0"/>
        <pt x="761" y="627" on="1"/>
        <pt x="771" y="615" on="1"/>
        <pt x="713" y="571" on="1"/>
        <pt x="695" y="591" on="1"/>
        <pt x="660" y="629" on="0"/>
        <pt x="579" y="699" on="0"/>
        <pt x="483" y="752" on="0"/>
        <pt x="372" y="784" on="0"/>
        <pt x="307" y="784" on="1"/>
        <pt x="227" y="784" on="0"/>
        <pt x="138" y="725" on="0"/>
        <pt x="138" y="679" on="1"/>
        <pt x="138" y="667" on="0"/>
        <pt x="142" y="642" on="0"/>
        <pt x="147" y="630" on="1"/>
        <pt x="248" y="630" on="1"/>
        <pt x="248" y="566" on="1"/>
        <pt x="158" y="566" on="1"/>
        <pt x="158" y="0" on="1"/>
        <pt x="80" y="0" on="1"/>
      </contour>
    </TTGlyph>
    <TTGlyph name="I_06" xMin="-10" yMin="0" xMax="786" yMax="852">
      <contour>
        <pt x="74" y="630" on="1"/>
        <pt x="68" y="640" on="0"/>
        <pt x="57" y="674" on="0"/>
        <pt x="57" y="697" on="1"/>
        <pt x="57" y="731" on="0"/>
        <pt x="94" y="789" on="0"/>
        <pt x="160" y="829" on="0"/>
        <pt x="251" y="852" on="0"/>
        <pt x="304" y="852" on="1"/>
        <pt x="400" y="852" on="0"/>
        <pt x="549" y="811" on="0"/>
        <pt x="664" y="745" on="0"/>
        <pt x="748" y="662" on="0"/>
        <pt x="778" y="621" on="1"/>
        <pt x="786" y="610" on="1"/>
        <pt x="730" y="573" on="1"/>
        <pt x="713" y="594" on="1"/>
        <pt x="680" y="635" on="0"/>
        <pt x="596" y="704" on="0"/>
        <pt x="495" y="755" on="0"/>
        <pt x="376" y="784" on="0"/>
        <pt x="307" y="784" on="1"/>
        <pt x="227" y="784" on="0"/>
        <pt x="138" y="725" on="0"/>
        <pt x="138" y="679" on="1"/>
        <pt x="138" y="667" on="0"/>
        <pt x="142" y="643" on="0"/>
        <pt x="148" y="630" on="1"/>
        <pt x="248" y="630" on="1"/>
        <pt x="248" y="566" on="1"/>
        <pt x="158" y="566" on="1"/>
        <pt x="158" y="0" on="1"/>
        <pt x="80" y="0" on="1"/>
        <pt x="80" y="566" on="1"/>
        <pt x="-10" y="566" on="1"/>
        <pt x="-10" y="630" on="1"/>
      </contour>
    </TTGlyph>
    <TTGlyph name="I_07" xMin="-10" yMin="0" xMax="825" yMax="853">
      <contour>
        <pt x="74" y="630" on="1"/>
        <pt x="68" y="640" on="0"/>
        <pt x="59" y="672" on="0"/>
        <pt x="59" y="692" on="1"/>
        <pt x="59" y="726" on="0"/>
        <pt x="93" y="785" on="0"/>
        <pt x="159" y="829" on="0"/>
        <pt x="254" y="853" on="0"/>
        <pt x="314" y="853" on="1"/>
        <pt x="410" y="853" on="0"/>
        <pt x="567" y="809" on="0"/>
        <pt x="690" y="742" on="0"/>
        <pt x="781" y="662" on="0"/>
        <pt x="811" y="626" on="1"/>
        <pt x="825" y="609" on="1"/>
        <pt x="772" y="572" on="1"/>
        <pt x="756" y="590" on="1"/>
        <pt x="679" y="678" on="0"/>
        <pt x="462" y="785" on="0"/>
        <pt x="317" y="785" on="1"/>
        <pt x="271" y="785" on="0"/>
        <pt x="204" y="767" on="0"/>
        <pt x="160" y="735" on="0"/>
        <pt x="139" y="694" on="0"/>
        <pt x="139" y="670" on="1"/>
        <pt x="139" y="645" on="0"/>
        <pt x="148" y="630" on="1"/>
        <pt x="248" y="630" on="1"/>
        <pt x="248" y="566" on="1"/>
        <pt x="158" y="566" on="1"/>
        <pt x="158" y="0" on="1"/>
        <pt x="80" y="0" on="1"/>
        <pt x="80" y="566" on="1"/>
        <pt x="-10" y="566" on="1"/>
        <pt x="-10" y="630" on="1"/>
      </contour>
    </TTGlyph>
    <TTGlyph name="I_08" xMin="-10" yMin="0" xMax="864" yMax="852">
      <contour>
        <pt x="72" y="630" on="1"/>
        <pt x="66" y="641" on="0"/>
        <pt x="56" y="672" on="0"/>
        <pt x="56" y="691" on="1"/>
        <pt x="56" y="725" on="0"/>
        <pt x="95" y="784" on="0"/>
        <pt x="168" y="828" on="0"/>
        <pt x="273" y="852" on="0"/>
        <pt x="339" y="852" on="1"/>
        <pt x="450" y="852" on="0"/>
        <pt x="623" y="798" on="0"/>
        <pt x="751" y="724" on="0"/>
        <pt x="833" y="649" on="0"/>
        <pt x="853" y="627" on="1"/>
        <pt x="864" y="615" on="1"/>
        <pt x="815" y="573" on="1"/>
        <pt x="799" y="589" on="1"/>
        <pt x="763" y="625" on="0"/>
        <pt x="676" y="695" on="0"/>
        <pt x="567" y="750" on="0"/>
        <pt x="429" y="784" on="0"/>
        <pt x="342" y="784" on="1"/>
        <pt x="289" y="784" on="0"/>
        <pt x="212" y="766" on="0"/>
        <pt x="162" y="736" on="0"/>
        <pt x="138" y="696" on="0"/>
        <pt x="138" y="673" on="1"/>
        <pt x="138" y="647" on="0"/>
        <pt x="146" y="630" on="1"/>
        <pt x="248" y="630" on="1"/>
        <pt x="248" y="566" on="1"/>
        <pt x="158" y="566" on="1"/>
        <pt x="158" y="0" on="1"/>
        <pt x="80" y="0" on="1"/>
        <pt x="80" y="566" on="1"/>
        <pt x="-10" y="566" on="1"/>
        <pt x="-10" y="630" on="1"/>
      </contour>
    </TTGlyph>
    <TTGlyph name="I_09" xMin="-10" yMin="0" xMax="911" yMax="852">
      <contour>
        <pt x="71" y="630" on="1"/>
        <pt x="66" y="639" on="0"/>
        <pt x="56" y="672" on="0"/>
        <pt x="56" y="695" on="1"/>
        <pt x="56" y="729" on="0"/>
        <pt x="95" y="787" on="0"/>
        <pt x="170" y="829" on="0"/>
        <pt x="279" y="852" on="0"/>
        <pt x="349" y="852" on="1"/>
        <pt x="456" y="852" on="0"/>
        <pt x="630" y="808" on="0"/>
        <pt x="765" y="741" on="0"/>
        <pt x="863" y="662" on="0"/>
        <pt x="895" y="627" on="1"/>
        <pt x="911" y="609" on="1"/>
        <pt x="860" y="575" on="1"/>
        <pt x="841" y="595" on="1"/>
        <pt x="806" y="632" on="0"/>
        <pt x="710" y="700" on="0"/>
        <pt x="588" y="752" on="0"/>
        <pt x="440" y="784" on="0"/>
        <pt x="352" y="784" on="1"/>
        <pt x="239" y="784" on="0"/>
        <pt x="138" y="723" on="0"/>
        <pt x="138" y="677" on="1"/>
        <pt x="138" y="651" on="0"/>
        <pt x="145" y="630" on="1"/>
        <pt x="248" y="630" on="1"/>
        <pt x="248" y="566" on="1"/>
        <pt x="158" y="566" on="1"/>
        <pt x="158" y="0" on="1"/>
        <pt x="80" y="0" on="1"/>
        <pt x="80" y="566" on="1"/>
        <pt x="-10" y="566" on="1"/>
        <pt x="-10" y="630" on="1"/>
      </contour>
    </TTGlyph>
    <TTGlyph name="I_10" xMin="-10" yMin="0" xMax="958" yMax="852">
      <contour>
        <pt x="71" y="630" on="1"/>
        <pt x="66" y="639" on="0"/>
        <pt x="56" y="672" on="0"/>
        <pt x="56" y="695" on="1"/>
        <pt x="56" y="729" on="0"/>
        <pt x="95" y="787" on="0"/>
        <pt x="170" y="829" on="0"/>
        <pt x="279" y="852" on="0"/>
        <pt x="349" y="852" on="1"/>
        <pt x="463" y="852" on="0"/>
        <pt x="651" y="804" on="0"/>
        <pt x="799" y="735" on="0"/>
        <pt x="906" y="657" on="0"/>
        <pt x="939" y="627" on="1"/>
        <pt x="958" y="610" on="1"/>
        <pt x="909" y="575" on="1"/>
        <pt x="887" y="593" on="1"/>
        <pt x="843" y="629" on="0"/>
        <pt x="727" y="698" on="0"/>
        <pt x="591" y="751" on="0"/>
        <pt x="436" y="784" on="0"/>
        <pt x="352" y="784" on="1"/>
        <pt x="239" y="784" on="0"/>
        <pt x="138" y="723" on="0"/>
        <pt x="138" y="677" on="1"/>
        <pt x="138" y="651" on="0"/>
        <pt x="145" y="630" on="1"/>
        <pt x="248" y="630" on="1"/>
        <pt x="248" y="566" on="1"/>
        <pt x="158" y="566" on="1"/>
        <pt x="158" y="0" on="1"/>
        <pt x="80" y="0" on="1"/>
        <pt x="80" y="566" on="1"/>
        <pt x="-10" y="566" on="1"/>
        <pt x="-10" y="630" on="1"/>
      </contour>
    </TTGlyph>
    <TTGlyph name="I_11" xMin="-10" yMin="0" xMax="1015" yMax="852">
      <contour>
        <pt x="71" y="630" on="1"/>
        <pt x="66" y="639" on="0"/>
        <pt x="57" y="666" on="0"/>
        <pt x="57" y="683" on="1"/>
        <pt x="57" y="723" on="0"/>
        <pt x="107" y="786" on="0"/>
        <pt x="196" y="829" on="0"/>
        <pt x="316" y="852" on="0"/>
        <pt x="386" y="852" on="1"/>
        <pt x="502" y="852" on="0"/>
        <pt x="689" y="814" on="0"/>
        <pt x="840" y="751" on="0"/>
        <pt x="958" y="671" on="0"/>
        <pt x="1005" y="629" on="1"/>
        <pt x="1015" y="620" on="1"/>
        <pt x="971" y="575" on="1"/>
        <pt x="947" y="594" on="1"/>
        <pt x="893" y="637" on="0"/>
        <pt x="773" y="707" on="0"/>
        <pt x="636" y="757" on="0"/>
        <pt x="480" y="784" on="0"/>
        <pt x="389" y="784" on="1"/>
        <pt x="264" y="784" on="0"/>
        <pt x="139" y="718" on="0"/>
        <pt x="139" y="667" on="1"/>
        <pt x="139" y="655" on="0"/>
        <pt x="142" y="638" on="0"/>
        <pt x="145" y="630" on="1"/>
        <pt x="248" y="630" on="1"/>
        <pt x="248" y="566" on="1"/>
        <pt x="158" y="566" on="1"/>
        <pt x="158" y="0" on="1"/>
        <pt x="80" y="0" on="1"/>
        <pt x="80" y="566" on="1"/>
        <pt x="-10" y="566" on="1"/>
        <pt x="-10" y="630" on="1"/>
      </contour>
    </TTGlyph>
    <TTGlyph name="I_12" xMin="-10" yMin="0" xMax="1055" yMax="852">
      <contour>
        <pt x="71" y="630" on="1"/>
        <pt x="66" y="639" on="0"/>
        <pt x="58" y="667" on="0"/>
        <pt x="58" y="688" on="1"/>
        <pt x="58" y="730" on="0"/>
        <pt x="108" y="791" on="0"/>
        <pt x="196" y="832" on="0"/>
        <pt x="316" y="852" on="0"/>
        <pt x="386" y="852" on="1"/>
        <pt x="502" y="852" on="0"/>
        <pt x="702" y="814" on="0"/>
        <pt x="868" y="751" on="0"/>
        <pt x="998" y="671" on="0"/>
        <pt x="1045" y="629" on="1"/>
        <pt x="1055" y="620" on="1"/>
        <pt x="1011" y="575" on="1"/>
        <pt x="987" y="594" on="1"/>
        <pt x="878" y="681" on="0"/>
        <pt x="572" y="784" on="0"/>
        <pt x="389" y="784" on="1"/>
        <pt x="332" y="784" on="0"/>
        <pt x="240" y="769" on="0"/>
        <pt x="175" y="738" on="0"/>
        <pt x="140" y="691" on="0"/>
        <pt x="140" y="660" on="1"/>
        <pt x="140" y="653" on="0"/>
        <pt x="142" y="637" on="0"/>
        <pt x="145" y="630" on="1"/>
        <pt x="248" y="630" on="1"/>
        <pt x="248" y="566" on="1"/>
        <pt x="158" y="566" on="1"/>
        <pt x="158" y="0" on="1"/>
        <pt x="80" y="0" on="1"/>
        <pt x="80" y="566" on="1"/>
        <pt x="-10" y="566" on="1"/>
        <pt x="-10" y="630" on="1"/>
      </contour>
    </TTGlyph>
    <TTGlyph name="I_13" xMin="-10" yMin="0" xMax="1095" yMax="852">
      <contour>
        <pt x="71" y="630" on="1"/>
        <pt x="58" y="649" on="0"/>
        <pt x="58" y="685" on="1"/>
        <pt x="58" y="726" on="0"/>
        <pt x="108" y="789" on="0"/>
        <pt x="196" y="831" on="0"/>
        <pt x="316" y="852" on="0"/>
        <pt x="386" y="852" on="1"/>
        <pt x="506" y="852" on="0"/>
        <pt x="719" y="814" on="0"/>
        <pt x="898" y="751" on="0"/>
        <pt x="1038" y="671" on="0"/>
        <pt x="1085" y="629" on="1"/>
        <pt x="1095" y="620" on="1"/>
        <pt x="1051" y="575" on="1"/>
        <pt x="1027" y="594" on="1"/>
        <pt x="918" y="681" on="0"/>
        <pt x="595" y="784" on="0"/>
        <pt x="389" y="784" on="1"/>
        <pt x="332" y="784" on="0"/>
        <pt x="240" y="767" on="0"/>
        <pt x="175" y="736" on="0"/>
        <pt x="140" y="690" on="0"/>
        <pt x="140" y="660" on="1"/>
        <pt x="140" y="650" on="0"/>
        <pt x="142" y="638" on="0"/>
        <pt x="145" y="630" on="1"/>
        <pt x="248" y="630" on="1"/>
        <pt x="248" y="566" on="1"/>
        <pt x="158" y="566" on="1"/>
        <pt x="158" y="0" on="1"/>
        <pt x="80" y="0" on="1"/>
        <pt x="80" y="566" on="1"/>
        <pt x="-10" y="566" on="1"/>
        <pt x="-10" y="630" on="1"/>
      </contour>
    </TTGlyph>
    <TTGlyph name="I_14" xMin="-10" yMin="0" xMax="1155" yMax="852">
      <contour>
        <pt x="71" y="630" on="1"/>
        <pt x="66" y="640" on="0"/>
        <pt x="59" y="664" on="0"/>
        <pt x="59" y="680" on="1"/>
        <pt x="59" y="722" on="0"/>
        <pt x="112" y="786" on="0"/>
        <pt x="203" y="829" on="0"/>
        <pt x="326" y="852" on="0"/>
        <pt x="396" y="852" on="1"/>
        <pt x="523" y="852" on="0"/>
        <pt x="754" y="814" on="0"/>
        <pt x="948" y="751" on="0"/>
        <pt x="1098" y="671" on="0"/>
        <pt x="1145" y="629" on="1"/>
        <pt x="1155" y="620" on="1"/>
        <pt x="1111" y="575" on="1"/>
        <pt x="1087" y="594" on="1"/>
        <pt x="1033" y="637" on="0"/>
        <pt x="884" y="707" on="0"/>
        <pt x="706" y="757" on="0"/>
        <pt x="505" y="784" on="0"/>
        <pt x="399" y="784" on="1"/>
        <pt x="342" y="784" on="0"/>
        <pt x="248" y="767" on="0"/>
        <pt x="179" y="735" on="0"/>
        <pt x="141" y="689" on="0"/>
        <pt x="141" y="659" on="1"/>
        <pt x="141" y="642" on="0"/>
        <pt x="145" y="630" on="1"/>
        <pt x="248" y="630" on="1"/>
        <pt x="248" y="566" on="1"/>
        <pt x="158" y="566" on="1"/>
        <pt x="158" y="0" on="1"/>
        <pt x="80" y="0" on="1"/>
        <pt x="80" y="566" on="1"/>
        <pt x="-10" y="566" on="1"/>
        <pt x="-10" y="630" on="1"/>
      </contour>
    </TTGlyph>
    <TTGlyph name="I_15" xMin="-10" yMin="0" xMax="1195" yMax="852">
      <contour>
        <pt x="71" y="630" on="1"/>
        <pt x="66" y="640" on="0"/>
        <pt x="59" y="662" on="0"/>
        <pt x="59" y="680" on="1"/>
        <pt x="59" y="718" on="0"/>
        <pt x="110" y="782" on="0"/>
        <pt x="205" y="827" on="0"/>
        <pt x="341" y="852" on="0"/>
        <pt x="426" y="852" on="1"/>
        <pt x="557" y="852" on="0"/>
        <pt x="789" y="816" on="0"/>
        <pt x="983" y="755" on="0"/>
        <pt x="1135" y="674" on="0"/>
        <pt x="1185" y="629" on="1"/>
        <pt x="1195" y="620" on="1"/>
        <pt x="1151" y="575" on="1"/>
        <pt x="1127" y="594" on="1"/>
        <pt x="1072" y="638" on="0"/>
        <pt x="917" y="708" on="0"/>
        <pt x="734" y="758" on="0"/>
        <pt x="531" y="784" on="0"/>
        <pt x="429" y="784" on="1"/>
        <pt x="285" y="784" on="0"/>
        <pt x="141" y="716" on="0"/>
        <pt x="141" y="662" on="1"/>
        <pt x="141" y="650" on="0"/>
        <pt x="143" y="637" on="0"/>
        <pt x="145" y="630" on="1"/>
        <pt x="248" y="630" on="1"/>
        <pt x="248" y="566" on="1"/>
        <pt x="158" y="566" on="1"/>
        <pt x="158" y="0" on="1"/>
        <pt x="80" y="0" on="1"/>
        <pt x="80" y="566" on="1"/>
        <pt x="-10" y="566" on="1"/>
        <pt x="-10" y="630" on="1"/>
      </contour>
    </TTGlyph>
    <TTGlyph name="I_16" xMin="-10" yMin="0" xMax="1255" yMax="852">
      <contour>
        <pt x="71" y="630" on="1"/>
        <pt x="66" y="640" on="0"/>
        <pt x="59" y="662" on="0"/>
        <pt x="59" y="680" on="1"/>
        <pt x="59" y="718" on="0"/>
        <pt x="108" y="782" on="0"/>
        <pt x="207" y="827" on="0"/>
        <pt x="356" y="852" on="0"/>
        <pt x="456" y="852" on="1"/>
        <pt x="587" y="852" on="0"/>
        <pt x="828" y="816" on="0"/>
        <pt x="1034" y="755" on="0"/>
        <pt x="1195" y="674" on="0"/>
        <pt x="1245" y="629" on="1"/>
        <pt x="1255" y="620" on="1"/>
        <pt x="1211" y="575" on="1"/>
        <pt x="1187" y="594" on="1"/>
        <pt x="1132" y="638" on="0"/>
        <pt x="967" y="708" on="0"/>
        <pt x="773" y="758" on="0"/>
        <pt x="561" y="784" on="0"/>
        <pt x="459" y="784" on="1"/>
        <pt x="372" y="784" on="0"/>
        <pt x="251" y="766" on="0"/>
        <pt x="175" y="733" on="0"/>
        <pt x="141" y="689" on="0"/>
        <pt x="141" y="662" on="1"/>
        <pt x="141" y="650" on="0"/>
        <pt x="143" y="637" on="0"/>
        <pt x="145" y="630" on="1"/>
        <pt x="248" y="630" on="1"/>
        <pt x="248" y="566" on="1"/>
        <pt x="158" y="566" on="1"/>
        <pt x="158" y="0" on="1"/>
        <pt x="80" y="0" on="1"/>
        <pt x="80" y="566" on="1"/>
        <pt x="-10" y="566" on="1"/>
        <pt x="-10" y="630" on="1"/>
      </contour>
    </TTGlyph>
    <TTGlyph name="I_17" xMin="-10" yMin="0" xMax="1315" yMax="852">
      <contour>
        <pt x="71" y="630" on="1"/>
        <pt x="66" y="640" on="0"/>
        <pt x="59" y="662" on="0"/>
        <pt x="59" y="680" on="1"/>
        <pt x="59" y="718" on="0"/>
        <pt x="114" y="782" on="0"/>
        <pt x="221" y="827" on="0"/>
        <pt x="376" y="852" on="0"/>
        <pt x="476" y="852" on="1"/>
        <pt x="626" y="852" on="0"/>
        <pt x="884" y="816" on="0"/>
        <pt x="1095" y="755" on="0"/>
        <pt x="1255" y="674" on="0"/>
        <pt x="1305" y="629" on="1"/>
        <pt x="1315" y="620" on="1"/>
        <pt x="1271" y="575" on="1"/>
        <pt x="1247" y="594" on="1"/>
        <pt x="1192" y="638" on="0"/>
        <pt x="1029" y="708" on="0"/>
        <pt x="829" y="758" on="0"/>
        <pt x="600" y="784" on="0"/>
        <pt x="479" y="784" on="1"/>
        <pt x="306" y="784" on="0"/>
        <pt x="141" y="715" on="0"/>
        <pt x="141" y="662" on="1"/>
        <pt x="141" y="650" on="0"/>
        <pt x="143" y="637" on="0"/>
        <pt x="145" y="630" on="1"/>
        <pt x="248" y="630" on="1"/>
        <pt x="248" y="566" on="1"/>
        <pt x="158" y="566" on="1"/>
        <pt x="158" y="0" on="1"/>
        <pt x="80" y="0" on="1"/>
        <pt x="80" y="566" on="1"/>
        <pt x="-10" y="566" on="1"/>
        <pt x="-10" y="630" on="1"/>
      </contour>
    </TTGlyph>
    <TTGlyph name="I_18" xMin="-10" yMin="0" xMax="1355" yMax="852">
      <contour>
        <pt x="71" y="630" on="1"/>
        <pt x="66" y="640" on="0"/>
        <pt x="59" y="662" on="0"/>
        <pt x="59" y="680" on="1"/>
        <pt x="59" y="718" on="0"/>
        <pt x="112" y="782" on="0"/>
        <pt x="222" y="827" on="0"/>
        <pt x="391" y="852" on="0"/>
        <pt x="506" y="852" on="1"/>
        <pt x="671" y="852" on="0"/>
        <pt x="932" y="815" on="0"/>
        <pt x="1137" y="753" on="0"/>
        <pt x="1289" y="672" on="0"/>
        <pt x="1345" y="628" on="1"/>
        <pt x="1355" y="620" on="1"/>
        <pt x="1318" y="572" on="1"/>
        <pt x="1291" y="590" on="1"/>
        <pt x="1226" y="633" on="0"/>
        <pt x="1076" y="705" on="0"/>
        <pt x="888" y="756" on="0"/>
        <pt x="656" y="784" on="0"/>
        <pt x="509" y="784" on="1"/>
        <pt x="407" y="784" on="0"/>
        <pt x="267" y="766" on="0"/>
        <pt x="180" y="733" on="0"/>
        <pt x="141" y="689" on="0"/>
        <pt x="141" y="662" on="1"/>
        <pt x="141" y="650" on="0"/>
        <pt x="143" y="637" on="0"/>
        <pt x="145" y="630" on="1"/>
        <pt x="248" y="630" on="1"/>
        <pt x="248" y="566" on="1"/>
        <pt x="158" y="566" on="1"/>
        <pt x="158" y="0" on="1"/>
        <pt x="80" y="0" on="1"/>
        <pt x="80" y="566" on="1"/>
        <pt x="-10" y="566" on="1"/>
        <pt x="-10" y="630" on="1"/>
      </contour>
    </TTGlyph>
    <TTGlyph name="I_19" xMin="-10" yMin="0" xMax="1405" yMax="852">
      <contour>
        <pt x="71" y="630" on="1"/>
        <pt x="66" y="640" on="0"/>
        <pt x="59" y="662" on="0"/>
        <pt x="59" y="680" on="1"/>
        <pt x="59" y="718" on="0"/>
        <pt x="112" y="782" on="0"/>
        <pt x="222" y="827" on="0"/>
        <pt x="391" y="852" on="0"/>
        <pt x="506" y="852" on="1"/>
        <pt x="678" y="852" on="0"/>
        <pt x="957" y="815" on="0"/>
        <pt x="1177" y="753" on="0"/>
        <pt x="1339" y="672" on="0"/>
        <pt x="1395" y="628" on="1"/>
        <pt x="1405" y="620" on="1"/>
        <pt x="1368" y="572" on="1"/>
        <pt x="1341" y="590" on="1"/>
        <pt x="1276" y="633" on="0"/>
        <pt x="1116" y="705" on="0"/>
        <pt x="913" y="756" on="0"/>
        <pt x="663" y="784" on="0"/>
        <pt x="509" y="784" on="1"/>
        <pt x="407" y="784" on="0"/>
        <pt x="267" y="766" on="0"/>
        <pt x="180" y="733" on="0"/>
        <pt x="141" y="689" on="0"/>
        <pt x="141" y="662" on="1"/>
        <pt x="141" y="650" on="0"/>
        <pt x="143" y="637" on="0"/>
        <pt x="145" y="630" on="1"/>
        <pt x="248" y="630" on="1"/>
        <pt x="248" y="566" on="1"/>
        <pt x="158" y="566" on="1"/>
        <pt x="158" y="0" on="1"/>
        <pt x="80" y="0" on="1"/>
        <pt x="80" y="566" on="1"/>
        <pt x="-10" y="566" on="1"/>
        <pt x="-10" y="630" on="1"/>
      </contour>
    </TTGlyph>
    <TTGlyph name="I_20" xMin="-10" yMin="0" xMax="1505" yMax="852">
      <contour>
        <pt x="71" y="630" on="1"/>
        <pt x="66" y="640" on="0"/>
        <pt x="59" y="662" on="0"/>
        <pt x="59" y="680" on="1"/>
        <pt x="59" y="718" on="0"/>
        <pt x="112" y="782" on="0"/>
        <pt x="222" y="827" on="0"/>
        <pt x="391" y="852" on="0"/>
        <pt x="506" y="852" on="1"/>
        <pt x="678" y="852" on="0"/>
        <pt x="989" y="815" on="0"/>
        <pt x="1246" y="753" on="0"/>
        <pt x="1439" y="672" on="0"/>
        <pt x="1495" y="628" on="1"/>
        <pt x="1505" y="620" on="1"/>
        <pt x="1468" y="572" on="1"/>
        <pt x="1441" y="590" on="1"/>
        <pt x="1376" y="633" on="0"/>
        <pt x="1185" y="705" on="0"/>
        <pt x="945" y="756" on="0"/>
        <pt x="663" y="784" on="0"/>
        <pt x="509" y="784" on="1"/>
        <pt x="407" y="784" on="0"/>
        <pt x="267" y="766" on="0"/>
        <pt x="180" y="733" on="0"/>
        <pt x="141" y="689" on="0"/>
        <pt x="141" y="662" on="1"/>
        <pt x="141" y="650" on="0"/>
        <pt x="143" y="637" on="0"/>
        <pt x="145" y="630" on="1"/>
        <pt x="248" y="630" on="1"/>
        <pt x="248" y="566" on="1"/>
        <pt x="158" y="566" on="1"/>
        <pt x="158" y="0" on="1"/>
        <pt x="80" y="0" on="1"/>
        <pt x="80" y="566" on="1"/>
        <pt x="-10" y="566" on="1"/>
        <pt x="-10" y="630" on="1"/>
      </contour>
    </TTGlyph>
    <TTGlyph name="I_21" xMin="-10" yMin="0" xMax="1575" yMax="852">
      <contour>
        <pt x="71" y="630" on="1"/>
        <pt x="66" y="640" on="0"/>
        <pt x="59" y="662" on="0"/>
        <pt x="59" y="680" on="1"/>
        <pt x="59" y="718" on="0"/>
        <pt x="112" y="782" on="0"/>
        <pt x="222" y="827" on="0"/>
        <pt x="391" y="852" on="0"/>
        <pt x="506" y="852" on="1"/>
        <pt x="678" y="852" on="0"/>
        <pt x="1010" y="815" on="0"/>
        <pt x="1294" y="753" on="0"/>
        <pt x="1509" y="672" on="0"/>
        <pt x="1565" y="628" on="1"/>
        <pt x="1575" y="620" on="1"/>
        <pt x="1538" y="572" on="1"/>
        <pt x="1511" y="590" on="1"/>
        <pt x="1446" y="633" on="0"/>
        <pt x="1233" y="705" on="0"/>
        <pt x="966" y="756" on="0"/>
        <pt x="663" y="784" on="0"/>
        <pt x="509" y="784" on="1"/>
        <pt x="407" y="784" on="0"/>
        <pt x="267" y="766" on="0"/>
        <pt x="180" y="733" on="0"/>
        <pt x="141" y="689" on="0"/>
        <pt x="141" y="662" on="1"/>
        <pt x="141" y="650" on="0"/>
        <pt x="143" y="637" on="0"/>
        <pt x="145" y="630" on="1"/>
        <pt x="248" y="630" on="1"/>
        <pt x="248" y="566" on="1"/>
        <pt x="158" y="566" on="1"/>
        <pt x="158" y="0" on="1"/>
        <pt x="80" y="0" on="1"/>
        <pt x="80" y="566" on="1"/>
        <pt x="-10" y="566" on="1"/>
        <pt x="-10" y="630" on="1"/>
      </contour>
    </TTGlyph>
    <TTGlyph name="I_22" xMin="-10" yMin="0" xMax="1665" yMax="852">
      <contour>
        <pt x="71" y="630" on="1"/>
        <pt x="66" y="640" on="0"/>
        <pt x="59" y="662" on="0"/>
        <pt x="59" y="680" on="1"/>
        <pt x="59" y="718" on="0"/>
        <pt x="117" y="782" on="0"/>
        <pt x="238" y="827" on="0"/>
        <pt x="426" y="852" on="0"/>
        <pt x="556" y="852" on="1"/>
        <pt x="773" y="852" on="0"/>
        <pt x="1129" y="815" on="0"/>
        <pt x="1405" y="753" on="0"/>
        <pt x="1599" y="672" on="0"/>
        <pt x="1655" y="628" on="1"/>
        <pt x="1665" y="620" on="1"/>
        <pt x="1628" y="572" on="1"/>
        <pt x="1601" y="590" on="1"/>
        <pt x="1536" y="633" on="0"/>
        <pt x="1338" y="705" on="0"/>
        <pt x="1076" y="756" on="0"/>
        <pt x="751" y="784" on="0"/>
        <pt x="559" y="784" on="1"/>
        <pt x="442" y="784" on="0"/>
        <pt x="283" y="766" on="0"/>
        <pt x="184" y="733" on="0"/>
        <pt x="141" y="689" on="0"/>
        <pt x="141" y="662" on="1"/>
        <pt x="141" y="650" on="0"/>
        <pt x="143" y="637" on="0"/>
        <pt x="145" y="630" on="1"/>
        <pt x="248" y="630" on="1"/>
        <pt x="248" y="566" on="1"/>
        <pt x="158" y="566" on="1"/>
        <pt x="158" y="0" on="1"/>
        <pt x="80" y="0" on="1"/>
        <pt x="80" y="566" on="1"/>
        <pt x="-10" y="566" on="1"/>
        <pt x="-10" y="630" on="1"/>
      </contour>
    </TTGlyph>
    <TTGlyph name="I_23" xMin="-10" yMin="0" xMax="2005" yMax="852">
      <contour>
        <pt x="71" y="630" on="1"/>
        <pt x="66" y="640" on="0"/>
        <pt x="59" y="662" on="0"/>
        <pt x="59" y="680" on="1"/>
        <pt x="59" y="718" on="0"/>
        <pt x="115" y="782" on="0"/>
        <pt x="244" y="827" on="0"/>
        <pt x="453" y="852" on="0"/>
        <pt x="606" y="852" on="1"/>
        <pt x="872" y="852" on="0"/>
        <pt x="1331" y="815" on="0"/>
        <pt x="1691" y="753" on="0"/>
        <pt x="1939" y="672" on="0"/>
        <pt x="1995" y="628" on="1"/>
        <pt x="2005" y="620" on="1"/>
        <pt x="1968" y="572" on="1"/>
        <pt x="1941" y="590" on="1"/>
        <pt x="1898" y="619" on="0"/>
        <pt x="1752" y="670" on="0"/>
        <pt x="1558" y="713" on="0"/>
        <pt x="1321" y="747" on="0"/>
        <pt x="1054" y="771" on="0"/>
        <pt x="762" y="784" on="0"/>
        <pt x="609" y="784" on="1"/>
        <pt x="470" y="784" on="0"/>
        <pt x="289" y="766" on="0"/>
        <pt x="183" y="733" on="0"/>
        <pt x="141" y="689" on="0"/>
        <pt x="141" y="662" on="1"/>
        <pt x="141" y="650" on="0"/>
        <pt x="143" y="637" on="0"/>
        <pt x="145" y="630" on="1"/>
        <pt x="248" y="630" on="1"/>
        <pt x="248" y="566" on="1"/>
        <pt x="158" y="566" on="1"/>
        <pt x="158" y="0" on="1"/>
        <pt x="80" y="0" on="1"/>
        <pt x="80" y="566" on="1"/>
        <pt x="-10" y="566" on="1"/>
        <pt x="-10" y="630" on="1"/>
      </contour>
    </TTGlyph>
    <TTGlyph name="Iacute" xMin="80" yMin="0" xMax="272" yMax="834">
      <contour>
        <pt x="172" y="630" on="1"/>
        <pt x="172" y="0" on="1"/>
        <pt x="80" y="0" on="1"/>
        <pt x="80" y="630" on="1"/>
      </contour>
      <contour>
        <pt x="161" y="710" on="1"/>
        <pt x="89" y="710" on="1"/>
        <pt x="169" y="834" on="1"/>
        <pt x="272" y="834" on="1"/>
      </contour>
    </TTGlyph>
    <TTGlyph name="Ibreve" xMin="-7" yMin="0" xMax="262" yMax="834">
      <contour>
        <pt x="172" y="630" on="1"/>
        <pt x="172" y="0" on="1"/>
        <pt x="80" y="0" on="1"/>
        <pt x="80" y="630" on="1"/>
      </contour>
      <contour>
        <pt x="56" y="834" on="1"/>
        <pt x="60" y="802" on="0"/>
        <pt x="87" y="764" on="0"/>
        <pt x="128" y="764" on="1"/>
        <pt x="163" y="764" on="0"/>
        <pt x="196" y="800" on="0"/>
        <pt x="200" y="834" on="1"/>
        <pt x="262" y="834" on="1"/>
        <pt x="262" y="780" on="0"/>
        <pt x="193" y="710" on="0"/>
        <pt x="128" y="710" on="1"/>
        <pt x="92" y="710" on="0"/>
        <pt x="41" y="731" on="0"/>
        <pt x="8" y="766" on="0"/>
        <pt x="-7" y="811" on="0"/>
        <pt x="-7" y="834" on="1"/>
      </contour>
    </TTGlyph>
    <TTGlyph name="Icircumflex" xMin="-31" yMin="0" xMax="285" yMax="844">
      <contour>
        <pt x="172" y="630" on="1"/>
        <pt x="172" y="0" on="1"/>
        <pt x="80" y="0" on="1"/>
        <pt x="80" y="630" on="1"/>
      </contour>
      <contour>
        <pt x="91" y="844" on="1"/>
        <pt x="160" y="844" on="1"/>
        <pt x="285" y="710" on="1"/>
        <pt x="205" y="710" on="1"/>
        <pt x="125" y="794" on="1"/>
        <pt x="45" y="710" on="1"/>
        <pt x="-31" y="710" on="1"/>
      </contour>
    </TTGlyph>
    <TTGlyph name="Idieresis" xMin="-9" yMin="0" xMax="257" yMax="810">
      <contour>
        <pt x="172" y="630" on="1"/>
        <pt x="172" y="0" on="1"/>
        <pt x="80" y="0" on="1"/>
        <pt x="80" y="630" on="1"/>
      </contour>
      <contour>
        <pt x="-9" y="761" on="1"/>
        <pt x="-9" y="780" on="0"/>
        <pt x="21" y="810" on="0"/>
        <pt x="41" y="810" on="1"/>
        <pt x="61" y="810" on="0"/>
        <pt x="91" y="780" on="0"/>
        <pt x="91" y="761" on="1"/>
        <pt x="91" y="741" on="0"/>
        <pt x="61" y="710" on="0"/>
        <pt x="41" y="710" on="1"/>
        <pt x="21" y="710" on="0"/>
        <pt x="-9" y="741" on="0"/>
      </contour>
      <contour>
        <pt x="157" y="761" on="1"/>
        <pt x="157" y="780" on="0"/>
        <pt x="187" y="810" on="0"/>
        <pt x="207" y="810" on="1"/>
        <pt x="227" y="810" on="0"/>
        <pt x="257" y="780" on="0"/>
        <pt x="257" y="761" on="1"/>
        <pt x="257" y="741" on="0"/>
        <pt x="227" y="710" on="0"/>
        <pt x="207" y="710" on="1"/>
        <pt x="187" y="710" on="0"/>
        <pt x="157" y="741" on="0"/>
      </contour>
    </TTGlyph>
    <TTGlyph name="Idotaccent" xMin="68" yMin="0" xMax="180" yMax="822">
      <contour>
        <pt x="172" y="630" on="1"/>
        <pt x="172" y="0" on="1"/>
        <pt x="80" y="0" on="1"/>
        <pt x="80" y="630" on="1"/>
      </contour>
      <contour>
        <pt x="68" y="767" on="1"/>
        <pt x="68" y="788" on="0"/>
        <pt x="102" y="822" on="0"/>
        <pt x="124" y="822" on="1"/>
        <pt x="147" y="822" on="0"/>
        <pt x="180" y="788" on="0"/>
        <pt x="180" y="767" on="1"/>
        <pt x="180" y="744" on="0"/>
        <pt x="147" y="710" on="0"/>
        <pt x="124" y="710" on="1"/>
        <pt x="102" y="710" on="0"/>
        <pt x="68" y="744" on="0"/>
      </contour>
    </TTGlyph>
    <TTGlyph name="Igrave" xMin="-21" yMin="0" xMax="172" yMax="834">
      <contour>
        <pt x="172" y="630" on="1"/>
        <pt x="172" y="0" on="1"/>
        <pt x="80" y="0" on="1"/>
        <pt x="80" y="630" on="1"/>
      </contour>
      <contour>
        <pt x="-21" y="834" on="1"/>
        <pt x="82" y="834" on="1"/>
        <pt x="162" y="710" on="1"/>
        <pt x="90" y="710" on="1"/>
      </contour>
    </TTGlyph>
    <TTGlyph name="Imacron" xMin="6" yMin="0" xMax="251" yMax="772">
      <contour>
        <pt x="172" y="630" on="1"/>
        <pt x="172" y="0" on="1"/>
        <pt x="80" y="0" on="1"/>
        <pt x="80" y="630" on="1"/>
      </contour>
      <contour>
        <pt x="251" y="772" on="1"/>
        <pt x="251" y="710" on="1"/>
        <pt x="6" y="710" on="1"/>
        <pt x="6" y="772" on="1"/>
      </contour>
    </TTGlyph>
    <TTGlyph name="Iogonek" xMin="2" yMin="-206" xMax="189" yMax="630">
      <contour>
        <pt x="172" y="0" on="1"/>
        <pt x="127" y="-22" on="0"/>
        <pt x="71" y="-64" on="0"/>
        <pt x="71" y="-95" on="1"/>
        <pt x="71" y="-119" on="0"/>
        <pt x="102" y="-146" on="0"/>
        <pt x="126" y="-146" on="1"/>
        <pt x="155" y="-146" on="0"/>
        <pt x="176" y="-138" on="1"/>
        <pt x="189" y="-185" on="1"/>
        <pt x="154" y="-206" on="0"/>
        <pt x="109" y="-206" on="1"/>
        <pt x="63" y="-206" on="0"/>
        <pt x="2" y="-153" on="0"/>
        <pt x="2" y="-106" on="1"/>
        <pt x="2" y="-87" on="0"/>
        <pt x="15" y="-54" on="0"/>
        <pt x="37" y="-27" on="0"/>
        <pt x="65" y="-7" on="0"/>
        <pt x="80" y="0" on="1"/>
        <pt x="80" y="630" on="1"/>
        <pt x="172" y="630" on="1"/>
      </contour>
    </TTGlyph>
    <TTGlyph name="Ismall" xMin="80" yMin="0" xMax="168" yMax="470">
      <contour>
        <pt x="168" y="470" on="1"/>
        <pt x="168" y="0" on="1"/>
        <pt x="80" y="0" on="1"/>
        <pt x="80" y="470" on="1"/>
      </contour>
    </TTGlyph>
    <TTGlyph name="Itilde" xMin="-33" yMin="0" xMax="270" yMax="824">
      <contour>
        <pt x="172" y="630" on="1"/>
        <pt x="172" y="0" on="1"/>
        <pt x="80" y="0" on="1"/>
        <pt x="80" y="630" on="1"/>
      </contour>
      <contour>
        <pt x="-33" y="711" on="1"/>
        <pt x="-33" y="757" on="0"/>
        <pt x="8" y="821" on="0"/>
        <pt x="54" y="821" on="1"/>
        <pt x="75" y="821" on="0"/>
        <pt x="108" y="807" on="0"/>
        <pt x="137" y="791" on="0"/>
        <pt x="165" y="777" on="0"/>
        <pt x="181" y="777" on="1"/>
        <pt x="201" y="777" on="0"/>
        <pt x="218" y="807" on="0"/>
        <pt x="220" y="824" on="1"/>
        <pt x="270" y="824" on="1"/>
        <pt x="270" y="803" on="0"/>
        <pt x="260" y="764" on="0"/>
        <pt x="239" y="733" on="0"/>
        <pt x="208" y="714" on="0"/>
        <pt x="187" y="714" on="1"/>
        <pt x="166" y="714" on="0"/>
        <pt x="129" y="727" on="0"/>
        <pt x="97" y="744" on="0"/>
        <pt x="69" y="757" on="0"/>
        <pt x="57" y="757" on="1"/>
        <pt x="36" y="757" on="0"/>
        <pt x="19" y="731" on="0"/>
        <pt x="17" y="711" on="1"/>
      </contour>
    </TTGlyph>
    <TTGlyph name="J" xMin="-15" yMin="-155" xMax="197" yMax="630">
      <contour>
        <pt x="197" y="630" on="1"/>
        <pt x="197" y="115" on="1"/>
        <pt x="197" y="45" on="0"/>
        <pt x="184" y="-45" on="0"/>
        <pt x="159" y="-79" on="1"/>
        <pt x="129" y="-121" on="0"/>
        <pt x="33" y="-154" on="0"/>
        <pt x="-15" y="-155" on="1"/>
        <pt x="-15" y="-80" on="1"/>
        <pt x="44" y="-79" on="0"/>
        <pt x="76" y="-43" on="1"/>
        <pt x="94" y="-23" on="0"/>
        <pt x="105" y="35" on="0"/>
        <pt x="105" y="67" on="1"/>
        <pt x="105" y="630" on="1"/>
      </contour>
    </TTGlyph>
    <TTGlyph name="Jcircumflex" xMin="-15" yMin="-155" xMax="312" yMax="844">
      <contour>
        <pt x="197" y="630" on="1"/>
        <pt x="197" y="115" on="1"/>
        <pt x="197" y="45" on="0"/>
        <pt x="184" y="-45" on="0"/>
        <pt x="159" y="-79" on="1"/>
        <pt x="129" y="-121" on="0"/>
        <pt x="33" y="-154" on="0"/>
        <pt x="-15" y="-155" on="1"/>
        <pt x="-15" y="-80" on="1"/>
        <pt x="44" y="-79" on="0"/>
        <pt x="76" y="-43" on="1"/>
        <pt x="94" y="-23" on="0"/>
        <pt x="105" y="35" on="0"/>
        <pt x="105" y="67" on="1"/>
        <pt x="105" y="630" on="1"/>
      </contour>
      <contour>
        <pt x="118" y="844" on="1"/>
        <pt x="187" y="844" on="1"/>
        <pt x="312" y="710" on="1"/>
        <pt x="232" y="710" on="1"/>
        <pt x="152" y="794" on="1"/>
        <pt x="72" y="710" on="1"/>
        <pt x="-4" y="710" on="1"/>
      </contour>
    </TTGlyph>
    <TTGlyph name="Jsmall" xMin="0" yMin="-163" xMax="175" yMax="470">
      <contour>
        <pt x="175" y="470" on="1"/>
        <pt x="175" y="73" on="1"/>
        <pt x="175" y="22" on="0"/>
        <pt x="166" y="-58" on="0"/>
        <pt x="146" y="-91" on="1"/>
        <pt x="122" y="-131" on="0"/>
        <pt x="46" y="-163" on="0"/>
        <pt x="0" y="-163" on="1"/>
        <pt x="0" y="-91" on="1"/>
        <pt x="18" y="-91" on="0"/>
        <pt x="56" y="-77" on="0"/>
        <pt x="68" y="-58" on="1"/>
        <pt x="80" y="-38" on="0"/>
        <pt x="87" y="22" on="0"/>
        <pt x="87" y="44" on="1"/>
        <pt x="87" y="470" on="1"/>
      </contour>
    </TTGlyph>
    <TTGlyph name="K" xMin="80" yMin="0" xMax="571" yMax="630">
      <contour>
        <pt x="80" y="0" on="1"/>
        <pt x="80" y="630" on="1"/>
        <pt x="172" y="630" on="1"/>
        <pt x="172" y="345" on="1"/>
        <pt x="437" y="630" on="1"/>
        <pt x="551" y="630" on="1"/>
        <pt x="291" y="351" on="1"/>
        <pt x="571" y="0" on="1"/>
        <pt x="455" y="0" on="1"/>
        <pt x="225" y="288" on="1"/>
        <pt x="172" y="231" on="1"/>
        <pt x="172" y="0" on="1"/>
      </contour>
    </TTGlyph>
    <TTGlyph name="Kcommaaccent" xMin="80" yMin="-317" xMax="571" yMax="630">
      <contour>
        <pt x="80" y="0" on="1"/>
        <pt x="80" y="630" on="1"/>
        <pt x="172" y="630" on="1"/>
        <pt x="172" y="345" on="1"/>
        <pt x="437" y="630" on="1"/>
        <pt x="551" y="630" on="1"/>
        <pt x="291" y="351" on="1"/>
        <pt x="571" y="0" on="1"/>
        <pt x="455" y="0" on="1"/>
        <pt x="225" y="288" on="1"/>
        <pt x="172" y="231" on="1"/>
        <pt x="172" y="0" on="1"/>
      </contour>
      <contour>
        <pt x="297" y="-182" on="1"/>
        <pt x="282" y="-179" on="0"/>
        <pt x="247" y="-150" on="0"/>
        <pt x="247" y="-124" on="1"/>
        <pt x="247" y="-100" on="0"/>
        <pt x="278" y="-65" on="0"/>
        <pt x="306" y="-65" on="1"/>
        <pt x="318" y="-65" on="0"/>
        <pt x="342" y="-75" on="0"/>
        <pt x="363" y="-96" on="0"/>
        <pt x="376" y="-129" on="0"/>
        <pt x="376" y="-153" on="1"/>
        <pt x="376" y="-176" on="0"/>
        <pt x="360" y="-223" on="0"/>
        <pt x="330" y="-267" on="0"/>
        <pt x="290" y="-304" on="0"/>
        <pt x="266" y="-317" on="1"/>
        <pt x="241" y="-282" on="1"/>
        <pt x="269" y="-265" on="0"/>
        <pt x="313" y="-212" on="0"/>
        <pt x="315" y="-186" on="1"/>
      </contour>
    </TTGlyph>
    <TTGlyph name="Ksmall" xMin="80" yMin="0" xMax="467" yMax="470">
      <contour>
        <pt x="80" y="0" on="1"/>
        <pt x="80" y="470" on="1"/>
        <pt x="168" y="470" on="1"/>
        <pt x="168" y="267" on="1"/>
        <pt x="346" y="470" on="1"/>
        <pt x="450" y="470" on="1"/>
        <pt x="262" y="263" on="1"/>
        <pt x="467" y="0" on="1"/>
        <pt x="361" y="0" on="1"/>
        <pt x="206" y="209" on="1"/>
        <pt x="168" y="166" on="1"/>
        <pt x="168" y="0" on="1"/>
      </contour>
    </TTGlyph>
    <TTGlyph name="L" xMin="80" yMin="0" xMax="441" yMax="630">
      <contour>
        <pt x="80" y="630" on="1"/>
        <pt x="172" y="630" on="1"/>
        <pt x="172" y="78" on="1"/>
        <pt x="441" y="78" on="1"/>
        <pt x="441" y="0" on="1"/>
        <pt x="80" y="0" on="1"/>
      </contour>
    </TTGlyph>
    <TTGlyph name="Lacute" xMin="80" yMin="0" xMax="441" yMax="834">
      <contour>
        <pt x="80" y="630" on="1"/>
        <pt x="172" y="630" on="1"/>
        <pt x="172" y="78" on="1"/>
        <pt x="441" y="78" on="1"/>
        <pt x="441" y="0" on="1"/>
        <pt x="80" y="0" on="1"/>
      </contour>
      <contour>
        <pt x="162" y="710" on="1"/>
        <pt x="90" y="710" on="1"/>
        <pt x="170" y="834" on="1"/>
        <pt x="273" y="834" on="1"/>
      </contour>
    </TTGlyph>
    <TTGlyph name="Lcaron" xMin="80" yMin="0" xMax="441" yMax="741">
      <contour>
        <pt x="80" y="630" on="1"/>
        <pt x="172" y="630" on="1"/>
        <pt x="172" y="78" on="1"/>
        <pt x="441" y="78" on="1"/>
        <pt x="441" y="0" on="1"/>
        <pt x="80" y="0" on="1"/>
      </contour>
      <contour>
        <pt x="312" y="624" on="1"/>
        <pt x="297" y="627" on="0"/>
        <pt x="262" y="656" on="0"/>
        <pt x="262" y="682" on="1"/>
        <pt x="262" y="706" on="0"/>
        <pt x="293" y="741" on="0"/>
        <pt x="321" y="741" on="1"/>
        <pt x="333" y="741" on="0"/>
        <pt x="357" y="731" on="0"/>
        <pt x="378" y="710" on="0"/>
        <pt x="391" y="677" on="0"/>
        <pt x="391" y="653" on="1"/>
        <pt x="391" y="630" on="0"/>
        <pt x="375" y="583" on="0"/>
        <pt x="345" y="539" on="0"/>
        <pt x="305" y="502" on="0"/>
        <pt x="281" y="489" on="1"/>
        <pt x="256" y="524" on="1"/>
        <pt x="284" y="541" on="0"/>
        <pt x="328" y="594" on="0"/>
        <pt x="330" y="620" on="1"/>
      </contour>
    </TTGlyph>
    <TTGlyph name="Lcommaaccent" xMin="80" yMin="-317" xMax="441" yMax="630">
      <contour>
        <pt x="80" y="630" on="1"/>
        <pt x="172" y="630" on="1"/>
        <pt x="172" y="78" on="1"/>
        <pt x="441" y="78" on="1"/>
        <pt x="441" y="0" on="1"/>
        <pt x="80" y="0" on="1"/>
      </contour>
      <contour>
        <pt x="247" y="-182" on="1"/>
        <pt x="232" y="-179" on="0"/>
        <pt x="197" y="-150" on="0"/>
        <pt x="197" y="-124" on="1"/>
        <pt x="197" y="-100" on="0"/>
        <pt x="228" y="-65" on="0"/>
        <pt x="256" y="-65" on="1"/>
        <pt x="268" y="-65" on="0"/>
        <pt x="292" y="-75" on="0"/>
        <pt x="313" y="-96" on="0"/>
        <pt x="326" y="-129" on="0"/>
        <pt x="326" y="-153" on="1"/>
        <pt x="326" y="-176" on="0"/>
        <pt x="310" y="-223" on="0"/>
        <pt x="280" y="-267" on="0"/>
        <pt x="240" y="-304" on="0"/>
        <pt x="216" y="-317" on="1"/>
        <pt x="191" y="-282" on="1"/>
        <pt x="219" y="-265" on="0"/>
        <pt x="263" y="-212" on="0"/>
        <pt x="265" y="-186" on="1"/>
      </contour>
    </TTGlyph>
    <TTGlyph name="Ldot" xMin="80" yMin="0" xMax="441" yMax="630">
      <contour>
        <pt x="80" y="630" on="1"/>
        <pt x="172" y="630" on="1"/>
        <pt x="172" y="78" on="1"/>
        <pt x="441" y="78" on="1"/>
        <pt x="441" y="0" on="1"/>
        <pt x="80" y="0" on="1"/>
      </contour>
      <contour>
        <pt x="254" y="331" on="1"/>
        <pt x="254" y="357" on="0"/>
        <pt x="288" y="394" on="0"/>
        <pt x="314" y="394" on="1"/>
        <pt x="337" y="394" on="0"/>
        <pt x="371" y="357" on="0"/>
        <pt x="371" y="331" on="1"/>
        <pt x="371" y="306" on="0"/>
        <pt x="337" y="269" on="0"/>
        <pt x="314" y="269" on="1"/>
        <pt x="288" y="269" on="0"/>
        <pt x="254" y="306" on="0"/>
      </contour>
    </TTGlyph>
    <TTGlyph name="Lslash" xMin="-29" yMin="0" xMax="441" yMax="630">
      <contour>
        <pt x="307" y="491" on="1"/>
        <pt x="340" y="451" on="1"/>
        <pt x="172" y="310" on="1"/>
        <pt x="172" y="78" on="1"/>
        <pt x="441" y="78" on="1"/>
        <pt x="441" y="0" on="1"/>
        <pt x="80" y="0" on="1"/>
        <pt x="80" y="249" on="1"/>
        <pt x="4" y="186" on="1"/>
        <pt x="-29" y="226" on="1"/>
        <pt x="80" y="317" on="1"/>
        <pt x="80" y="630" on="1"/>
        <pt x="172" y="630" on="1"/>
        <pt x="172" y="378" on="1"/>
      </contour>
    </TTGlyph>
    <TTGlyph name="Lsmall" xMin="80" yMin="0" xMax="384" yMax="470">
      <contour>
        <pt x="80" y="470" on="1"/>
        <pt x="168" y="470" on="1"/>
        <pt x="168" y="72" on="1"/>
        <pt x="384" y="72" on="1"/>
        <pt x="384" y="0" on="1"/>
        <pt x="80" y="0" on="1"/>
      </contour>
    </TTGlyph>
    <TTGlyph name="M" xMin="64" yMin="0" xMax="747" yMax="630">
      <contour>
        <pt x="117" y="630" on="1"/>
        <pt x="237" y="630" on="1"/>
        <pt x="369" y="228" on="1"/>
        <pt x="379" y="199" on="0"/>
        <pt x="397" y="144" on="0"/>
        <pt x="405" y="116" on="1"/>
        <pt x="407" y="116" on="1"/>
        <pt x="415" y="144" on="0"/>
        <pt x="432" y="196" on="0"/>
        <pt x="443" y="228" on="1"/>
        <pt x="572" y="630" on="1"/>
        <pt x="692" y="630" on="1"/>
        <pt x="747" y="0" on="1"/>
        <pt x="655" y="0" on="1"/>
        <pt x="629" y="334" on="1"/>
        <pt x="625" y="383" on="0"/>
        <pt x="621" y="480" on="0"/>
        <pt x="619" y="530" on="1"/>
        <pt x="617" y="530" on="1"/>
        <pt x="603" y="481" on="0"/>
        <pt x="574" y="383" on="0"/>
        <pt x="558" y="334" on="1"/>
        <pt x="447" y="0" on="1"/>
        <pt x="363" y="0" on="1"/>
        <pt x="252" y="335" on="1"/>
        <pt x="235" y="386" on="0"/>
        <pt x="207" y="479" on="0"/>
        <pt x="193" y="530" on="1"/>
        <pt x="191" y="530" on="1"/>
        <pt x="189" y="481" on="0"/>
        <pt x="182" y="383" on="0"/>
        <pt x="178" y="334" on="1"/>
        <pt x="154" y="0" on="1"/>
        <pt x="64" y="0" on="1"/>
      </contour>
    </TTGlyph>
    <TTGlyph name="Macron" xMin="30" yMin="710" xMax="275" yMax="772">
      <contour>
        <pt x="275" y="772" on="1"/>
        <pt x="275" y="710" on="1"/>
        <pt x="30" y="710" on="1"/>
        <pt x="30" y="772" on="1"/>
      </contour>
    </TTGlyph>
    <TTGlyph name="Msmall" xMin="60" yMin="0" xMax="608" yMax="470">
      <contour>
        <pt x="100" y="470" on="1"/>
        <pt x="208" y="470" on="1"/>
        <pt x="307" y="171" on="1"/>
        <pt x="314" y="149" on="0"/>
        <pt x="328" y="103" on="0"/>
        <pt x="334" y="83" on="1"/>
        <pt x="335" y="83" on="1"/>
        <pt x="341" y="104" on="0"/>
        <pt x="354" y="147" on="0"/>
        <pt x="362" y="171" on="1"/>
        <pt x="459" y="470" on="1"/>
        <pt x="567" y="470" on="1"/>
        <pt x="608" y="0" on="1"/>
        <pt x="521" y="0" on="1"/>
        <pt x="502" y="250" on="1"/>
        <pt x="500" y="277" on="0"/>
        <pt x="496" y="347" on="0"/>
        <pt x="495" y="385" on="1"/>
        <pt x="493" y="385" on="1"/>
        <pt x="490" y="367" on="0"/>
        <pt x="480" y="327" on="0"/>
        <pt x="471" y="291" on="0"/>
        <pt x="461" y="260" on="0"/>
        <pt x="458" y="250" on="1"/>
        <pt x="375" y="0" on="1"/>
        <pt x="292" y="0" on="1"/>
        <pt x="209" y="251" on="1"/>
        <pt x="198" y="282" on="0"/>
        <pt x="178" y="350" on="0"/>
        <pt x="171" y="385" on="1"/>
        <pt x="169" y="385" on="1"/>
        <pt x="169" y="350" on="0"/>
        <pt x="165" y="279" on="0"/>
        <pt x="163" y="250" on="1"/>
        <pt x="145" y="0" on="1"/>
        <pt x="60" y="0" on="1"/>
      </contour>
    </TTGlyph>
    <TTGlyph name="N" xMin="80" yMin="0" xMax="593" yMax="630">
      <contour>
        <pt x="80" y="630" on="1"/>
        <pt x="160" y="630" on="1"/>
        <pt x="447" y="231" on="1"/>
        <pt x="463" y="209" on="0"/>
        <pt x="493" y="163" on="0"/>
        <pt x="505" y="141" on="1"/>
        <pt x="507" y="141" on="1"/>
        <pt x="505" y="176" on="0"/>
        <pt x="503" y="246" on="0"/>
        <pt x="503" y="281" on="1"/>
        <pt x="503" y="630" on="1"/>
        <pt x="593" y="630" on="1"/>
        <pt x="593" y="0" on="1"/>
        <pt x="513" y="0" on="1"/>
        <pt x="229" y="394" on="1"/>
        <pt x="214" y="415" on="0"/>
        <pt x="182" y="468" on="0"/>
        <pt x="168" y="494" on="1"/>
        <pt x="166" y="494" on="1"/>
        <pt x="168" y="452" on="0"/>
        <pt x="170" y="368" on="0"/>
        <pt x="170" y="326" on="1"/>
        <pt x="170" y="0" on="1"/>
        <pt x="80" y="0" on="1"/>
      </contour>
    </TTGlyph>
    <TTGlyph name="Nacute" xMin="80" yMin="0" xMax="593" yMax="834">
      <contour>
        <pt x="349" y="710" on="1"/>
        <pt x="277" y="710" on="1"/>
        <pt x="357" y="834" on="1"/>
        <pt x="460" y="834" on="1"/>
      </contour>
      <contour>
        <pt x="80" y="630" on="1"/>
        <pt x="160" y="630" on="1"/>
        <pt x="447" y="231" on="1"/>
        <pt x="463" y="209" on="0"/>
        <pt x="493" y="163" on="0"/>
        <pt x="505" y="141" on="1"/>
        <pt x="507" y="141" on="1"/>
        <pt x="505" y="176" on="0"/>
        <pt x="503" y="246" on="0"/>
        <pt x="503" y="281" on="1"/>
        <pt x="503" y="630" on="1"/>
        <pt x="593" y="630" on="1"/>
        <pt x="593" y="0" on="1"/>
        <pt x="513" y="0" on="1"/>
        <pt x="229" y="394" on="1"/>
        <pt x="214" y="415" on="0"/>
        <pt x="182" y="468" on="0"/>
        <pt x="168" y="494" on="1"/>
        <pt x="166" y="494" on="1"/>
        <pt x="168" y="452" on="0"/>
        <pt x="170" y="368" on="0"/>
        <pt x="170" y="326" on="1"/>
        <pt x="170" y="0" on="1"/>
        <pt x="80" y="0" on="1"/>
      </contour>
    </TTGlyph>
    <TTGlyph name="Ncaron" xMin="80" yMin="0" xMax="593" yMax="845">
      <contour>
        <pt x="191" y="845" on="1"/>
        <pt x="271" y="845" on="1"/>
        <pt x="349" y="758" on="1"/>
        <pt x="428" y="845" on="1"/>
        <pt x="507" y="845" on="1"/>
        <pt x="382" y="711" on="1"/>
        <pt x="313" y="711" on="1"/>
      </contour>
      <contour>
        <pt x="80" y="630" on="1"/>
        <pt x="160" y="630" on="1"/>
        <pt x="447" y="231" on="1"/>
        <pt x="463" y="209" on="0"/>
        <pt x="493" y="163" on="0"/>
        <pt x="505" y="141" on="1"/>
        <pt x="507" y="141" on="1"/>
        <pt x="505" y="176" on="0"/>
        <pt x="503" y="246" on="0"/>
        <pt x="503" y="281" on="1"/>
        <pt x="503" y="630" on="1"/>
        <pt x="593" y="630" on="1"/>
        <pt x="593" y="0" on="1"/>
        <pt x="513" y="0" on="1"/>
        <pt x="229" y="394" on="1"/>
        <pt x="214" y="415" on="0"/>
        <pt x="182" y="468" on="0"/>
        <pt x="168" y="494" on="1"/>
        <pt x="166" y="494" on="1"/>
        <pt x="168" y="452" on="0"/>
        <pt x="170" y="368" on="0"/>
        <pt x="170" y="326" on="1"/>
        <pt x="170" y="0" on="1"/>
        <pt x="80" y="0" on="1"/>
      </contour>
    </TTGlyph>
    <TTGlyph name="Ncommaaccent" xMin="80" yMin="-317" xMax="593" yMax="630">
      <contour>
        <pt x="322" y="-182" on="1"/>
        <pt x="307" y="-179" on="0"/>
        <pt x="272" y="-150" on="0"/>
        <pt x="272" y="-124" on="1"/>
        <pt x="272" y="-100" on="0"/>
        <pt x="303" y="-65" on="0"/>
        <pt x="331" y="-65" on="1"/>
        <pt x="343" y="-65" on="0"/>
        <pt x="367" y="-75" on="0"/>
        <pt x="388" y="-96" on="0"/>
        <pt x="401" y="-129" on="0"/>
        <pt x="401" y="-153" on="1"/>
        <pt x="401" y="-176" on="0"/>
        <pt x="385" y="-223" on="0"/>
        <pt x="355" y="-267" on="0"/>
        <pt x="315" y="-304" on="0"/>
        <pt x="291" y="-317" on="1"/>
        <pt x="266" y="-282" on="1"/>
        <pt x="294" y="-265" on="0"/>
        <pt x="338" y="-212" on="0"/>
        <pt x="340" y="-186" on="1"/>
      </contour>
      <contour>
        <pt x="80" y="630" on="1"/>
        <pt x="160" y="630" on="1"/>
        <pt x="447" y="231" on="1"/>
        <pt x="463" y="209" on="0"/>
        <pt x="493" y="163" on="0"/>
        <pt x="505" y="141" on="1"/>
        <pt x="507" y="141" on="1"/>
        <pt x="505" y="176" on="0"/>
        <pt x="503" y="246" on="0"/>
        <pt x="503" y="281" on="1"/>
        <pt x="503" y="630" on="1"/>
        <pt x="593" y="630" on="1"/>
        <pt x="593" y="0" on="1"/>
        <pt x="513" y="0" on="1"/>
        <pt x="229" y="394" on="1"/>
        <pt x="214" y="415" on="0"/>
        <pt x="182" y="468" on="0"/>
        <pt x="168" y="494" on="1"/>
        <pt x="166" y="494" on="1"/>
        <pt x="168" y="452" on="0"/>
        <pt x="170" y="368" on="0"/>
        <pt x="170" y="326" on="1"/>
        <pt x="170" y="0" on="1"/>
        <pt x="80" y="0" on="1"/>
      </contour>
    </TTGlyph>
    <TTGlyph name="Nsmall" xMin="80" yMin="0" xMax="482" yMax="470">
      <contour>
        <pt x="80" y="470" on="1"/>
        <pt x="159" y="470" on="1"/>
        <pt x="344" y="217" on="1"/>
        <pt x="351" y="207" on="0"/>
        <pt x="367" y="182" on="0"/>
        <pt x="382" y="156" on="0"/>
        <pt x="395" y="133" on="0"/>
        <pt x="398" y="126" on="1"/>
        <pt x="400" y="126" on="1"/>
        <pt x="398" y="160" on="0"/>
        <pt x="396" y="223" on="0"/>
        <pt x="396" y="251" on="1"/>
        <pt x="396" y="470" on="1"/>
        <pt x="482" y="470" on="1"/>
        <pt x="482" y="0" on="1"/>
        <pt x="404" y="0" on="1"/>
        <pt x="217" y="259" on="1"/>
        <pt x="202" y="282" on="0"/>
        <pt x="175" y="325" on="0"/>
        <pt x="165" y="348" on="1"/>
        <pt x="163" y="348" on="1"/>
        <pt x="165" y="312" on="0"/>
        <pt x="166" y="240" on="0"/>
        <pt x="166" y="204" on="1"/>
        <pt x="166" y="0" on="1"/>
        <pt x="80" y="0" on="1"/>
      </contour>
    </TTGlyph>
    <TTGlyph name="Ntilde" xMin="80" yMin="0" xMax="583" yMax="823">
      <contour>
        <pt x="80" y="630" on="1"/>
        <pt x="220" y="630" on="1"/>
        <pt x="431" y="216" on="1"/>
        <pt x="491" y="86" on="1"/>
        <pt x="494" y="86" on="1"/>
        <pt x="493" y="236" on="1"/>
        <pt x="493" y="630" on="1"/>
        <pt x="583" y="630" on="1"/>
        <pt x="583" y="0" on="1"/>
        <pt x="443" y="0" on="1"/>
        <pt x="239" y="396" on="1"/>
        <pt x="172" y="549" on="1"/>
        <pt x="169" y="549" on="1"/>
        <pt x="170" y="376" on="1"/>
        <pt x="170" y="0" on="1"/>
        <pt x="80" y="0" on="1"/>
      </contour>
      <contour>
        <pt x="198" y="710" on="1"/>
        <pt x="198" y="756" on="0"/>
        <pt x="239" y="820" on="0"/>
        <pt x="285" y="820" on="1"/>
        <pt x="306" y="820" on="0"/>
        <pt x="339" y="806" on="0"/>
        <pt x="368" y="790" on="0"/>
        <pt x="396" y="776" on="0"/>
        <pt x="412" y="776" on="1"/>
        <pt x="432" y="776" on="0"/>
        <pt x="449" y="806" on="0"/>
        <pt x="451" y="823" on="1"/>
        <pt x="501" y="823" on="1"/>
        <pt x="501" y="802" on="0"/>
        <pt x="491" y="763" on="0"/>
        <pt x="470" y="732" on="0"/>
        <pt x="439" y="713" on="0"/>
        <pt x="418" y="713" on="1"/>
        <pt x="397" y="713" on="0"/>
        <pt x="360" y="726" on="0"/>
        <pt x="328" y="743" on="0"/>
        <pt x="300" y="756" on="0"/>
        <pt x="288" y="756" on="1"/>
        <pt x="267" y="756" on="0"/>
        <pt x="250" y="730" on="0"/>
        <pt x="248" y="710" on="1"/>
      </contour>
    </TTGlyph>
    <TTGlyph name="O" xMin="46" yMin="-9" xMax="640" yMax="639">
      <contour>
        <pt x="345" y="639" on="1"/>
        <pt x="409" y="639" on="0"/>
        <pt x="517" y="598" on="0"/>
        <pt x="596" y="517" on="0"/>
        <pt x="640" y="396" on="0"/>
        <pt x="640" y="315" on="1"/>
        <pt x="640" y="236" on="0"/>
        <pt x="594" y="115" on="0"/>
        <pt x="514" y="33" on="0"/>
        <pt x="405" y="-9" on="0"/>
        <pt x="341" y="-9" on="1"/>
        <pt x="277" y="-9" on="0"/>
        <pt x="169" y="32" on="0"/>
        <pt x="90" y="113" on="0"/>
        <pt x="46" y="234" on="0"/>
        <pt x="46" y="315" on="1"/>
        <pt x="46" y="394" on="0"/>
        <pt x="92" y="515" on="0"/>
        <pt x="172" y="597" on="0"/>
        <pt x="281" y="639" on="0"/>
      </contour>
      <contour>
        <pt x="146" y="315" on="1"/>
        <pt x="146" y="251" on="0"/>
        <pt x="177" y="157" on="0"/>
        <pt x="231" y="95" on="0"/>
        <pt x="304" y="65" on="0"/>
        <pt x="345" y="65" on="1"/>
        <pt x="386" y="65" on="0"/>
        <pt x="457" y="95" on="0"/>
        <pt x="510" y="157" on="0"/>
        <pt x="540" y="251" on="0"/>
        <pt x="540" y="315" on="1"/>
        <pt x="540" y="381" on="0"/>
        <pt x="509" y="475" on="0"/>
        <pt x="455" y="536" on="0"/>
        <pt x="382" y="565" on="0"/>
        <pt x="341" y="565" on="1"/>
        <pt x="300" y="565" on="0"/>
        <pt x="228" y="535" on="0"/>
        <pt x="176" y="473" on="0"/>
        <pt x="146" y="379" on="0"/>
      </contour>
    </TTGlyph>
    <TTGlyph name="OE" xMin="46" yMin="-9" xMax="797" yMax="639">
      <contour>
        <pt x="336" y="-9" on="1"/>
        <pt x="275" y="-9" on="0"/>
        <pt x="169" y="30" on="0"/>
        <pt x="91" y="110" on="0"/>
        <pt x="46" y="233" on="0"/>
        <pt x="46" y="317" on="1"/>
        <pt x="46" y="396" on="0"/>
        <pt x="91" y="516" on="0"/>
        <pt x="169" y="597" on="0"/>
        <pt x="275" y="639" on="0"/>
        <pt x="336" y="639" on="1"/>
        <pt x="357" y="639" on="0"/>
        <pt x="407" y="635" on="0"/>
        <pt x="426" y="630" on="1"/>
        <pt x="794" y="630" on="1"/>
        <pt x="794" y="554" on="1"/>
        <pt x="516" y="554" on="1"/>
        <pt x="516" y="365" on="1"/>
        <pt x="768" y="365" on="1"/>
        <pt x="768" y="290" on="1"/>
        <pt x="516" y="290" on="1"/>
        <pt x="516" y="76" on="1"/>
        <pt x="797" y="76" on="1"/>
        <pt x="797" y="0" on="1"/>
        <pt x="422" y="0" on="1"/>
        <pt x="402" y="-5" on="0"/>
        <pt x="355" y="-9" on="0"/>
      </contour>
      <contour>
        <pt x="341" y="565" on="1"/>
        <pt x="251" y="565" on="0"/>
        <pt x="146" y="446" on="0"/>
        <pt x="146" y="319" on="1"/>
        <pt x="146" y="191" on="0"/>
        <pt x="249" y="65" on="0"/>
        <pt x="340" y="65" on="1"/>
        <pt x="361" y="65" on="0"/>
        <pt x="406" y="75" on="0"/>
        <pt x="424" y="84" on="1"/>
        <pt x="424" y="550" on="1"/>
        <pt x="386" y="565" on="0"/>
      </contour>
    </TTGlyph>
    <TTGlyph name="Oacute" xMin="46" yMin="-9" xMax="640" yMax="834">
      <contour>
        <pt x="345" y="639" on="1"/>
        <pt x="409" y="639" on="0"/>
        <pt x="517" y="598" on="0"/>
        <pt x="596" y="517" on="0"/>
        <pt x="640" y="396" on="0"/>
        <pt x="640" y="315" on="1"/>
        <pt x="640" y="236" on="0"/>
        <pt x="594" y="115" on="0"/>
        <pt x="514" y="33" on="0"/>
        <pt x="405" y="-9" on="0"/>
        <pt x="341" y="-9" on="1"/>
        <pt x="277" y="-9" on="0"/>
        <pt x="169" y="32" on="0"/>
        <pt x="90" y="113" on="0"/>
        <pt x="46" y="234" on="0"/>
        <pt x="46" y="315" on="1"/>
        <pt x="46" y="394" on="0"/>
        <pt x="92" y="515" on="0"/>
        <pt x="172" y="597" on="0"/>
        <pt x="281" y="639" on="0"/>
      </contour>
      <contour>
        <pt x="146" y="315" on="1"/>
        <pt x="146" y="251" on="0"/>
        <pt x="177" y="157" on="0"/>
        <pt x="231" y="95" on="0"/>
        <pt x="304" y="65" on="0"/>
        <pt x="345" y="65" on="1"/>
        <pt x="386" y="65" on="0"/>
        <pt x="457" y="95" on="0"/>
        <pt x="510" y="157" on="0"/>
        <pt x="540" y="251" on="0"/>
        <pt x="540" y="315" on="1"/>
        <pt x="540" y="381" on="0"/>
        <pt x="509" y="475" on="0"/>
        <pt x="455" y="536" on="0"/>
        <pt x="382" y="565" on="0"/>
        <pt x="341" y="565" on="1"/>
        <pt x="300" y="565" on="0"/>
        <pt x="228" y="535" on="0"/>
        <pt x="176" y="473" on="0"/>
        <pt x="146" y="379" on="0"/>
      </contour>
      <contour>
        <pt x="334" y="710" on="1"/>
        <pt x="262" y="710" on="1"/>
        <pt x="342" y="834" on="1"/>
        <pt x="445" y="834" on="1"/>
      </contour>
    </TTGlyph>
    <TTGlyph name="Obreve" xMin="46" yMin="-9" xMax="640" yMax="834">
      <contour>
        <pt x="345" y="639" on="1"/>
        <pt x="409" y="639" on="0"/>
        <pt x="517" y="598" on="0"/>
        <pt x="596" y="517" on="0"/>
        <pt x="640" y="396" on="0"/>
        <pt x="640" y="315" on="1"/>
        <pt x="640" y="236" on="0"/>
        <pt x="594" y="115" on="0"/>
        <pt x="514" y="33" on="0"/>
        <pt x="405" y="-9" on="0"/>
        <pt x="341" y="-9" on="1"/>
        <pt x="277" y="-9" on="0"/>
        <pt x="169" y="32" on="0"/>
        <pt x="90" y="113" on="0"/>
        <pt x="46" y="234" on="0"/>
        <pt x="46" y="315" on="1"/>
        <pt x="46" y="394" on="0"/>
        <pt x="92" y="515" on="0"/>
        <pt x="172" y="597" on="0"/>
        <pt x="281" y="639" on="0"/>
      </contour>
      <contour>
        <pt x="146" y="315" on="1"/>
        <pt x="146" y="251" on="0"/>
        <pt x="177" y="157" on="0"/>
        <pt x="231" y="95" on="0"/>
        <pt x="304" y="65" on="0"/>
        <pt x="345" y="65" on="1"/>
        <pt x="386" y="65" on="0"/>
        <pt x="457" y="95" on="0"/>
        <pt x="510" y="157" on="0"/>
        <pt x="540" y="251" on="0"/>
        <pt x="540" y="315" on="1"/>
        <pt x="540" y="381" on="0"/>
        <pt x="509" y="475" on="0"/>
        <pt x="455" y="536" on="0"/>
        <pt x="382" y="565" on="0"/>
        <pt x="341" y="565" on="1"/>
        <pt x="300" y="565" on="0"/>
        <pt x="228" y="535" on="0"/>
        <pt x="176" y="473" on="0"/>
        <pt x="146" y="379" on="0"/>
      </contour>
      <contour>
        <pt x="270" y="834" on="1"/>
        <pt x="274" y="802" on="0"/>
        <pt x="301" y="764" on="0"/>
        <pt x="342" y="764" on="1"/>
        <pt x="377" y="764" on="0"/>
        <pt x="410" y="800" on="0"/>
        <pt x="414" y="834" on="1"/>
        <pt x="476" y="834" on="1"/>
        <pt x="476" y="780" on="0"/>
        <pt x="407" y="710" on="0"/>
        <pt x="342" y="710" on="1"/>
        <pt x="306" y="710" on="0"/>
        <pt x="255" y="731" on="0"/>
        <pt x="222" y="766" on="0"/>
        <pt x="207" y="811" on="0"/>
        <pt x="207" y="834" on="1"/>
      </contour>
    </TTGlyph>
    <TTGlyph name="Ocircumflex" xMin="46" yMin="-9" xMax="640" yMax="844">
      <contour>
        <pt x="345" y="639" on="1"/>
        <pt x="409" y="639" on="0"/>
        <pt x="517" y="598" on="0"/>
        <pt x="596" y="517" on="0"/>
        <pt x="640" y="396" on="0"/>
        <pt x="640" y="315" on="1"/>
        <pt x="640" y="236" on="0"/>
        <pt x="594" y="115" on="0"/>
        <pt x="514" y="33" on="0"/>
        <pt x="405" y="-9" on="0"/>
        <pt x="341" y="-9" on="1"/>
        <pt x="277" y="-9" on="0"/>
        <pt x="169" y="32" on="0"/>
        <pt x="90" y="113" on="0"/>
        <pt x="46" y="234" on="0"/>
        <pt x="46" y="315" on="1"/>
        <pt x="46" y="394" on="0"/>
        <pt x="92" y="515" on="0"/>
        <pt x="172" y="597" on="0"/>
        <pt x="281" y="639" on="0"/>
      </contour>
      <contour>
        <pt x="146" y="315" on="1"/>
        <pt x="146" y="251" on="0"/>
        <pt x="177" y="157" on="0"/>
        <pt x="231" y="95" on="0"/>
        <pt x="304" y="65" on="0"/>
        <pt x="345" y="65" on="1"/>
        <pt x="386" y="65" on="0"/>
        <pt x="457" y="95" on="0"/>
        <pt x="510" y="157" on="0"/>
        <pt x="540" y="251" on="0"/>
        <pt x="540" y="315" on="1"/>
        <pt x="540" y="381" on="0"/>
        <pt x="509" y="475" on="0"/>
        <pt x="455" y="536" on="0"/>
        <pt x="382" y="565" on="0"/>
        <pt x="341" y="565" on="1"/>
        <pt x="300" y="565" on="0"/>
        <pt x="228" y="535" on="0"/>
        <pt x="176" y="473" on="0"/>
        <pt x="146" y="379" on="0"/>
      </contour>
      <contour>
        <pt x="309" y="844" on="1"/>
        <pt x="378" y="844" on="1"/>
        <pt x="503" y="710" on="1"/>
        <pt x="423" y="710" on="1"/>
        <pt x="343" y="794" on="1"/>
        <pt x="263" y="710" on="1"/>
        <pt x="187" y="710" on="1"/>
      </contour>
    </TTGlyph>
    <TTGlyph name="Odieresis" xMin="46" yMin="-9" xMax="640" yMax="810">
      <contour>
        <pt x="345" y="639" on="1"/>
        <pt x="409" y="639" on="0"/>
        <pt x="517" y="598" on="0"/>
        <pt x="596" y="517" on="0"/>
        <pt x="640" y="396" on="0"/>
        <pt x="640" y="315" on="1"/>
        <pt x="640" y="236" on="0"/>
        <pt x="594" y="115" on="0"/>
        <pt x="514" y="33" on="0"/>
        <pt x="405" y="-9" on="0"/>
        <pt x="341" y="-9" on="1"/>
        <pt x="277" y="-9" on="0"/>
        <pt x="169" y="32" on="0"/>
        <pt x="90" y="113" on="0"/>
        <pt x="46" y="234" on="0"/>
        <pt x="46" y="315" on="1"/>
        <pt x="46" y="394" on="0"/>
        <pt x="92" y="515" on="0"/>
        <pt x="172" y="597" on="0"/>
        <pt x="281" y="639" on="0"/>
      </contour>
      <contour>
        <pt x="146" y="315" on="1"/>
        <pt x="146" y="251" on="0"/>
        <pt x="177" y="157" on="0"/>
        <pt x="231" y="95" on="0"/>
        <pt x="304" y="65" on="0"/>
        <pt x="345" y="65" on="1"/>
        <pt x="386" y="65" on="0"/>
        <pt x="457" y="95" on="0"/>
        <pt x="510" y="157" on="0"/>
        <pt x="540" y="251" on="0"/>
        <pt x="540" y="315" on="1"/>
        <pt x="540" y="381" on="0"/>
        <pt x="509" y="475" on="0"/>
        <pt x="455" y="536" on="0"/>
        <pt x="382" y="565" on="0"/>
        <pt x="341" y="565" on="1"/>
        <pt x="300" y="565" on="0"/>
        <pt x="228" y="535" on="0"/>
        <pt x="176" y="473" on="0"/>
        <pt x="146" y="379" on="0"/>
      </contour>
      <contour>
        <pt x="209" y="761" on="1"/>
        <pt x="209" y="780" on="0"/>
        <pt x="239" y="810" on="0"/>
        <pt x="259" y="810" on="1"/>
        <pt x="279" y="810" on="0"/>
        <pt x="309" y="780" on="0"/>
        <pt x="309" y="761" on="1"/>
        <pt x="309" y="741" on="0"/>
        <pt x="279" y="710" on="0"/>
        <pt x="259" y="710" on="1"/>
        <pt x="239" y="710" on="0"/>
        <pt x="209" y="741" on="0"/>
      </contour>
      <contour>
        <pt x="375" y="761" on="1"/>
        <pt x="375" y="780" on="0"/>
        <pt x="405" y="810" on="0"/>
        <pt x="425" y="810" on="1"/>
        <pt x="445" y="810" on="0"/>
        <pt x="475" y="780" on="0"/>
        <pt x="475" y="761" on="1"/>
        <pt x="475" y="741" on="0"/>
        <pt x="445" y="710" on="0"/>
        <pt x="425" y="710" on="1"/>
        <pt x="405" y="710" on="0"/>
        <pt x="375" y="741" on="0"/>
      </contour>
    </TTGlyph>
    <TTGlyph name="Ogonek" xMin="25" yMin="-206" xMax="212" yMax="0">
      <contour>
        <pt x="195" y="0" on="1"/>
        <pt x="150" y="-22" on="0"/>
        <pt x="94" y="-64" on="0"/>
        <pt x="94" y="-95" on="1"/>
        <pt x="94" y="-119" on="0"/>
        <pt x="125" y="-146" on="0"/>
        <pt x="149" y="-146" on="1"/>
        <pt x="178" y="-146" on="0"/>
        <pt x="199" y="-138" on="1"/>
        <pt x="212" y="-185" on="1"/>
        <pt x="177" y="-206" on="0"/>
        <pt x="132" y="-206" on="1"/>
        <pt x="86" y="-206" on="0"/>
        <pt x="25" y="-156" on="0"/>
        <pt x="25" y="-109" on="1"/>
        <pt x="25" y="-90" on="0"/>
        <pt x="40" y="-56" on="0"/>
        <pt x="63" y="-28" on="0"/>
        <pt x="92" y="-7" on="0"/>
        <pt x="107" y="0" on="1"/>
      </contour>
    </TTGlyph>
    <TTGlyph name="Ograve" xMin="46" yMin="-9" xMax="640" yMax="834">
      <contour>
        <pt x="345" y="639" on="1"/>
        <pt x="409" y="639" on="0"/>
        <pt x="517" y="598" on="0"/>
        <pt x="596" y="517" on="0"/>
        <pt x="640" y="396" on="0"/>
        <pt x="640" y="315" on="1"/>
        <pt x="640" y="236" on="0"/>
        <pt x="594" y="115" on="0"/>
        <pt x="514" y="33" on="0"/>
        <pt x="405" y="-9" on="0"/>
        <pt x="341" y="-9" on="1"/>
        <pt x="277" y="-9" on="0"/>
        <pt x="169" y="32" on="0"/>
        <pt x="90" y="113" on="0"/>
        <pt x="46" y="234" on="0"/>
        <pt x="46" y="315" on="1"/>
        <pt x="46" y="394" on="0"/>
        <pt x="92" y="515" on="0"/>
        <pt x="172" y="597" on="0"/>
        <pt x="281" y="639" on="0"/>
      </contour>
      <contour>
        <pt x="146" y="315" on="1"/>
        <pt x="146" y="251" on="0"/>
        <pt x="177" y="157" on="0"/>
        <pt x="231" y="95" on="0"/>
        <pt x="304" y="65" on="0"/>
        <pt x="345" y="65" on="1"/>
        <pt x="386" y="65" on="0"/>
        <pt x="457" y="95" on="0"/>
        <pt x="510" y="157" on="0"/>
        <pt x="540" y="251" on="0"/>
        <pt x="540" y="315" on="1"/>
        <pt x="540" y="381" on="0"/>
        <pt x="509" y="475" on="0"/>
        <pt x="455" y="536" on="0"/>
        <pt x="382" y="565" on="0"/>
        <pt x="341" y="565" on="1"/>
        <pt x="300" y="565" on="0"/>
        <pt x="228" y="535" on="0"/>
        <pt x="176" y="473" on="0"/>
        <pt x="146" y="379" on="0"/>
      </contour>
      <contour>
        <pt x="230" y="834" on="1"/>
        <pt x="333" y="834" on="1"/>
        <pt x="413" y="710" on="1"/>
        <pt x="341" y="710" on="1"/>
      </contour>
    </TTGlyph>
    <TTGlyph name="Ohungarumlaut" xMin="46" yMin="-9" xMax="640" yMax="835">
      <contour>
        <pt x="378" y="710" on="1"/>
        <pt x="458" y="835" on="1"/>
        <pt x="556" y="835" on="1"/>
        <pt x="450" y="710" on="1"/>
      </contour>
      <contour>
        <pt x="192" y="710" on="1"/>
        <pt x="272" y="835" on="1"/>
        <pt x="370" y="835" on="1"/>
        <pt x="264" y="710" on="1"/>
      </contour>
      <contour>
        <pt x="146" y="315" on="1"/>
        <pt x="146" y="251" on="0"/>
        <pt x="177" y="157" on="0"/>
        <pt x="231" y="95" on="0"/>
        <pt x="304" y="65" on="0"/>
        <pt x="345" y="65" on="1"/>
        <pt x="386" y="65" on="0"/>
        <pt x="457" y="95" on="0"/>
        <pt x="510" y="157" on="0"/>
        <pt x="540" y="251" on="0"/>
        <pt x="540" y="315" on="1"/>
        <pt x="540" y="381" on="0"/>
        <pt x="509" y="475" on="0"/>
        <pt x="455" y="536" on="0"/>
        <pt x="382" y="565" on="0"/>
        <pt x="341" y="565" on="1"/>
        <pt x="300" y="565" on="0"/>
        <pt x="228" y="535" on="0"/>
        <pt x="176" y="473" on="0"/>
        <pt x="146" y="379" on="0"/>
      </contour>
      <contour>
        <pt x="345" y="639" on="1"/>
        <pt x="409" y="639" on="0"/>
        <pt x="517" y="598" on="0"/>
        <pt x="596" y="517" on="0"/>
        <pt x="640" y="396" on="0"/>
        <pt x="640" y="315" on="1"/>
        <pt x="640" y="236" on="0"/>
        <pt x="594" y="115" on="0"/>
        <pt x="514" y="33" on="0"/>
        <pt x="405" y="-9" on="0"/>
        <pt x="341" y="-9" on="1"/>
        <pt x="277" y="-9" on="0"/>
        <pt x="169" y="32" on="0"/>
        <pt x="90" y="113" on="0"/>
        <pt x="46" y="234" on="0"/>
        <pt x="46" y="315" on="1"/>
        <pt x="46" y="394" on="0"/>
        <pt x="92" y="515" on="0"/>
        <pt x="172" y="597" on="0"/>
        <pt x="281" y="639" on="0"/>
      </contour>
    </TTGlyph>
    <TTGlyph name="Omacron" xMin="46" yMin="-9" xMax="640" yMax="772">
      <contour>
        <pt x="345" y="639" on="1"/>
        <pt x="409" y="639" on="0"/>
        <pt x="517" y="598" on="0"/>
        <pt x="596" y="517" on="0"/>
        <pt x="640" y="396" on="0"/>
        <pt x="640" y="315" on="1"/>
        <pt x="640" y="236" on="0"/>
        <pt x="594" y="115" on="0"/>
        <pt x="514" y="33" on="0"/>
        <pt x="405" y="-9" on="0"/>
        <pt x="341" y="-9" on="1"/>
        <pt x="277" y="-9" on="0"/>
        <pt x="169" y="32" on="0"/>
        <pt x="90" y="113" on="0"/>
        <pt x="46" y="234" on="0"/>
        <pt x="46" y="315" on="1"/>
        <pt x="46" y="394" on="0"/>
        <pt x="92" y="515" on="0"/>
        <pt x="172" y="597" on="0"/>
        <pt x="281" y="639" on="0"/>
      </contour>
      <contour>
        <pt x="146" y="315" on="1"/>
        <pt x="146" y="251" on="0"/>
        <pt x="177" y="157" on="0"/>
        <pt x="231" y="95" on="0"/>
        <pt x="304" y="65" on="0"/>
        <pt x="345" y="65" on="1"/>
        <pt x="386" y="65" on="0"/>
        <pt x="457" y="95" on="0"/>
        <pt x="510" y="157" on="0"/>
        <pt x="540" y="251" on="0"/>
        <pt x="540" y="315" on="1"/>
        <pt x="540" y="381" on="0"/>
        <pt x="509" y="475" on="0"/>
        <pt x="455" y="536" on="0"/>
        <pt x="382" y="565" on="0"/>
        <pt x="341" y="565" on="1"/>
        <pt x="300" y="565" on="0"/>
        <pt x="228" y="535" on="0"/>
        <pt x="176" y="473" on="0"/>
        <pt x="146" y="379" on="0"/>
      </contour>
      <contour>
        <pt x="473" y="772" on="1"/>
        <pt x="473" y="710" on="1"/>
        <pt x="228" y="710" on="1"/>
        <pt x="228" y="772" on="1"/>
      </contour>
    </TTGlyph>
    <TTGlyph name="Oslash" xMin="46" yMin="-152" xMax="640" yMax="748">
      <contour>
        <pt x="500" y="748" on="1"/>
        <pt x="540" y="734" on="1"/>
        <pt x="490" y="607" on="1"/>
        <pt x="558" y="571" on="0"/>
        <pt x="640" y="427" on="0"/>
        <pt x="640" y="315" on="1"/>
        <pt x="640" y="236" on="0"/>
        <pt x="594" y="115" on="0"/>
        <pt x="514" y="33" on="0"/>
        <pt x="405" y="-9" on="0"/>
        <pt x="341" y="-9" on="1"/>
        <pt x="315" y="-9" on="0"/>
        <pt x="263" y="-1" on="0"/>
        <pt x="240" y="5" on="1"/>
        <pt x="178" y="-152" on="1"/>
        <pt x="138" y="-135" on="1"/>
        <pt x="199" y="21" on="1"/>
        <pt x="130" y="58" on="0"/>
        <pt x="46" y="201" on="0"/>
        <pt x="46" y="315" on="1"/>
        <pt x="46" y="394" on="0"/>
        <pt x="92" y="515" on="0"/>
        <pt x="172" y="597" on="0"/>
        <pt x="281" y="639" on="0"/>
        <pt x="345" y="639" on="1"/>
        <pt x="371" y="639" on="0"/>
        <pt x="426" y="631" on="0"/>
        <pt x="450" y="622" on="1"/>
      </contour>
      <contour>
        <pt x="146" y="315" on="1"/>
        <pt x="146" y="234" on="0"/>
        <pt x="194" y="127" on="0"/>
        <pt x="235" y="98" on="1"/>
        <pt x="416" y="551" on="1"/>
        <pt x="380" y="565" on="0"/>
        <pt x="341" y="565" on="1"/>
        <pt x="300" y="565" on="0"/>
        <pt x="228" y="535" on="0"/>
        <pt x="176" y="473" on="0"/>
        <pt x="146" y="379" on="0"/>
      </contour>
      <contour>
        <pt x="345" y="65" on="1"/>
        <pt x="386" y="65" on="0"/>
        <pt x="457" y="95" on="0"/>
        <pt x="510" y="157" on="0"/>
        <pt x="540" y="251" on="0"/>
        <pt x="540" y="315" on="1"/>
        <pt x="540" y="396" on="0"/>
        <pt x="493" y="502" on="0"/>
        <pt x="454" y="531" on="1"/>
        <pt x="274" y="77" on="1"/>
        <pt x="307" y="65" on="0"/>
      </contour>
    </TTGlyph>
    <TTGlyph name="Oslashacute" xMin="46" yMin="-152" xMax="640" yMax="834">
      <contour>
        <pt x="324" y="710" on="1"/>
        <pt x="252" y="710" on="1"/>
        <pt x="332" y="834" on="1"/>
        <pt x="435" y="834" on="1"/>
      </contour>
      <contour>
        <pt x="500" y="748" on="1"/>
        <pt x="540" y="734" on="1"/>
        <pt x="490" y="607" on="1"/>
        <pt x="558" y="571" on="0"/>
        <pt x="640" y="427" on="0"/>
        <pt x="640" y="315" on="1"/>
        <pt x="640" y="236" on="0"/>
        <pt x="594" y="115" on="0"/>
        <pt x="514" y="33" on="0"/>
        <pt x="405" y="-9" on="0"/>
        <pt x="341" y="-9" on="1"/>
        <pt x="315" y="-9" on="0"/>
        <pt x="263" y="-1" on="0"/>
        <pt x="240" y="5" on="1"/>
        <pt x="178" y="-152" on="1"/>
        <pt x="138" y="-135" on="1"/>
        <pt x="199" y="21" on="1"/>
        <pt x="130" y="58" on="0"/>
        <pt x="46" y="201" on="0"/>
        <pt x="46" y="315" on="1"/>
        <pt x="46" y="394" on="0"/>
        <pt x="92" y="515" on="0"/>
        <pt x="172" y="597" on="0"/>
        <pt x="281" y="639" on="0"/>
        <pt x="345" y="639" on="1"/>
        <pt x="371" y="639" on="0"/>
        <pt x="426" y="631" on="0"/>
        <pt x="450" y="622" on="1"/>
      </contour>
      <contour>
        <pt x="146" y="315" on="1"/>
        <pt x="146" y="234" on="0"/>
        <pt x="194" y="127" on="0"/>
        <pt x="235" y="98" on="1"/>
        <pt x="416" y="551" on="1"/>
        <pt x="380" y="565" on="0"/>
        <pt x="341" y="565" on="1"/>
        <pt x="300" y="565" on="0"/>
        <pt x="228" y="535" on="0"/>
        <pt x="176" y="473" on="0"/>
        <pt x="146" y="379" on="0"/>
      </contour>
      <contour>
        <pt x="345" y="65" on="1"/>
        <pt x="386" y="65" on="0"/>
        <pt x="457" y="95" on="0"/>
        <pt x="510" y="157" on="0"/>
        <pt x="540" y="251" on="0"/>
        <pt x="540" y="315" on="1"/>
        <pt x="540" y="396" on="0"/>
        <pt x="493" y="502" on="0"/>
        <pt x="454" y="531" on="1"/>
        <pt x="274" y="77" on="1"/>
        <pt x="307" y="65" on="0"/>
      </contour>
    </TTGlyph>
    <TTGlyph name="Osmall" xMin="46" yMin="-9" xMax="506" yMax="477">
      <contour>
        <pt x="506" y="240" on="1"/>
        <pt x="506" y="181" on="0"/>
        <pt x="470" y="88" on="0"/>
        <pt x="407" y="24" on="0"/>
        <pt x="323" y="-9" on="0"/>
        <pt x="274" y="-9" on="1"/>
        <pt x="225" y="-9" on="0"/>
        <pt x="142" y="22" on="0"/>
        <pt x="81" y="83" on="0"/>
        <pt x="46" y="172" on="0"/>
        <pt x="46" y="230" on="1"/>
        <pt x="46" y="289" on="0"/>
        <pt x="82" y="381" on="0"/>
        <pt x="145" y="444" on="0"/>
        <pt x="229" y="477" on="0"/>
        <pt x="278" y="477" on="1"/>
        <pt x="327" y="477" on="0"/>
        <pt x="410" y="447" on="0"/>
        <pt x="471" y="387" on="0"/>
        <pt x="506" y="298" on="0"/>
      </contour>
      <contour>
        <pt x="414" y="235" on="1"/>
        <pt x="414" y="282" on="0"/>
        <pt x="390" y="348" on="0"/>
        <pt x="351" y="390" on="0"/>
        <pt x="301" y="409" on="0"/>
        <pt x="275" y="409" on="1"/>
        <pt x="249" y="409" on="0"/>
        <pt x="199" y="393" on="0"/>
        <pt x="161" y="353" on="0"/>
        <pt x="138" y="286" on="0"/>
        <pt x="138" y="235" on="1"/>
        <pt x="138" y="188" on="0"/>
        <pt x="162" y="121" on="0"/>
        <pt x="201" y="79" on="0"/>
        <pt x="251" y="59" on="0"/>
        <pt x="277" y="59" on="1"/>
        <pt x="303" y="59" on="0"/>
        <pt x="353" y="76" on="0"/>
        <pt x="391" y="117" on="0"/>
        <pt x="414" y="184" on="0"/>
      </contour>
    </TTGlyph>
    <TTGlyph name="Otilde" xMin="46" yMin="-9" xMax="640" yMax="824">
      <contour>
        <pt x="345" y="639" on="1"/>
        <pt x="409" y="639" on="0"/>
        <pt x="517" y="598" on="0"/>
        <pt x="596" y="517" on="0"/>
        <pt x="640" y="396" on="0"/>
        <pt x="640" y="315" on="1"/>
        <pt x="640" y="236" on="0"/>
        <pt x="594" y="115" on="0"/>
        <pt x="514" y="33" on="0"/>
        <pt x="405" y="-9" on="0"/>
        <pt x="341" y="-9" on="1"/>
        <pt x="277" y="-9" on="0"/>
        <pt x="169" y="32" on="0"/>
        <pt x="90" y="113" on="0"/>
        <pt x="46" y="234" on="0"/>
        <pt x="46" y="315" on="1"/>
        <pt x="46" y="394" on="0"/>
        <pt x="92" y="515" on="0"/>
        <pt x="172" y="597" on="0"/>
        <pt x="281" y="639" on="0"/>
      </contour>
      <contour>
        <pt x="146" y="315" on="1"/>
        <pt x="146" y="251" on="0"/>
        <pt x="177" y="157" on="0"/>
        <pt x="231" y="95" on="0"/>
        <pt x="304" y="65" on="0"/>
        <pt x="345" y="65" on="1"/>
        <pt x="386" y="65" on="0"/>
        <pt x="457" y="95" on="0"/>
        <pt x="510" y="157" on="0"/>
        <pt x="540" y="251" on="0"/>
        <pt x="540" y="315" on="1"/>
        <pt x="540" y="381" on="0"/>
        <pt x="509" y="475" on="0"/>
        <pt x="455" y="536" on="0"/>
        <pt x="382" y="565" on="0"/>
        <pt x="341" y="565" on="1"/>
        <pt x="300" y="565" on="0"/>
        <pt x="228" y="535" on="0"/>
        <pt x="176" y="473" on="0"/>
        <pt x="146" y="379" on="0"/>
      </contour>
      <contour>
        <pt x="187" y="711" on="1"/>
        <pt x="187" y="757" on="0"/>
        <pt x="228" y="821" on="0"/>
        <pt x="274" y="821" on="1"/>
        <pt x="295" y="821" on="0"/>
        <pt x="328" y="807" on="0"/>
        <pt x="357" y="791" on="0"/>
        <pt x="385" y="777" on="0"/>
        <pt x="401" y="777" on="1"/>
        <pt x="421" y="777" on="0"/>
        <pt x="438" y="807" on="0"/>
        <pt x="440" y="824" on="1"/>
        <pt x="490" y="824" on="1"/>
        <pt x="490" y="803" on="0"/>
        <pt x="480" y="764" on="0"/>
        <pt x="459" y="733" on="0"/>
        <pt x="428" y="714" on="0"/>
        <pt x="407" y="714" on="1"/>
        <pt x="386" y="714" on="0"/>
        <pt x="349" y="727" on="0"/>
        <pt x="317" y="744" on="0"/>
        <pt x="289" y="757" on="0"/>
        <pt x="277" y="757" on="1"/>
        <pt x="256" y="757" on="0"/>
        <pt x="239" y="731" on="0"/>
        <pt x="237" y="711" on="1"/>
      </contour>
    </TTGlyph>
    <TTGlyph name="P" xMin="80" yMin="0" xMax="497" yMax="630">
      <contour>
        <pt x="80" y="630" on="1"/>
        <pt x="278" y="630" on="1"/>
        <pt x="327" y="630" on="0"/>
        <pt x="407" y="605" on="0"/>
        <pt x="465" y="556" on="0"/>
        <pt x="497" y="485" on="0"/>
        <pt x="497" y="439" on="1"/>
        <pt x="497" y="389" on="0"/>
        <pt x="463" y="316" on="0"/>
        <pt x="401" y="268" on="0"/>
        <pt x="317" y="244" on="0"/>
        <pt x="266" y="244" on="1"/>
        <pt x="172" y="244" on="1"/>
        <pt x="172" y="0" on="1"/>
        <pt x="80" y="0" on="1"/>
      </contour>
      <contour>
        <pt x="172" y="319" on="1"/>
        <pt x="229" y="319" on="1"/>
        <pt x="266" y="319" on="0"/>
        <pt x="330" y="329" on="0"/>
        <pt x="375" y="355" on="0"/>
        <pt x="401" y="402" on="0"/>
        <pt x="401" y="438" on="1"/>
        <pt x="401" y="471" on="0"/>
        <pt x="376" y="516" on="0"/>
        <pt x="336" y="544" on="0"/>
        <pt x="284" y="556" on="0"/>
        <pt x="257" y="556" on="1"/>
        <pt x="172" y="556" on="1"/>
      </contour>
    </TTGlyph>
    <TTGlyph name="Psmall" xMin="81" yMin="0" xMax="427" yMax="470">
      <contour>
        <pt x="81" y="470" on="1"/>
        <pt x="257" y="470" on="1"/>
        <pt x="291" y="470" on="0"/>
        <pt x="353" y="451" on="0"/>
        <pt x="400" y="413" on="0"/>
        <pt x="427" y="359" on="0"/>
        <pt x="427" y="325" on="1"/>
        <pt x="427" y="277" on="0"/>
        <pt x="389" y="217" on="0"/>
        <pt x="330" y="184" on="0"/>
        <pt x="256" y="172" on="0"/>
        <pt x="220" y="172" on="1"/>
        <pt x="169" y="172" on="1"/>
        <pt x="169" y="0" on="1"/>
        <pt x="81" y="0" on="1"/>
      </contour>
      <contour>
        <pt x="168" y="240" on="1"/>
        <pt x="223" y="240" on="1"/>
        <pt x="243" y="240" on="0"/>
        <pt x="284" y="247" on="0"/>
        <pt x="317" y="265" on="0"/>
        <pt x="337" y="297" on="0"/>
        <pt x="337" y="322" on="1"/>
        <pt x="337" y="347" on="0"/>
        <pt x="317" y="378" on="0"/>
        <pt x="286" y="396" on="0"/>
        <pt x="246" y="402" on="0"/>
        <pt x="226" y="402" on="1"/>
        <pt x="168" y="402" on="1"/>
      </contour>
    </TTGlyph>
    <TTGlyph name="Q" xMin="46" yMin="-192" xMax="666" yMax="639">
      <contour>
        <pt x="345" y="639" on="1"/>
        <pt x="409" y="639" on="0"/>
        <pt x="517" y="598" on="0"/>
        <pt x="596" y="517" on="0"/>
        <pt x="640" y="396" on="0"/>
        <pt x="640" y="315" on="1"/>
        <pt x="640" y="210" on="0"/>
        <pt x="554" y="62" on="0"/>
        <pt x="458" y="8" on="1"/>
        <pt x="322" y="-68" on="1"/>
        <pt x="352" y="-68" on="0"/>
        <pt x="403" y="-83" on="0"/>
        <pt x="455" y="-101" on="0"/>
        <pt x="511" y="-116" on="0"/>
        <pt x="545" y="-116" on="1"/>
        <pt x="565" y="-116" on="0"/>
        <pt x="610" y="-103" on="0"/>
        <pt x="630" y="-89" on="1"/>
        <pt x="666" y="-156" on="1"/>
        <pt x="638" y="-174" on="0"/>
        <pt x="571" y="-192" on="0"/>
        <pt x="542" y="-192" on="1"/>
        <pt x="507" y="-192" on="0"/>
        <pt x="438" y="-173" on="0"/>
        <pt x="370" y="-150" on="0"/>
        <pt x="304" y="-131" on="0"/>
        <pt x="271" y="-131" on="1"/>
        <pt x="245" y="-131" on="0"/>
        <pt x="194" y="-147" on="0"/>
        <pt x="168" y="-162" on="1"/>
        <pt x="130" y="-93" on="1"/>
        <pt x="284" y="-4" on="1"/>
        <pt x="231" y="4" on="0"/>
        <pt x="144" y="53" on="0"/>
        <pt x="81" y="132" on="0"/>
        <pt x="46" y="244" on="0"/>
        <pt x="46" y="315" on="1"/>
        <pt x="46" y="394" on="0"/>
        <pt x="92" y="515" on="0"/>
        <pt x="172" y="597" on="0"/>
        <pt x="281" y="639" on="0"/>
      </contour>
      <contour>
        <pt x="146" y="315" on="1"/>
        <pt x="146" y="251" on="0"/>
        <pt x="174" y="156" on="0"/>
        <pt x="225" y="92" on="0"/>
        <pt x="295" y="60" on="0"/>
        <pt x="336" y="60" on="1"/>
        <pt x="377" y="60" on="0"/>
        <pt x="451" y="93" on="0"/>
        <pt x="507" y="158" on="0"/>
        <pt x="540" y="253" on="0"/>
        <pt x="540" y="315" on="1"/>
        <pt x="540" y="381" on="0"/>
        <pt x="509" y="475" on="0"/>
        <pt x="455" y="536" on="0"/>
        <pt x="382" y="565" on="0"/>
        <pt x="341" y="565" on="1"/>
        <pt x="300" y="565" on="0"/>
        <pt x="228" y="535" on="0"/>
        <pt x="176" y="473" on="0"/>
        <pt x="146" y="379" on="0"/>
      </contour>
    </TTGlyph>
    <TTGlyph name="Qsmall" xMin="46" yMin="-117" xMax="546" yMax="477">
      <contour>
        <pt x="323" y="-6" on="1"/>
        <pt x="339" y="-9" on="0"/>
        <pt x="368" y="-22" on="0"/>
        <pt x="398" y="-37" on="0"/>
        <pt x="432" y="-48" on="0"/>
        <pt x="454" y="-48" on="1"/>
        <pt x="480" y="-48" on="0"/>
        <pt x="510" y="-38" on="0"/>
        <pt x="524" y="-30" on="1"/>
        <pt x="546" y="-95" on="1"/>
        <pt x="531" y="-104" on="0"/>
        <pt x="485" y="-117" on="0"/>
        <pt x="457" y="-117" on="1"/>
        <pt x="422" y="-117" on="0"/>
        <pt x="368" y="-98" on="0"/>
        <pt x="320" y="-74" on="0"/>
        <pt x="273" y="-55" on="0"/>
        <pt x="244" y="-55" on="1"/>
        <pt x="210" y="-55" on="0"/>
        <pt x="162" y="-74" on="0"/>
        <pt x="139" y="-89" on="1"/>
        <pt x="107" y="-29" on="1"/>
        <pt x="125" y="-15" on="0"/>
        <pt x="170" y="2" on="0"/>
        <pt x="190" y="6" on="1"/>
        <pt x="190" y="9" on="1"/>
        <pt x="161" y="17" on="0"/>
        <pt x="109" y="57" on="0"/>
        <pt x="69" y="115" on="0"/>
        <pt x="46" y="190" on="0"/>
        <pt x="46" y="234" on="1"/>
        <pt x="46" y="292" on="0"/>
        <pt x="82" y="383" on="0"/>
        <pt x="144" y="445" on="0"/>
        <pt x="228" y="477" on="0"/>
        <pt x="277" y="477" on="1"/>
        <pt x="326" y="477" on="0"/>
        <pt x="409" y="446" on="0"/>
        <pt x="471" y="385" on="0"/>
        <pt x="506" y="296" on="0"/>
        <pt x="506" y="238" on="1"/>
        <pt x="506" y="185" on="0"/>
        <pt x="476" y="101" on="0"/>
        <pt x="425" y="40" on="0"/>
        <pt x="359" y="3" on="0"/>
        <pt x="323" y="-4" on="1"/>
      </contour>
      <contour>
        <pt x="414" y="233" on="1"/>
        <pt x="414" y="280" on="0"/>
        <pt x="390" y="347" on="0"/>
        <pt x="351" y="389" on="0"/>
        <pt x="300" y="409" on="0"/>
        <pt x="274" y="409" on="1"/>
        <pt x="248" y="409" on="0"/>
        <pt x="199" y="393" on="0"/>
        <pt x="161" y="354" on="0"/>
        <pt x="138" y="289" on="0"/>
        <pt x="138" y="239" on="1"/>
        <pt x="138" y="192" on="0"/>
        <pt x="161" y="124" on="0"/>
        <pt x="199" y="79" on="0"/>
        <pt x="249" y="57" on="0"/>
        <pt x="275" y="57" on="1"/>
        <pt x="301" y="57" on="0"/>
        <pt x="351" y="74" on="0"/>
        <pt x="390" y="115" on="0"/>
        <pt x="414" y="182" on="0"/>
      </contour>
    </TTGlyph>
    <TTGlyph name="R" xMin="80" yMin="0" xMax="522" yMax="630">
      <contour>
        <pt x="80" y="630" on="1"/>
        <pt x="285" y="630" on="1"/>
        <pt x="334" y="630" on="0"/>
        <pt x="409" y="602" on="0"/>
        <pt x="459" y="552" on="0"/>
        <pt x="485" y="483" on="0"/>
        <pt x="485" y="442" on="1"/>
        <pt x="485" y="406" on="0"/>
        <pt x="463" y="348" on="0"/>
        <pt x="427" y="305" on="0"/>
        <pt x="380" y="274" on="0"/>
        <pt x="356" y="264" on="1"/>
        <pt x="522" y="0" on="1"/>
        <pt x="419" y="0" on="1"/>
        <pt x="270" y="247" on="1"/>
        <pt x="167" y="247" on="1"/>
        <pt x="167" y="0" on="1"/>
        <pt x="80" y="0" on="1"/>
      </contour>
      <contour>
        <pt x="167" y="322" on="1"/>
        <pt x="243" y="322" on="1"/>
        <pt x="274" y="322" on="0"/>
        <pt x="327" y="335" on="0"/>
        <pt x="366" y="362" on="0"/>
        <pt x="389" y="406" on="0"/>
        <pt x="389" y="437" on="1"/>
        <pt x="389" y="498" on="0"/>
        <pt x="322" y="556" on="0"/>
        <pt x="258" y="556" on="1"/>
        <pt x="167" y="556" on="1"/>
      </contour>
    </TTGlyph>
    <TTGlyph name="R.alt" xMin="80" yMin="0" xMax="522" yMax="630">
      <contour>
        <pt x="80" y="630" on="1"/>
        <pt x="285" y="630" on="1"/>
        <pt x="334" y="630" on="0"/>
        <pt x="409" y="602" on="0"/>
        <pt x="459" y="552" on="0"/>
        <pt x="485" y="483" on="0"/>
        <pt x="485" y="442" on="1"/>
        <pt x="485" y="406" on="0"/>
        <pt x="463" y="348" on="0"/>
        <pt x="427" y="305" on="0"/>
        <pt x="380" y="274" on="0"/>
        <pt x="356" y="264" on="1"/>
        <pt x="522" y="0" on="1"/>
        <pt x="419" y="0" on="1"/>
        <pt x="270" y="247" on="1"/>
        <pt x="167" y="247" on="1"/>
        <pt x="167" y="0" on="1"/>
        <pt x="80" y="0" on="1"/>
      </contour>
      <contour>
        <pt x="167" y="322" on="1"/>
        <pt x="243" y="322" on="1"/>
        <pt x="274" y="322" on="0"/>
        <pt x="327" y="335" on="0"/>
        <pt x="366" y="362" on="0"/>
        <pt x="389" y="406" on="0"/>
        <pt x="389" y="437" on="1"/>
        <pt x="389" y="498" on="0"/>
        <pt x="322" y="556" on="0"/>
        <pt x="258" y="556" on="1"/>
        <pt x="167" y="556" on="1"/>
      </contour>
    </TTGlyph>
    <TTGlyph name="Racute" xMin="80" yMin="0" xMax="522" yMax="834">
      <contour>
        <pt x="80" y="630" on="1"/>
        <pt x="285" y="630" on="1"/>
        <pt x="334" y="630" on="0"/>
        <pt x="409" y="602" on="0"/>
        <pt x="459" y="552" on="0"/>
        <pt x="485" y="483" on="0"/>
        <pt x="485" y="442" on="1"/>
        <pt x="485" y="406" on="0"/>
        <pt x="463" y="348" on="0"/>
        <pt x="427" y="305" on="0"/>
        <pt x="380" y="274" on="0"/>
        <pt x="356" y="264" on="1"/>
        <pt x="522" y="0" on="1"/>
        <pt x="419" y="0" on="1"/>
        <pt x="270" y="247" on="1"/>
        <pt x="167" y="247" on="1"/>
        <pt x="167" y="0" on="1"/>
        <pt x="80" y="0" on="1"/>
      </contour>
      <contour>
        <pt x="167" y="322" on="1"/>
        <pt x="243" y="322" on="1"/>
        <pt x="274" y="322" on="0"/>
        <pt x="327" y="335" on="0"/>
        <pt x="366" y="362" on="0"/>
        <pt x="389" y="406" on="0"/>
        <pt x="389" y="437" on="1"/>
        <pt x="389" y="498" on="0"/>
        <pt x="322" y="556" on="0"/>
        <pt x="258" y="556" on="1"/>
        <pt x="167" y="556" on="1"/>
      </contour>
      <contour>
        <pt x="264" y="710" on="1"/>
        <pt x="192" y="710" on="1"/>
        <pt x="272" y="834" on="1"/>
        <pt x="375" y="834" on="1"/>
      </contour>
    </TTGlyph>
    <TTGlyph name="Rcaron" xMin="80" yMin="0" xMax="522" yMax="845">
      <contour>
        <pt x="80" y="630" on="1"/>
        <pt x="285" y="630" on="1"/>
        <pt x="334" y="630" on="0"/>
        <pt x="409" y="602" on="0"/>
        <pt x="459" y="552" on="0"/>
        <pt x="485" y="483" on="0"/>
        <pt x="485" y="442" on="1"/>
        <pt x="485" y="406" on="0"/>
        <pt x="463" y="348" on="0"/>
        <pt x="427" y="305" on="0"/>
        <pt x="380" y="274" on="0"/>
        <pt x="356" y="264" on="1"/>
        <pt x="522" y="0" on="1"/>
        <pt x="419" y="0" on="1"/>
        <pt x="270" y="247" on="1"/>
        <pt x="167" y="247" on="1"/>
        <pt x="167" y="0" on="1"/>
        <pt x="80" y="0" on="1"/>
      </contour>
      <contour>
        <pt x="167" y="322" on="1"/>
        <pt x="243" y="322" on="1"/>
        <pt x="274" y="322" on="0"/>
        <pt x="327" y="335" on="0"/>
        <pt x="366" y="362" on="0"/>
        <pt x="389" y="406" on="0"/>
        <pt x="389" y="437" on="1"/>
        <pt x="389" y="498" on="0"/>
        <pt x="322" y="556" on="0"/>
        <pt x="258" y="556" on="1"/>
        <pt x="167" y="556" on="1"/>
      </contour>
      <contour>
        <pt x="96" y="845" on="1"/>
        <pt x="176" y="845" on="1"/>
        <pt x="254" y="758" on="1"/>
        <pt x="333" y="845" on="1"/>
        <pt x="412" y="845" on="1"/>
        <pt x="287" y="711" on="1"/>
        <pt x="218" y="711" on="1"/>
      </contour>
    </TTGlyph>
    <TTGlyph name="Rcommaaccent" xMin="80" yMin="-317" xMax="522" yMax="630">
      <contour>
        <pt x="80" y="630" on="1"/>
        <pt x="285" y="630" on="1"/>
        <pt x="334" y="630" on="0"/>
        <pt x="409" y="602" on="0"/>
        <pt x="459" y="552" on="0"/>
        <pt x="485" y="483" on="0"/>
        <pt x="485" y="442" on="1"/>
        <pt x="485" y="406" on="0"/>
        <pt x="463" y="348" on="0"/>
        <pt x="427" y="305" on="0"/>
        <pt x="380" y="274" on="0"/>
        <pt x="356" y="264" on="1"/>
        <pt x="522" y="0" on="1"/>
        <pt x="419" y="0" on="1"/>
        <pt x="270" y="247" on="1"/>
        <pt x="167" y="247" on="1"/>
        <pt x="167" y="0" on="1"/>
        <pt x="80" y="0" on="1"/>
      </contour>
      <contour>
        <pt x="167" y="322" on="1"/>
        <pt x="243" y="322" on="1"/>
        <pt x="274" y="322" on="0"/>
        <pt x="327" y="335" on="0"/>
        <pt x="366" y="362" on="0"/>
        <pt x="389" y="406" on="0"/>
        <pt x="389" y="437" on="1"/>
        <pt x="389" y="498" on="0"/>
        <pt x="322" y="556" on="0"/>
        <pt x="258" y="556" on="1"/>
        <pt x="167" y="556" on="1"/>
      </contour>
      <contour>
        <pt x="277" y="-182" on="1"/>
        <pt x="262" y="-179" on="0"/>
        <pt x="227" y="-150" on="0"/>
        <pt x="227" y="-124" on="1"/>
        <pt x="227" y="-100" on="0"/>
        <pt x="258" y="-65" on="0"/>
        <pt x="286" y="-65" on="1"/>
        <pt x="298" y="-65" on="0"/>
        <pt x="322" y="-75" on="0"/>
        <pt x="343" y="-96" on="0"/>
        <pt x="356" y="-129" on="0"/>
        <pt x="356" y="-153" on="1"/>
        <pt x="356" y="-176" on="0"/>
        <pt x="340" y="-223" on="0"/>
        <pt x="310" y="-267" on="0"/>
        <pt x="270" y="-304" on="0"/>
        <pt x="246" y="-317" on="1"/>
        <pt x="221" y="-282" on="1"/>
        <pt x="249" y="-265" on="0"/>
        <pt x="293" y="-212" on="0"/>
        <pt x="295" y="-186" on="1"/>
      </contour>
    </TTGlyph>
    <TTGlyph name="Ring" xMin="25" yMin="710" xMax="219" yMax="876">
      <contour>
        <pt x="25" y="793" on="1"/>
        <pt x="25" y="837" on="0"/>
        <pt x="81" y="876" on="0"/>
        <pt x="122" y="876" on="1"/>
        <pt x="164" y="876" on="0"/>
        <pt x="219" y="838" on="0"/>
        <pt x="219" y="793" on="1"/>
        <pt x="219" y="771" on="0"/>
        <pt x="203" y="739" on="0"/>
        <pt x="176" y="719" on="0"/>
        <pt x="141" y="710" on="0"/>
        <pt x="122" y="710" on="1"/>
        <pt x="83" y="710" on="0"/>
        <pt x="25" y="751" on="0"/>
      </contour>
      <contour>
        <pt x="74" y="793" on="1"/>
        <pt x="74" y="770" on="0"/>
        <pt x="99" y="743" on="0"/>
        <pt x="122" y="743" on="1"/>
        <pt x="145" y="743" on="0"/>
        <pt x="170" y="770" on="0"/>
        <pt x="170" y="793" on="1"/>
        <pt x="170" y="816" on="0"/>
        <pt x="145" y="843" on="0"/>
        <pt x="122" y="843" on="1"/>
        <pt x="99" y="843" on="0"/>
        <pt x="74" y="816" on="0"/>
      </contour>
    </TTGlyph>
    <TTGlyph name="Rsmall" xMin="80" yMin="0" xMax="432" yMax="470">
      <contour>
        <pt x="80" y="470" on="1"/>
        <pt x="256" y="470" on="1"/>
        <pt x="288" y="470" on="0"/>
        <pt x="347" y="452" on="0"/>
        <pt x="392" y="417" on="0"/>
        <pt x="419" y="363" on="0"/>
        <pt x="419" y="327" on="1"/>
        <pt x="419" y="273" on="0"/>
        <pt x="368" y="205" on="0"/>
        <pt x="321" y="186" on="1"/>
        <pt x="432" y="0" on="1"/>
        <pt x="334" y="0" on="1"/>
        <pt x="248" y="170" on="1"/>
        <pt x="163" y="170" on="1"/>
        <pt x="163" y="0" on="1"/>
        <pt x="80" y="0" on="1"/>
      </contour>
      <contour>
        <pt x="162" y="237" on="1"/>
        <pt x="226" y="237" on="1"/>
        <pt x="273" y="237" on="0"/>
        <pt x="331" y="277" on="0"/>
        <pt x="331" y="322" on="1"/>
        <pt x="331" y="367" on="0"/>
        <pt x="274" y="402" on="0"/>
        <pt x="224" y="402" on="1"/>
        <pt x="162" y="402" on="1"/>
      </contour>
    </TTGlyph>
    <TTGlyph name="S" xMin="44" yMin="-9" xMax="463" yMax="639">
      <contour>
        <pt x="257" y="639" on="1"/>
        <pt x="303" y="639" on="0"/>
        <pt x="389" y="624" on="0"/>
        <pt x="431" y="604" on="1"/>
        <pt x="409" y="528" on="1"/>
        <pt x="366" y="548" on="0"/>
        <pt x="297" y="565" on="0"/>
        <pt x="261" y="565" on="1"/>
        <pt x="204" y="565" on="0"/>
        <pt x="138" y="515" on="0"/>
        <pt x="138" y="470" on="1"/>
        <pt x="138" y="432" on="0"/>
        <pt x="187" y="386" on="0"/>
        <pt x="243" y="369" on="1"/>
        <pt x="306" y="349" on="1"/>
        <pt x="392" y="322" on="0"/>
        <pt x="463" y="229" on="0"/>
        <pt x="463" y="171" on="1"/>
        <pt x="463" y="130" on="0"/>
        <pt x="430" y="63" on="0"/>
        <pt x="371" y="16" on="0"/>
        <pt x="291" y="-9" on="0"/>
        <pt x="243" y="-9" on="1"/>
        <pt x="195" y="-9" on="0"/>
        <pt x="96" y="8" on="0"/>
        <pt x="47" y="31" on="1"/>
        <pt x="69" y="106" on="1"/>
        <pt x="112" y="85" on="0"/>
        <pt x="194" y="65" on="0"/>
        <pt x="239" y="65" on="1"/>
        <pt x="293" y="65" on="0"/>
        <pt x="369" y="115" on="0"/>
        <pt x="369" y="164" on="1"/>
        <pt x="369" y="182" on="0"/>
        <pt x="358" y="213" on="0"/>
        <pt x="331" y="241" on="0"/>
        <pt x="285" y="265" on="0"/>
        <pt x="250" y="276" on="1"/>
        <pt x="187" y="296" on="1"/>
        <pt x="118" y="318" on="0"/>
        <pt x="44" y="394" on="0"/>
        <pt x="44" y="459" on="1"/>
        <pt x="44" y="542" on="0"/>
        <pt x="153" y="639" on="0"/>
      </contour>
    </TTGlyph>
    <TTGlyph name="Sacute" xMin="44" yMin="-9" xMax="463" yMax="834">
      <contour>
        <pt x="257" y="639" on="1"/>
        <pt x="303" y="639" on="0"/>
        <pt x="389" y="624" on="0"/>
        <pt x="431" y="604" on="1"/>
        <pt x="409" y="528" on="1"/>
        <pt x="366" y="548" on="0"/>
        <pt x="297" y="565" on="0"/>
        <pt x="261" y="565" on="1"/>
        <pt x="204" y="565" on="0"/>
        <pt x="138" y="515" on="0"/>
        <pt x="138" y="470" on="1"/>
        <pt x="138" y="432" on="0"/>
        <pt x="187" y="386" on="0"/>
        <pt x="243" y="369" on="1"/>
        <pt x="306" y="349" on="1"/>
        <pt x="392" y="322" on="0"/>
        <pt x="463" y="229" on="0"/>
        <pt x="463" y="171" on="1"/>
        <pt x="463" y="130" on="0"/>
        <pt x="430" y="63" on="0"/>
        <pt x="371" y="16" on="0"/>
        <pt x="291" y="-9" on="0"/>
        <pt x="243" y="-9" on="1"/>
        <pt x="195" y="-9" on="0"/>
        <pt x="96" y="8" on="0"/>
        <pt x="47" y="31" on="1"/>
        <pt x="69" y="106" on="1"/>
        <pt x="112" y="85" on="0"/>
        <pt x="194" y="65" on="0"/>
        <pt x="239" y="65" on="1"/>
        <pt x="293" y="65" on="0"/>
        <pt x="369" y="115" on="0"/>
        <pt x="369" y="164" on="1"/>
        <pt x="369" y="182" on="0"/>
        <pt x="358" y="213" on="0"/>
        <pt x="331" y="241" on="0"/>
        <pt x="285" y="265" on="0"/>
        <pt x="250" y="276" on="1"/>
        <pt x="187" y="296" on="1"/>
        <pt x="118" y="318" on="0"/>
        <pt x="44" y="394" on="0"/>
        <pt x="44" y="459" on="1"/>
        <pt x="44" y="542" on="0"/>
        <pt x="153" y="639" on="0"/>
      </contour>
      <contour>
        <pt x="244" y="710" on="1"/>
        <pt x="172" y="710" on="1"/>
        <pt x="252" y="834" on="1"/>
        <pt x="355" y="834" on="1"/>
      </contour>
    </TTGlyph>
    <TTGlyph name="Scaron" xMin="44" yMin="-9" xMax="463" yMax="845">
      <contour>
        <pt x="257" y="639" on="1"/>
        <pt x="303" y="639" on="0"/>
        <pt x="389" y="624" on="0"/>
        <pt x="431" y="604" on="1"/>
        <pt x="409" y="528" on="1"/>
        <pt x="366" y="548" on="0"/>
        <pt x="297" y="565" on="0"/>
        <pt x="261" y="565" on="1"/>
        <pt x="204" y="565" on="0"/>
        <pt x="138" y="515" on="0"/>
        <pt x="138" y="470" on="1"/>
        <pt x="138" y="432" on="0"/>
        <pt x="187" y="386" on="0"/>
        <pt x="243" y="369" on="1"/>
        <pt x="306" y="349" on="1"/>
        <pt x="392" y="322" on="0"/>
        <pt x="463" y="229" on="0"/>
        <pt x="463" y="171" on="1"/>
        <pt x="463" y="130" on="0"/>
        <pt x="430" y="63" on="0"/>
        <pt x="371" y="16" on="0"/>
        <pt x="291" y="-9" on="0"/>
        <pt x="243" y="-9" on="1"/>
        <pt x="195" y="-9" on="0"/>
        <pt x="96" y="8" on="0"/>
        <pt x="47" y="31" on="1"/>
        <pt x="69" y="106" on="1"/>
        <pt x="112" y="85" on="0"/>
        <pt x="194" y="65" on="0"/>
        <pt x="239" y="65" on="1"/>
        <pt x="293" y="65" on="0"/>
        <pt x="369" y="115" on="0"/>
        <pt x="369" y="164" on="1"/>
        <pt x="369" y="182" on="0"/>
        <pt x="358" y="213" on="0"/>
        <pt x="331" y="241" on="0"/>
        <pt x="285" y="265" on="0"/>
        <pt x="250" y="276" on="1"/>
        <pt x="187" y="296" on="1"/>
        <pt x="118" y="318" on="0"/>
        <pt x="44" y="394" on="0"/>
        <pt x="44" y="459" on="1"/>
        <pt x="44" y="542" on="0"/>
        <pt x="153" y="639" on="0"/>
      </contour>
      <contour>
        <pt x="101" y="845" on="1"/>
        <pt x="181" y="845" on="1"/>
        <pt x="259" y="758" on="1"/>
        <pt x="338" y="845" on="1"/>
        <pt x="417" y="845" on="1"/>
        <pt x="292" y="711" on="1"/>
        <pt x="223" y="711" on="1"/>
      </contour>
    </TTGlyph>
    <TTGlyph name="Scedilla" xMin="44" yMin="-214" xMax="463" yMax="639">
      <contour>
        <pt x="257" y="639" on="1"/>
        <pt x="303" y="639" on="0"/>
        <pt x="389" y="624" on="0"/>
        <pt x="431" y="604" on="1"/>
        <pt x="409" y="528" on="1"/>
        <pt x="366" y="548" on="0"/>
        <pt x="297" y="565" on="0"/>
        <pt x="261" y="565" on="1"/>
        <pt x="204" y="565" on="0"/>
        <pt x="138" y="515" on="0"/>
        <pt x="138" y="470" on="1"/>
        <pt x="138" y="432" on="0"/>
        <pt x="187" y="386" on="0"/>
        <pt x="243" y="369" on="1"/>
        <pt x="306" y="349" on="1"/>
        <pt x="392" y="322" on="0"/>
        <pt x="463" y="229" on="0"/>
        <pt x="463" y="171" on="1"/>
        <pt x="463" y="133" on="0"/>
        <pt x="435" y="71" on="0"/>
        <pt x="385" y="25" on="0"/>
        <pt x="316" y="-3" on="0"/>
        <pt x="274" y="-7" on="1"/>
        <pt x="256" y="-47" on="1"/>
        <pt x="284" y="-48" on="0"/>
        <pt x="322" y="-62" on="0"/>
        <pt x="344" y="-85" on="0"/>
        <pt x="354" y="-112" on="0"/>
        <pt x="354" y="-127" on="1"/>
        <pt x="354" y="-169" on="0"/>
        <pt x="285" y="-214" on="0"/>
        <pt x="233" y="-214" on="1"/>
        <pt x="210" y="-214" on="0"/>
        <pt x="171" y="-207" on="0"/>
        <pt x="159" y="-202" on="1"/>
        <pt x="171" y="-160" on="1"/>
        <pt x="184" y="-165" on="0"/>
        <pt x="212" y="-169" on="0"/>
        <pt x="226" y="-169" on="1"/>
        <pt x="294" y="-169" on="0"/>
        <pt x="294" y="-129" on="1"/>
        <pt x="294" y="-119" on="0"/>
        <pt x="287" y="-100" on="0"/>
        <pt x="265" y="-86" on="0"/>
        <pt x="226" y="-78" on="0"/>
        <pt x="193" y="-78" on="1"/>
        <pt x="226" y="-9" on="1"/>
        <pt x="181" y="-7" on="0"/>
        <pt x="92" y="10" on="0"/>
        <pt x="47" y="31" on="1"/>
        <pt x="69" y="106" on="1"/>
        <pt x="112" y="85" on="0"/>
        <pt x="194" y="65" on="0"/>
        <pt x="239" y="65" on="1"/>
        <pt x="293" y="65" on="0"/>
        <pt x="369" y="115" on="0"/>
        <pt x="369" y="164" on="1"/>
        <pt x="369" y="182" on="0"/>
        <pt x="358" y="213" on="0"/>
        <pt x="331" y="241" on="0"/>
        <pt x="285" y="265" on="0"/>
        <pt x="250" y="276" on="1"/>
        <pt x="187" y="296" on="1"/>
        <pt x="118" y="318" on="0"/>
        <pt x="44" y="394" on="0"/>
        <pt x="44" y="459" on="1"/>
        <pt x="44" y="542" on="0"/>
        <pt x="153" y="639" on="0"/>
      </contour>
    </TTGlyph>
    <TTGlyph name="Scircumflex" xMin="44" yMin="-9" xMax="463" yMax="844">
      <contour>
        <pt x="257" y="639" on="1"/>
        <pt x="303" y="639" on="0"/>
        <pt x="389" y="624" on="0"/>
        <pt x="431" y="604" on="1"/>
        <pt x="409" y="528" on="1"/>
        <pt x="366" y="548" on="0"/>
        <pt x="297" y="565" on="0"/>
        <pt x="261" y="565" on="1"/>
        <pt x="204" y="565" on="0"/>
        <pt x="138" y="515" on="0"/>
        <pt x="138" y="470" on="1"/>
        <pt x="138" y="432" on="0"/>
        <pt x="187" y="386" on="0"/>
        <pt x="243" y="369" on="1"/>
        <pt x="306" y="349" on="1"/>
        <pt x="392" y="322" on="0"/>
        <pt x="463" y="229" on="0"/>
        <pt x="463" y="171" on="1"/>
        <pt x="463" y="130" on="0"/>
        <pt x="430" y="63" on="0"/>
        <pt x="371" y="16" on="0"/>
        <pt x="291" y="-9" on="0"/>
        <pt x="243" y="-9" on="1"/>
        <pt x="195" y="-9" on="0"/>
        <pt x="96" y="8" on="0"/>
        <pt x="47" y="31" on="1"/>
        <pt x="69" y="106" on="1"/>
        <pt x="112" y="85" on="0"/>
        <pt x="194" y="65" on="0"/>
        <pt x="239" y="65" on="1"/>
        <pt x="293" y="65" on="0"/>
        <pt x="369" y="115" on="0"/>
        <pt x="369" y="164" on="1"/>
        <pt x="369" y="182" on="0"/>
        <pt x="358" y="213" on="0"/>
        <pt x="331" y="241" on="0"/>
        <pt x="285" y="265" on="0"/>
        <pt x="250" y="276" on="1"/>
        <pt x="187" y="296" on="1"/>
        <pt x="118" y="318" on="0"/>
        <pt x="44" y="394" on="0"/>
        <pt x="44" y="459" on="1"/>
        <pt x="44" y="542" on="0"/>
        <pt x="153" y="639" on="0"/>
      </contour>
      <contour>
        <pt x="218" y="844" on="1"/>
        <pt x="287" y="844" on="1"/>
        <pt x="412" y="710" on="1"/>
        <pt x="332" y="710" on="1"/>
        <pt x="252" y="794" on="1"/>
        <pt x="172" y="710" on="1"/>
        <pt x="96" y="710" on="1"/>
      </contour>
    </TTGlyph>
    <TTGlyph name="Scommaaccent" xMin="44" yMin="-317" xMax="463" yMax="639">
      <contour>
        <pt x="431" y="604" on="1"/>
        <pt x="426" y="585" on="0"/>
        <pt x="414" y="547" on="0"/>
        <pt x="409" y="528" on="1"/>
        <pt x="366" y="548" on="0"/>
        <pt x="297" y="565" on="0"/>
        <pt x="261" y="565" on="1"/>
        <pt x="204" y="565" on="0"/>
        <pt x="138" y="515" on="0"/>
        <pt x="138" y="470" on="1"/>
        <pt x="138" y="444" on="0"/>
        <pt x="157" y="411" on="0"/>
        <pt x="198" y="385" on="0"/>
        <pt x="261" y="363" on="0"/>
        <pt x="306" y="349" on="1"/>
        <pt x="392" y="321" on="0"/>
        <pt x="463" y="230" on="0"/>
        <pt x="463" y="171" on="1"/>
        <pt x="463" y="130" on="0"/>
        <pt x="430" y="63" on="0"/>
        <pt x="371" y="16" on="0"/>
        <pt x="291" y="-9" on="0"/>
        <pt x="243" y="-9" on="1"/>
        <pt x="195" y="-9" on="0"/>
        <pt x="96" y="8" on="0"/>
        <pt x="47" y="31" on="1"/>
        <pt x="52" y="50" on="0"/>
        <pt x="64" y="87" on="0"/>
        <pt x="69" y="106" on="1"/>
        <pt x="112" y="85" on="0"/>
        <pt x="194" y="65" on="0"/>
        <pt x="239" y="65" on="1"/>
        <pt x="293" y="65" on="0"/>
        <pt x="369" y="115" on="0"/>
        <pt x="369" y="164" on="1"/>
        <pt x="369" y="188" on="0"/>
        <pt x="353" y="222" on="0"/>
        <pt x="311" y="251" on="0"/>
        <pt x="241" y="278" on="0"/>
        <pt x="187" y="296" on="1"/>
        <pt x="118" y="319" on="0"/>
        <pt x="44" y="393" on="0"/>
        <pt x="44" y="459" on="1"/>
        <pt x="44" y="542" on="0"/>
        <pt x="153" y="639" on="0"/>
        <pt x="257" y="639" on="1"/>
        <pt x="303" y="639" on="0"/>
        <pt x="389" y="624" on="0"/>
      </contour>
      <contour>
        <pt x="227" y="-182" on="1"/>
        <pt x="212" y="-179" on="0"/>
        <pt x="177" y="-150" on="0"/>
        <pt x="177" y="-124" on="1"/>
        <pt x="177" y="-100" on="0"/>
        <pt x="208" y="-65" on="0"/>
        <pt x="236" y="-65" on="1"/>
        <pt x="248" y="-65" on="0"/>
        <pt x="272" y="-75" on="0"/>
        <pt x="293" y="-96" on="0"/>
        <pt x="306" y="-129" on="0"/>
        <pt x="306" y="-153" on="1"/>
        <pt x="306" y="-176" on="0"/>
        <pt x="290" y="-223" on="0"/>
        <pt x="260" y="-267" on="0"/>
        <pt x="220" y="-304" on="0"/>
        <pt x="196" y="-317" on="1"/>
        <pt x="171" y="-282" on="1"/>
        <pt x="199" y="-265" on="0"/>
        <pt x="243" y="-212" on="0"/>
        <pt x="245" y="-186" on="1"/>
      </contour>
    </TTGlyph>
</ttFont>
